<?xml version="1.0" encoding="iso-8859-1"?>
<!-- Generator: Adobe Illustrator 19.0.0, SVG Export Plug-In . SVG Version: 6.00 Build 0)  -->
<svg version="1.1" id="Layer_1" xmlns="http://www.w3.org/2000/svg" xmlns:xlink="http://www.w3.org/1999/xlink" x="0px" y="0px"
	 viewBox="0 0 300.726 300.726" style="enable-background:new 0 0 300.726 300.726;" xml:space="preserve">
<g>
	<g id="handshake-hand-deal-agree-agreement-contract_1_">
		<path style="fill:#FFFFFF;" d="M245.895,47.378l-73.415,73.415l0,0c-0.005,0.005-0.005,0.009-0.009,0.014l-33.968,33.705
			c5.874,2.932,13.227,1.95,18.1-2.909l18.64-18.621l6.639,6.654l-6.057,6.047l47.369,47.374l69.289-69.289
			C285.576,93.441,268.886,66.808,245.895,47.378z"/>
		<path style="fill:#3ADDBE;" d="M46.988,112.772c-1.255,0-2.434,0.489-3.322,1.377l0,0c-1.833,1.833-1.833,4.812,0,6.644
			c1.776,1.781,4.873,1.781,6.644,0c1.833-1.833,1.833-4.812,0-6.644C49.422,113.261,48.243,112.772,46.988,112.772z"/>
		<path style="fill:#F8CF26;" d="M229.101,206.749c0,5.018-1.955,9.741-5.502,13.288l-50.55,50.55
			c-3.665,3.66-8.477,5.493-13.288,5.493s-9.623-1.833-13.288-5.493l-2.594-2.594c-1.72,0.71-3.548,1.067-5.385,1.067
			c-3.609,0-7.217-1.372-9.966-4.121l0,0c-2.66-2.66-4.126-6.202-4.126-9.966c0-0.959,0.099-1.898,0.282-2.815
			c-0.926,0.188-1.861,0.291-2.801,0.291c-3.609,0-7.217-1.372-9.966-4.116c0-0.005,0-0.005-0.005-0.005
			c-3.463-3.463-4.732-8.293-3.83-12.767c-0.916,0.183-1.856,0.282-2.81,0.282c-3.764,0-7.307-1.466-9.966-4.13l0,0
			c-3.463-3.463-4.732-8.289-3.83-12.762c-0.916,0.183-1.856,0.282-2.81,0.282c-3.768,0-7.307-1.466-9.971-4.13
			c-4.995-4.995-5.399-12.804-1.32-18.316l-14.909-14.909c-0.888-0.879-1.381-2.072-1.381-3.322v-12.015l-44.07-40.062
			c-1.908,9.233-2.918,18.791-2.918,28.583c0,77.728,63.237,140.965,140.965,140.965s140.965-63.237,140.965-140.965
			c0-6.823-0.512-13.528-1.457-20.092l-66.352,66.352C228.744,203.07,229.101,204.874,229.101,206.749z"/>
		<path style="fill:#3ADDBE;" d="M109.412,81.722L71.906,41.331c-24.88,18.241-43.554,44.427-52.298,74.796l28.809,26.191
			L109.412,81.722z M37.017,127.437c-5.493-5.498-5.493-14.435,0-19.932l0,0c5.324-5.324,14.609-5.324,19.937,0
			c5.493,5.498,5.493,14.435,0,19.932c-2.66,2.664-6.202,4.13-9.966,4.13C43.225,131.567,39.682,130.101,37.017,127.437z"/>
		<path style="fill:#FFFFFF;" d="M162.5,117.457l-4.685-4.685h-16.85c-1.245,0-2.443-0.493-3.322-1.377l-6.076-6.076l-61.085,61.085
			v10.206l13.382,13.382l21.408-21.403c5.498-5.502,14.44-5.498,19.937,0c3.463,3.468,4.732,8.303,3.825,12.781
			c4.478-0.907,9.318,0.357,12.786,3.83c3.501,3.501,4.746,8.392,3.792,12.908c4.525-0.879,9.459,0.348,12.823,3.707
			c2.66,2.655,4.126,6.198,4.126,9.966c0,1.001-0.117,1.978-0.32,2.932c4.52-0.874,9.449,0.362,12.804,3.712
			c2.664,2.66,4.13,6.202,4.13,9.966c0,3.768-1.466,7.311-4.13,9.971l-23.753,23.753l1.823,1.823c3.66,3.66,9.628,3.66,13.288,0
			l50.55-50.55c1.771-1.776,2.749-4.135,2.749-6.644s-0.977-4.868-2.749-6.644l-47.782-47.778l-5.935,5.93
			c-9.67,9.656-25.482,9.731-35.251,0.169c-0.897-0.883-1.405-2.086-1.41-3.346c-0.005-1.259,0.493-2.462,1.386-3.35L162.5,117.457z
			"/>
		<path style="fill:#FFFFFF;" d="M101.951,225.069c1.771,1.781,4.868,1.781,6.639,0l26.586-26.577c1.833-1.833,1.833-4.816,0-6.649
			c-0.916-0.916-2.119-1.372-3.322-1.372s-2.406,0.456-3.327,1.372l-26.581,26.581C100.118,220.258,100.118,223.242,101.951,225.069
			L101.951,225.069z"/>
		<polygon style="fill:#3ADDBE;" points="115.807,88.611 55.376,148.648 65.629,157.97 125.041,98.558 		"/>
		<path style="fill:#F8CF26;" d="M142.91,103.374h16.85c1.245,0,2.443,0.493,3.322,1.377l6.076,6.076l69.313-69.313
			c-23.372-17.217-52.218-27.418-83.409-27.418c-27.676,0-53.496,8.049-75.294,21.887l55.216,59.464L142.91,103.374z"/>
		<path style="fill:#FFFFFF;" d="M141.82,258.3l26.581-26.581c0.888-0.888,1.377-2.063,1.377-3.322c0-1.255-0.489-2.434-1.377-3.322
			c-1.833-1.837-4.816-1.842-6.649,0l-26.581,26.581c-0.888,0.883-1.372,2.063-1.372,3.322c0,1.255,0.489,2.439,1.372,3.322
			C137.013,260.132,139.992,260.132,141.82,258.3z"/>
		<path style="fill:#FFFFFF;" d="M118.561,175.234c-0.916-0.916-2.119-1.372-3.322-1.372s-2.406,0.456-3.327,1.372L85.331,201.81
			c-1.833,1.837-1.833,4.812,0,6.649c1.828,1.833,4.812,1.837,6.649,0l26.581-26.581
			C120.394,180.045,120.394,177.066,118.561,175.234z"/>
		<path style="fill:#FFFFFF;" d="M125.21,241.685l26.577-26.577c0.888-0.888,1.377-2.067,1.377-3.322
			c0-1.259-0.489-2.434-1.372-3.317c-1.781-1.79-4.873-1.786-6.644-0.005l-26.586,26.577c-1.833,1.833-1.833,4.812,0,6.649
			C120.394,243.512,123.377,243.517,125.21,241.685z"/>
		<path d="M32.319,122.738c2.664,2.664,6.207,4.13,9.971,4.13s7.307-1.466,9.966-4.13c5.498-5.498,5.498-14.435,0-19.932
			c-5.328-5.324-14.613-5.324-19.937,0l0,0C26.826,108.303,26.826,117.241,32.319,122.738z M38.967,109.45L38.967,109.45
			c0.888-0.888,2.067-1.377,3.322-1.377c1.255,0,2.434,0.489,3.322,1.377c1.833,1.833,1.833,4.812,0,6.644
			c-1.771,1.781-4.868,1.781-6.644,0C37.135,114.262,37.135,111.283,38.967,109.45z"/>
		<path d="M150.363,0C67.452,0,0,67.452,0,150.363s67.452,150.363,150.363,150.363s150.363-67.452,150.363-150.363
			S233.274,0,150.363,0z M287.785,119.068l-69.289,69.289l-47.374-47.374l6.057-6.047l-6.639-6.654l-18.64,18.621
			c-4.868,4.859-12.226,5.841-18.1,2.909l33.968-33.705c0.005-0.005,0.005-0.009,0.009-0.014l0,0l73.419-73.415
			C264.187,62.109,280.878,88.742,287.785,119.068z M80.637,197.111l26.581-26.577c0.916-0.916,2.119-1.372,3.327-1.372
			c1.203,0,2.406,0.456,3.322,1.372c1.833,1.833,1.833,4.812,0,6.644L87.286,203.76c-1.833,1.837-4.816,1.833-6.649,0
			C78.804,201.928,78.804,198.949,80.637,197.111z M97.252,213.726l26.581-26.581c0.916-0.916,2.119-1.372,3.327-1.372
			c1.203,0,2.406,0.456,3.322,1.372c1.833,1.833,1.833,4.816,0,6.649l-26.586,26.577c-1.771,1.781-4.868,1.781-6.639,0l0,0
			C95.419,218.543,95.419,215.559,97.252,213.726z M113.862,230.342l26.586-26.577c1.771-1.781,4.863-1.786,6.644,0.005
			c0.883,0.883,1.372,2.058,1.372,3.317c0,1.255-0.489,2.434-1.377,3.322l-26.577,26.577c-1.833,1.837-4.816,1.833-6.649,0.005
			C112.03,235.153,112.03,232.169,113.862,230.342z M130.477,246.957l26.581-26.581c1.833-1.842,4.816-1.837,6.649,0
			c0.888,0.888,1.377,2.067,1.377,3.322c0,1.259-0.489,2.434-1.377,3.322l-26.581,26.581c-1.828,1.837-4.807,1.837-6.649,0
			c-0.883-0.883-1.372-2.067-1.372-3.322C129.1,249.019,129.589,247.84,130.477,246.957z M170.342,233.668
			c2.664-2.66,4.13-6.202,4.13-9.971c0-3.764-1.466-7.307-4.13-9.966c-3.355-3.35-8.284-4.586-12.804-3.712
			c0.202-0.954,0.32-1.931,0.32-2.932c0-3.768-1.466-7.311-4.126-9.966c-3.364-3.36-8.298-4.586-12.823-3.707
			c0.959-4.516-0.291-9.407-3.792-12.908c-3.468-3.472-8.308-4.736-12.786-3.83c0.907-4.478-0.362-9.313-3.825-12.781
			c-5.498-5.498-14.44-5.502-19.937,0l-21.408,21.403l-13.378-13.387v-10.206l61.085-61.085l6.076,6.076
			c0.879,0.883,2.077,1.377,3.322,1.377h16.85l4.685,4.685l-34.536,34.269c-0.893,0.883-1.391,2.091-1.386,3.35
			s0.512,2.462,1.41,3.346c9.769,9.562,25.58,9.487,35.251-0.169l5.935-5.93l47.782,47.782c1.771,1.776,2.749,4.135,2.749,6.644
			s-0.977,4.868-2.749,6.644l-50.55,50.55c-3.66,3.66-9.628,3.66-13.288,0l-1.823-1.823L170.342,233.668z M120.342,93.859
			L60.93,153.271l-10.253-9.322l60.427-60.042L120.342,93.859z M233.772,36.815l-69.313,69.313l-6.076-6.076
			c-0.879-0.883-2.077-1.377-3.322-1.377h-16.85l-7.932-7.932l-55.21-59.458c21.798-13.838,47.618-21.887,75.294-21.887
			C181.554,9.398,210.4,19.599,233.772,36.815z M67.207,36.632l37.506,40.391l-60.996,60.601l-28.809-26.191
			C23.654,81.064,42.327,54.873,67.207,36.632z M150.363,291.328c-77.728,0-140.965-63.237-140.965-140.965
			c0-9.792,1.01-19.35,2.918-28.583l44.07,40.062v12.015c0,1.25,0.493,2.443,1.377,3.322l14.909,14.909
			c-4.079,5.516-3.67,13.326,1.32,18.316c2.66,2.66,6.202,4.13,9.971,4.13c0.954,0,1.894-0.099,2.81-0.282
			c-0.902,4.473,0.371,9.299,3.83,12.762l0,0c2.66,2.66,6.202,4.13,9.966,4.13c0.954,0,1.894-0.099,2.81-0.282
			c-0.902,4.478,0.371,9.304,3.83,12.767c0,0,0,0,0.005,0.005c2.744,2.744,6.358,4.116,9.966,4.116c0.94,0,1.88-0.103,2.801-0.291
			c-0.183,0.916-0.282,1.856-0.282,2.815c0,3.764,1.466,7.307,4.126,9.966l0,0c2.749,2.749,6.358,4.121,9.966,4.121
			c1.833,0,3.665-0.362,5.385-1.067l2.594,2.594c3.665,3.66,8.477,5.493,13.288,5.493s9.623-1.833,13.288-5.493l50.55-50.55
			c3.548-3.548,5.502-8.27,5.502-13.288c0-1.875-0.357-3.679-0.883-5.427l66.357-66.352c0.944,6.564,1.457,13.27,1.457,20.092
			C291.328,228.091,228.091,291.328,150.363,291.328z"/>
	</g>
	<g id="Layer_1_12_">
	</g>
</g>
<g>
</g>
<g>
</g>
<g>
</g>
<g>
</g>
<g>
</g>
<g>
</g>
<g>
</g>
<g>
</g>
<g>
</g>
<g>
</g>
<g>
</g>
<g>
</g>
<g>
</g>
<g>
</g>
<g>
</g>
</svg>
