<?xml version="1.0" encoding="iso-8859-1"?>
<!-- Generator: Adobe Illustrator 18.0.0, SVG Export Plug-In . SVG Version: 6.00 Build 0)  -->
<!DOCTYPE svg PUBLIC "-//W3C//DTD SVG 1.1//EN" "http://www.w3.org/Graphics/SVG/1.1/DTD/svg11.dtd">
<svg version="1.1" id="Capa_1" xmlns="http://www.w3.org/2000/svg" xmlns:xlink="http://www.w3.org/1999/xlink" x="0px" y="0px"
	 viewBox="0 0 424.839 424.839" style="enable-background:new 0 0 424.839 424.839;" xml:space="preserve">
<g>
	<path d="M370.919,191.871c0,36.49,0.5,72.98-0.16,109.46c-0.52,28.66-0.33,57.48-6.45,85.75c-1.32,6.09-3.13,12.11-5.09,18.04
		c-3.18,9.59-10.29,15.06-19.84,17.39c-4.62,1.13-9.41,2.2-14.13,2.21c-30.94,0.02-61.91,0.5-92.82-0.63
		c-31.95-1.16-63.84-3.91-95.75-6.11c-13.92-0.97-27.7-2.43-41.27-6.39c-23.65-6.91-35.81-22.23-39.12-46.48
		c-3.27-23.89-2.63-47.74-2.18-71.65c0.14-7.74,0.44-15.47,0.54-23.21c0.5-35.35,1.05-70.7,1.4-106.05
		c0.2-20.25,0.21-40.49-0.01-60.73c-0.18-16.2-1.2-32.39-1.22-48.58c-0.06-31.86,19.49-51.92,51.23-52.81
		c23.56-0.67,47.13-1.21,70.69-1.39c10.29-0.09,20.59,1.38,30.86,1.21c23.15-0.39,46.31-2.34,69.43-1.81
		c19.4,0.46,38.8,3.14,58.08,5.68c5.98,0.79,11.99,3.68,17.3,6.78c8.78,5.13,13.76,13.17,14.15,23.58
		c0.75,19.86,1.8,39.72,2.01,59.59c0.34,32.05,0.09,64.1,0.09,96.15C369.409,191.871,370.169,191.871,370.919,191.871z
		 M355.139,369.401c1.97-30.1,4.11-60.28,3.91-90.42c-0.42-65.6-2.26-131.19-3.52-196.79c-0.24-12.9-0.27-25.8-0.77-38.69
		c-0.64-16.63-6.67-24.23-22.01-26.98c-11.93-2.14-24.01-3.42-36.04-4.92c-17.58-2.21-35.11-1.93-52.85-1.08
		c-26.48,1.27-53.07,0.06-79.61,0.42c-20.98,0.29-42.01,0.54-62.89,2.29c-21.78,1.82-34.17,16.38-34.38,38.44
		c-0.19,20.28,0.06,40.56,0.21,60.84c0.01,1.89,0.73,3.78,1.21,6.12c1.91-1.77,3.13-2.91,4.36-4.05
		c-6.61,14.81-6.61,14.81-3.6,23.49c2.66-3.65,5.27-7.21,7.87-10.78c-2.81,12.54-14.71,22.5-7.75,37.88
		c3.6-4.95,6.89-9.45,10.18-13.96c0.61,0.42,1.23,0.83,1.85,1.24c-3.65,7.12-7.27,14.26-10.95,21.36c-3.86,7.44-3,15.02-1.61,24.55
		c2.52-3.81,3.9-5.95,5.34-8.05c1.24-1.8,2.54-3.55,3.81-5.32c-5.66,14.52-13.96,27.92-8.79,45.45c4.22-6.81,8.05-12.99,11.88-19.18
		c0.66,0.37,1.31,0.73,1.96,1.09c-3.73,7.85-7.05,15.94-11.3,23.49c-4.98,8.84-4.02,17.83-1.92,27.36
		c4.44-7.68,8.89-15.35,13.33-23.03c0.66,0.29,1.31,0.57,1.97,0.86c-8.42,19.7-23.21,37.78-16.52,62.19
		c5.84-11.25,11.33-21.83,16.83-32.41c0.63,0.34,1.27,0.67,1.91,1.01c-5.51,12.41-10.63,25.02-16.63,37.19
		c-9.35,18.96-2.66,37.52-0.1,56.37c8.2-13.28,14.28-27.41,24.08-39.23c-6.01,13.53-12.19,26.97-19.69,39.61
		c-4.84,8.17-3,14.62,1.62,21.44c5.02,7.42,12.46,10.62,20.52,12.59c5.86-12.75,11.39-24.8,16.93-36.86c0.7,0.3,1.39,0.61,2.09,0.91
		c-4.95,12.41-9.89,24.82-15.09,37.88c17.98,5.22,34.81,5.34,51.16,5.65c5.27-9.12,10.18-17.6,15.08-26.09
		c0.67,0.38,1.33,0.76,2,1.13c-4.11,7.95-8.22,15.89-13.16,25.44c15.92,1.28,30.16,2.33,44.37,3.61c4.65,0.42,6.42-2.74,8.44-5.83
		c3.88-5.93,7.77-11.86,11.66-17.8c0.77,0.47,1.53,0.93,2.29,1.4c-4.21,7.01-8.42,14.02-12.63,21.03c0.4,0.96,0.81,1.91,1.21,2.87
		c11.66,0,23.33-0.13,34.98,0.03c22.48,0.29,44.94,0.93,67.42,1.01c6.57,0.02,13.14-1.39,19.72-2.12
		c8.31-0.93,13.43-5.48,15.3-13.61C351.039,388.771,354.499,379.171,355.139,369.401z"/>
	<path style="fill:#F2F2F2;" d="M359.049,278.981c0.2,30.14-1.94,60.32-3.91,90.42c-0.64,9.77-4.1,19.37-6.32,29.04
		c-1.87,8.13-6.99,12.68-15.3,13.61c-6.58,0.73-13.15,2.14-19.72,2.12c-22.48-0.08-44.94-0.72-67.42-1.01
		c-11.65-0.16-23.32-0.03-34.98-0.03c-0.4-0.96-0.81-1.91-1.21-2.87c4.21-7.01,8.42-14.02,12.63-21.03
		c-0.76-0.47-1.52-0.93-2.29-1.4c-3.89,5.94-7.78,11.87-11.66,17.8c-2.02,3.09-3.79,6.25-8.44,5.83
		c-14.21-1.28-28.45-2.33-44.37-3.61c4.94-9.55,9.05-17.49,13.16-25.44c-0.67-0.37-1.33-0.75-2-1.13
		c-4.9,8.49-9.81,16.97-15.08,26.09c-16.35-0.31-33.18-0.43-51.16-5.65c5.2-13.06,10.14-25.47,15.09-37.88
		c-0.7-0.3-1.39-0.61-2.09-0.91c-5.54,12.06-11.07,24.11-16.93,36.86c-8.06-1.97-15.5-5.17-20.52-12.59
		c-4.62-6.82-6.46-13.27-1.62-21.44c7.5-12.64,13.68-26.08,19.69-39.61c-9.8,11.82-15.88,25.95-24.08,39.23
		c-2.56-18.85-9.25-37.41,0.1-56.37c6-12.17,11.12-24.78,16.63-37.19c-0.64-0.34-1.28-0.67-1.91-1.01
		c-5.5,10.58-10.99,21.16-16.83,32.41c-6.69-24.41,8.1-42.49,16.52-62.19c-0.66-0.29-1.31-0.57-1.97-0.86
		c-4.44,7.68-8.89,15.35-13.33,23.03c-2.1-9.53-3.06-18.52,1.92-27.36c4.25-7.55,7.57-15.64,11.3-23.49
		c-0.65-0.36-1.3-0.72-1.96-1.09c-3.83,6.19-7.66,12.37-11.88,19.18c-5.17-17.53,3.13-30.93,8.79-45.45
		c-1.27,1.77-2.57,3.52-3.81,5.32c-1.44,2.1-2.82,4.24-5.34,8.05c-1.39-9.53-2.25-17.11,1.61-24.55c3.68-7.1,7.3-14.24,10.95-21.36
		c-0.62-0.41-1.24-0.82-1.85-1.24c-3.29,4.51-6.58,9.01-10.18,13.96c-6.96-15.38,4.94-25.34,7.75-37.88
		c-2.6,3.57-5.21,7.13-7.87,10.78c-3.01-8.68-3.01-8.68,3.6-23.49c-1.23,1.14-2.45,2.28-4.36,4.05c-0.48-2.34-1.2-4.23-1.21-6.12
		c-0.15-20.28-0.4-40.56-0.21-60.84c0.21-22.06,12.6-36.62,34.38-38.44c20.88-1.75,41.91-2,62.89-2.29
		c26.54-0.36,53.13,0.85,79.61-0.42c17.74-0.85,35.27-1.13,52.85,1.08c12.03,1.5,24.11,2.78,36.04,4.92
		c15.34,2.75,21.37,10.35,22.01,26.98c0.5,12.89,0.53,25.79,0.77,38.69C356.789,147.791,358.629,213.381,359.049,278.981z
		 M342.359,340.581c3.95-4.47,1.6-9.78-4.4-9.88c-5.61-0.09-11.68,1.31-16.79,3.67c-5.78,2.67-5.08,7.07,0.98,10.27
		c1.19,0.63,2.66,0.76,3.68,1.04c3.46,18.27,1.83,24.65-8.45,34.39c-15.85-4.37-20.04-11.81-19.15-33.88
		c2.7-2.37,5.32-4.66,8.06-7.08c-7.2-5.84-14.99-6.8-21.63-2.88c-1.27,0.75-1.8,2.77-2.91,4.59c2.95,1.96,5.31,3.53,7.9,5.25
		c-0.38,4.74-0.8,8.4-0.95,12.06c-0.71,16.72,6.57,27.32,22.26,32.55c9.27,3.09,15.34,1.33,21.07-6.86
		c6.7-9.57,10.95-19.84,8.34-32.02C339.579,348.091,338.969,344.411,342.359,340.581z M311.389,200.881
		c1.77-9.21,2.26-19.12,0.94-28.38c-3.27-22.94-20.55-36.64-43.28-34.61c-17.95,1.6-34.12,8.33-47.52,20.85
		c-2.28,2.13-4.65,4.17-7.02,6.29c-12.58-16.93-46.09-30.78-68.7-25.75c-25.72,5.72-48,31.06-47.85,57.44
		c0.11,19.64,7.86,36.19,20.35,49.92c11.77,12.93,25.37,24.44,39.33,35.07c20.84,15.87,44.02,28.01,68.55,37.28
		c9.07,3.42,11,2.49,17.01-5c10.8-13.48,21.78-26.83,32.11-40.66C291.689,251.401,306.119,228.241,311.389,200.881z
		 M232.939,408.741c2.29-3.42,4.59-6.84,6.89-10.27c-0.64-0.55-1.29-1.11-1.94-1.67c-2.29,3.59-4.58,7.18-6.87,10.77
		C231.659,407.961,232.299,408.351,232.939,408.741z M195.729,404.391c3.42-6.05,6.85-12.1,10.27-18.15
		c-4.49,3.57-7.43,8.05-10.24,12.61c-0.87,1.41-1.37,3.04-2.04,4.56C194.389,403.741,195.059,404.061,195.729,404.391z
		 M141.419,401.211c4.9-9.92,9.8-19.83,14.7-29.74c-0.84-0.42-1.68-0.83-2.52-1.25c-5.1,9.84-10.21,19.69-15.31,29.53
		C139.329,400.241,140.379,400.721,141.419,401.211z M123.969,396.311c3.02-6.56,6.05-13.12,9.08-19.68
		c-0.67-0.29-1.33-0.59-1.99-0.89c-3.22,6.6-6.44,13.19-9.65,19.79C122.259,395.791,123.109,396.051,123.969,396.311z
		 M122.479,86.301c4.31-0.64,4.72-6.02,0.64-8.19c-4.04-2.16-8.74-3.06-13.69-4.69c-0.61-9.28-1.24-18.72-1.86-28.13
		c3.08-1.17,5.77-1.66,7.78-3.09c1.81-1.29,2.89-3.61,4.3-5.48c-2.03-1.23-4.03-3.45-6.08-3.5c-6.95-0.18-13.99-0.07-20.86,0.88
		c-4.04,0.56-8.81,1.67-9.92,8.73c4.96,0.71,9.72,1.4,14.67,2.12c0,10.02,0,19.73,0,28.87c-4.57,2.02-8.32,3.68-11.91,5.27
		c0.63,2.14,0.61,3.19,1.06,3.46C97.959,89.351,110.329,88.091,122.479,86.301z M89.459,375.591c3.45-6.99,6.9-13.98,10.36-20.97
		c-0.75-0.26-1.49-0.53-2.24-0.79C95.369,361.301,88.979,366.871,89.459,375.591z M73.609,342.001
		c6.92-14.29,13.83-28.58,20.74-42.87C83.099,311.231,72.749,333.351,73.609,342.001z"/>
	<path style="fill:#C1272D;" d="M337.959,330.701c6,0.1,8.35,5.41,4.4,9.88c-3.39,3.83-2.78,7.51-1.99,11.22
		c2.61,12.18-1.64,22.45-8.34,32.02c-5.73,8.19-11.8,9.95-21.07,6.86c-15.69-5.23-22.97-15.83-22.26-32.55
		c0.15-3.66,0.57-7.32,0.95-12.06c-2.59-1.72-4.95-3.29-7.9-5.25c1.11-1.82,1.64-3.84,2.91-4.59c6.64-3.92,14.43-2.96,21.63,2.88
		c-2.74,2.42-5.36,4.71-8.06,7.08c-0.89,22.07,3.3,29.51,19.15,33.88c10.28-9.74,11.91-16.12,8.45-34.39
		c-1.02-0.28-2.49-0.41-3.68-1.04c-6.06-3.2-6.76-7.6-0.98-10.27C326.279,332.011,332.349,330.611,337.959,330.701z"/>
	<path style="fill:#C1272D;" d="M312.329,172.501c1.32,9.26,0.83,19.17-0.94,28.38c-5.27,27.36-19.7,50.52-36.08,72.45
		c-10.33,13.83-21.31,27.18-32.11,40.66c-6.01,7.49-7.94,8.42-17.01,5c-24.53-9.27-47.71-21.41-68.55-37.28
		c-13.96-10.63-27.56-22.14-39.33-35.07c-12.49-13.73-20.24-30.28-20.35-49.92c-0.15-26.38,22.13-51.72,47.85-57.44
		c22.61-5.03,56.12,8.82,68.7,25.75c2.37-2.12,4.74-4.16,7.02-6.29c13.4-12.52,29.57-19.25,47.52-20.85
		C291.779,135.861,309.059,149.561,312.329,172.501z"/>
	<path d="M239.829,398.471c-2.3,3.43-4.6,6.85-6.89,10.27c-0.64-0.39-1.28-0.78-1.92-1.17c2.29-3.59,4.58-7.18,6.87-10.77
		C238.539,397.361,239.189,397.921,239.829,398.471z"/>
	<path d="M205.999,386.241c-3.42,6.05-6.85,12.1-10.27,18.15c-0.67-0.33-1.34-0.65-2.01-0.98c0.67-1.52,1.17-3.15,2.04-4.56
		C198.569,394.291,201.509,389.811,205.999,386.241z"/>
	<path d="M156.119,371.471c-4.9,9.91-9.8,19.82-14.7,29.74c-1.04-0.49-2.09-0.97-3.13-1.46c5.1-9.84,10.21-19.69,15.31-29.53
		C154.439,370.641,155.279,371.051,156.119,371.471z"/>
	<path d="M133.049,376.631c-3.03,6.56-6.06,13.12-9.08,19.68c-0.86-0.26-1.71-0.52-2.56-0.78c3.21-6.6,6.43-13.19,9.65-19.79
		C131.719,376.041,132.379,376.341,133.049,376.631z"/>
	<path style="fill:#C1272D;" d="M123.119,78.111c4.08,2.17,3.67,7.55-0.64,8.19c-12.15,1.79-24.52,3.05-35.87-3.75
		c-0.45-0.27-0.43-1.32-1.06-3.46c3.59-1.59,7.34-3.25,11.91-5.27c0-9.14,0-18.85,0-28.87c-4.95-0.72-9.71-1.41-14.67-2.12
		c1.11-7.06,5.88-8.17,9.92-8.73c6.87-0.95,13.91-1.06,20.86-0.88c2.05,0.05,4.05,2.27,6.08,3.5c-1.41,1.87-2.49,4.19-4.3,5.48
		c-2.01,1.43-4.7,1.92-7.78,3.09c0.62,9.41,1.25,18.85,1.86,28.13C114.379,75.051,119.079,75.951,123.119,78.111z"/>
	<path d="M99.819,354.621c-3.46,6.99-6.91,13.98-10.36,20.97c-0.48-8.72,5.91-14.29,8.12-21.76
		C98.329,354.091,99.069,354.361,99.819,354.621z"/>
	<path d="M94.349,299.131c-6.91,14.29-13.82,28.58-20.74,42.87C72.749,333.351,83.099,311.231,94.349,299.131z"/>
</g>
<g>
</g>
<g>
</g>
<g>
</g>
<g>
</g>
<g>
</g>
<g>
</g>
<g>
</g>
<g>
</g>
<g>
</g>
<g>
</g>
<g>
</g>
<g>
</g>
<g>
</g>
<g>
</g>
<g>
</g>
</svg>
