<?xml version="1.0" encoding="iso-8859-1"?>
<!-- Generator: Adobe Illustrator 18.0.0, SVG Export Plug-In . SVG Version: 6.00 Build 0)  -->
<!DOCTYPE svg PUBLIC "-//W3C//DTD SVG 1.1//EN" "http://www.w3.org/Graphics/SVG/1.1/DTD/svg11.dtd">
<svg version="1.1" id="Capa_1" xmlns="http://www.w3.org/2000/svg" xmlns:xlink="http://www.w3.org/1999/xlink" x="0px" y="0px"
	 viewBox="0 0 426.481 426.481" style="enable-background:new 0 0 426.481 426.481;" xml:space="preserve">
<g>
	<path d="M409.46,57.84c17.6-0.65,18.99,1.07,15.46,18.41c-2.45,12.03-5.05,24.05-8.34,35.87c-1.81,6.53-4.93,12.75-7.93,18.88
		c-7.79,15.96-34.87,22.18-47.57,0.2c-3.59,3-6.59,5.5-10.01,8.36c2.69,3.82,5.12,7.31,7.59,10.78c8.7,12.2,14.61,25.69,18.58,40.09
		c2.36,8.54,2.39,8.53-2.88,17.78c10.83,20.41,11.5,42.98,12.3,65.91c1.08,30.78-2.14,60.52-13.32,89.3
		c-5.6,14.4-13.07,27.41-25.86,36.68c-14.33,10.39-30.25,11.64-46.22,5.85c-5.05-1.83-9.64-7.76-12.16-12.93
		c-2.74-5.63-6.15-8.46-11.93-9.33c-2.13-0.33-4.22-0.93-6.34-1.39c-27.84-6.12-55.78-11.82-83.49-18.48
		c-22.93-5.51-46.15-8.53-69.54-10.77c-4.6-0.44-8.45,0.56-11.99,3.61c-13.39,11.52-30.26,18.39-42.28,31.84
		c-3.15,3.53-7.8,1.9-9.02-2.7c-0.63-2.39-0.53-5.03-0.41-7.55c0.63-13.34,1.36-26.67,1.96-38.2c-4.58-6.06-8.34-11.03-13.61-18
		c-13.46-4.14-29.54-9.19-42.45-20.3c1.87-7.21,7.31-10,12.05-13c11.29-7.16,22.84-13.91,34.44-20.56
		c4.87-2.79,6.86-6.57,7.63-12.12c3.57-25.72,7.29-51.43,11.55-77.05c4.96-29.9,10.5-59.72,15.9-89.55c0.65-3.6,0.18-6.55-2.96-8.53
		c-10.87-6.82-12.34-17.98-13.72-29.23c-1.2-9.8,2.68-17.24,11.36-21.38c7.44-3.55,15.29-6.7,23.29-8.56
		c35.36-8.24,70.24-4.95,104.9,4.87c24.01,6.81,45.74,17.67,65.2,33.26c1.7,1.36,4.44,2.42,6.5,2.15
		c7.91-1.07,13.97,2.22,19.84,6.87c17.05,13.49,29.7,30.39,39.41,50.84c4.5-3.39,8.74-6.58,13.93-10.5
		c-14.06-7.45-19.01-19.69-20.97-33.69c-1.2-8.6,1.26-13.75,8.74-17.98c10.39-5.88,21.54-5.75,32.62-3.21
		C382.85,57.39,396.02,58.33,409.46,57.84z M399.58,128.31c11.69-17.88,10.91-39.18,17.21-58.17c-18.36-3.53-34.86-7.06-51.51-9.72
		c-5.92-0.95-12.3-0.49-18.25,0.58c-9.45,1.7-12.72,5.74-11.15,15.02c1.16,6.91,4.07,13.71,7.28,20c1.38,2.71,5.37,5.47,8.37,5.7
		c6.71,0.52,9.38,4.54,11.46,9.78c1.99,5.01,4.74,9.9,5.63,15.1c1.15,6.64,5.34,8.95,10.83,10.4
		C387.53,139.13,394.53,136.04,399.58,128.31z M372.8,335.36c6.82-29.57,5.27-59.7,4.59-89.66c-0.24-10.64-3.35-21.19-8.7-31.95
		c-6.23,3.92-11.81,7.43-17.88,11.24c2.05,3.04,3.55,5.25,5.08,7.51c2.15-1.6,3.64-2.71,5.13-3.82c-3.68,6.86-4.38,13.42-1.83,20.43
		c1.5-0.08,2.82-0.15,6.42-0.34c-8.42,6.25-6.07,13.98-5.11,20.75c3.49,24.45-0.05,48.23-4.9,72.06
		c-3.67,17.99-14.26,31.37-27.42,43.1c-5.08,4.54-10.67,4.37-14.68,0.6c-5.88-5.54-5.38-19.78,1.31-24.36
		c2.49-1.7,6.08-1.79,11.04-3.13c-3.28,8.07-13.75,12.27-4.97,21.7c5.72-6.32,10.91-12.07,16.04-17.74
		c-2.22-3.34-3.75-5.76-5.41-8.09c-5.39-7.58-12.3-9.09-20.67-4.57c-14.56,7.86-20.42,21.48-15.99,37.21
		c2.75,9.78,7.48,13.75,17.65,14.72c18.31,1.75,32.33-5.5,42.49-20.53C364.25,366.78,369.14,351.23,372.8,335.36z M363.96,202.18
		c1.93-1.54,2.88-5.96,2.35-8.67c-3.58-18.18-11.99-34.27-22.25-50.03c-9.9,6.2-19.23,12.05-29.24,18.32
		c2.23,2.43,3.48,3.79,4.99,5.44c2.51-3.13,4.39-5.47,6.26-7.81c-0.05,3.52-1.41,6.28-2.63,9.1c-2.18,5.01-1.36,9.1,3.85,11.72
		l0.07,0.06c0.69,3.4-4.29,7.28,0.9,10.3c2.09-1.36,4.18-2.72,6.27-4.08c-1.24,3.89-3.37,6.71-4.96,9.81
		c-2.68,5.21-3.65,10.53,0.54,15.56c1.48,6.11,5.51,9.01,10.82,6.09C349.07,213.52,356.7,207.99,363.96,202.18z M353.46,130.4
		c8.51-6.49,8.57-7.03,2.24-17.36c-9.48,7.16-18.64,14.75-28.45,21.39c-67.94,46-136.16,91.6-203.98,137.79
		c-22.39,15.25-43.87,31.85-65.76,47.84c-0.87,0.64-2.18,1.2-2.44,2.06c-0.58,1.89-1.45,4.44-0.65,5.8c0.77,1.3,3.75,2.32,5.33,1.89
		c2.69-0.73,5.05-2.68,7.53-4.14c12.76-7.52,25.19-15.69,38.37-22.39c13.08-6.65,24.44-14.71,32.01-28.14
		c0.38,1.57,0.62,2.58,1.22,5.07c3.47-2.26,6.52-4.14,9.46-6.17c20.21-13.99,40.42-27.98,60.58-42.03
		c19.87-13.85,40.14-27.19,59.42-41.82c25.35-19.24,50.16-39.17,78.02-54.81C348.87,133.97,351.16,132.15,353.46,130.4z
		 M342.81,350.74c12.86-41.32,12.09-82.25,3.68-123.84c-2.83,0.47-4.24,0.83-5.66,0.92c-14.44,0.97-21.48-5.28-22.56-19.85
		c-0.38-5.04-0.2-10.29-1.63-15.04c-2.43-8.07-1.54-17.29-8.81-25.24c-9.31,6.84-17.94,13.34-26.75,19.59
		c-36.55,25.97-73.15,51.87-109.74,77.78c-16.16,11.43-33.48,21.35-46.77,35.93c1.06,8.58,2.24,16.77,3.02,25
		c0.73,7.65,1.24,15.41-8.74,20.64c5.57,0.97,8.99,2.03,12.42,2.09c33.97,0.64,66.06,11.66,99.02,17.86
		c17.63,3.32,35.17,7.16,53.21,10.86c1.51-15.35,9.5-25.65,20.89-33.55c7.87-5.46,16.77-7.4,25.68-3.31
		C334.44,342.59,337.85,346.68,342.81,350.74z M330.37,123.87c-2.59-3.91-4.51-6.93-6.56-9.87c-9.76-13.94-19.9-27.57-33.19-38.44
		c-8.03-6.57-11.62-9.2-20.38-0.5c-1.53,1.51-3.47,2.6-5.12,4.01c-5.3,4.55-13.59,7.49-12.84,15.99
		c0.87,9.75,10.14,11.09,17.34,14.07c0.56,0.24,1.38-0.15,2.51-0.31c2.44-3.7,5.04-7.62,7.63-11.55c0.4,0.26,0.8,0.51,1.2,0.76
		c-2.06,4.39-4.12,8.77-6.35,13.51c2.9,1.87,5.17,3.33,7.52,4.84c2.43-4.07,4.5-7.51,6.56-10.96c-3.72,14.56-3.72,14.56,1.41,17.95
		c1.45-2.92,2.73-5.92,4.39-8.7c1.41-2.37,3.25-4.48,4.9-6.7c0.39,0.27,0.78,0.54,1.17,0.81c-3.02,6.42-6.04,12.84-9.1,19.35
		c3.24,5.34,6.33,10.42,9.9,16.28C311.66,137.11,320.74,130.68,330.37,123.87z M292.95,149.81c-2.01-2.82-3.63-4.43-4.47-6.37
		c-6.77-15.67-17.32-27.2-33.82-33.05c-6.37-2.26-8.87-8.32-9.95-14.55c-0.59-3.45-0.1-7.09-0.1-12.44
		c-8.94-4.3-18.37-9.63-28.37-13.48c-21.52-8.28-42.67-17.92-65.86-21.01c-4.07-0.54-8.2-0.66-13.03-1.03
		c2.33,14.78-1.32,26.11-12.9,33.57c-10.82,6.96-22.95,7.83-35,4.64C84.18,98.07,62.42,232,61.51,257.31
		c10.94-6.41,10.86-6.33,19.77,1.68c6.96,6.27,14.15,12.28,21.6,18.72c14.7-8.86,29.96-17.16,44.26-26.86
		c39.78-26.98,79.16-54.53,118.68-81.89C274.93,162.65,283.94,156.18,292.95,149.81z M251.55,79.92c5.84-4.6,11.19-8.82,17.3-13.64
		c-15.83-9.8-30.24-20.03-46.97-26.14c-30.24-11.05-61.39-16.58-93.63-14.09c-10.39,0.8-20.81,2.34-30.99,4.61
		c-6.22,1.38-12.35,4.18-17.88,7.43c-6.31,3.7-7,7.58-4.62,14.97c1.11-1.27,2.22-2.53,3.33-3.8c0.28,0.25,0.56,0.5,0.84,0.74
		c-1.66,4.18-3.32,8.36-5.37,13.53c2.62-0.66,3.93-0.99,5.34-1.34c-0.44,2.62-1.72,5.5-1.15,7.96c0.73,3.14,3.61,4.18,6.87,2.75
		c0.19-0.08,0.69,0.07,0.73,0.21c3.22,9.62,11.93,6.99,18.24,6.99c18.64,0,27.95-13.68,22.02-32.77
		c-5.36,1.11-11.09,1.71-16.31,3.64c-2.44,0.91-3.92,4.42-5.83,6.75c2.13,1.6,4.22,3.24,6.4,4.78c0.84,0.6,1.85,0.96,3.99,2.04
		c-8.8,4.21-14.29,2.87-18.22-3.6c-3.29-5.4-2.46-10.85,3.79-14.92c4.71-3.06,10.35-5.71,15.84-6.35
		c9.62-1.13,19.55-1.62,29.16-0.56c32.78,3.63,62.69,16.44,92.09,30.52c3.21,1.54,5.93,4.1,8.9,6.16
		C247.4,77.16,249.42,78.49,251.55,79.92z M104.15,345.24c6.28-3.93,15.09-4.93,14.83-14.12c-0.24-8.2-1.43-16.37-2.31-25.67
		c-4.44,2.14-7.62,3.67-10.8,5.2C105.28,322.52,104.71,333.88,104.15,345.24z M98.38,333.53c0.49-5.93,0.9-11.86,1.37-18.27
		c-17.35,5.91-17.95,6.75-18.31,22.58c-0.07,3.22-0.8,6.42-0.9,9.64c-0.16,4.86-0.04,9.73-0.04,15.84
		c9.95-5.33,19.38-9.12,17.1-22.31C97.19,338.64,98.18,336.04,98.38,333.53z M89.84,286.83c1.98-1.62,4.27-3.49,7.01-5.73
		c-8.63-6.93-16.47-13.23-25.25-20.29c-5.5,3.9-10.67,7.56-16.78,11.89C67.11,277.66,78.1,282.09,89.84,286.83z M69.48,302.85
		c4.04-3.21,8.74-6.93,14.77-11.71c-12.53-5.59-23.53-10.49-35.01-15.61c-6.85,4.02-13.86,8.13-22.45,13.16
		C41.95,293.72,55.35,298.16,69.48,302.85z M74.58,364.58c0.99-11.22,0.36-22.58,0.36-35.63c-4.99,3.04-8.79,5.36-12.26,7.48
		c0.66,12.91,1.28,24.99,1.9,37.08c0.81,0.44,1.63,0.88,2.45,1.32C69.67,371.43,74.26,368.19,74.58,364.58z M51.35,316.81
		c4.21-3.24,7.87-6.07,13.23-10.21c-15.61-5.34-29.66-10.14-43.63-14.92c-3.69,2.81-6.75,5.15-12.31,9.39
		C24.66,306.97,38.06,311.91,51.35,316.81z"/>
	<path style="fill:#C1272D;" d="M416.79,70.14c-6.3,18.99-5.52,40.29-17.21,58.17c-5.05,7.73-12.05,10.82-20.13,8.69
		c-5.49-1.45-9.68-3.76-10.83-10.4c-0.89-5.2-3.64-10.09-5.63-15.1c-2.08-5.24-4.75-9.26-11.46-9.78c-3-0.23-6.99-2.99-8.37-5.7
		c-3.21-6.29-6.12-13.09-7.28-20c-1.57-9.28,1.7-13.32,11.15-15.02c5.95-1.07,12.33-1.53,18.25-0.58
		C381.93,63.08,398.43,66.61,416.79,70.14z"/>
	<path style="fill:#8C6239;" d="M377.39,245.7c0.68,29.96,2.23,60.09-4.59,89.66c-3.66,15.87-8.55,31.42-17.81,45.13
		c-10.16,15.03-24.18,22.28-42.49,20.53c-10.17-0.97-14.9-4.94-17.65-14.72c-4.43-15.73,1.43-29.35,15.99-37.21
		c8.37-4.52,15.28-3.01,20.67,4.57c1.66,2.33,3.19,4.75,5.41,8.09c-5.13,5.67-10.32,11.42-16.04,17.74
		c-8.78-9.43,1.69-13.63,4.97-21.7c-4.96,1.34-8.55,1.43-11.04,3.13c-6.69,4.58-7.19,18.82-1.31,24.36c4.01,3.77,9.6,3.94,14.68-0.6
		c13.16-11.73,23.75-25.11,27.42-43.1c4.85-23.83,8.39-47.61,4.9-72.06c-0.96-6.77-3.31-14.5,5.11-20.75
		c-3.6,0.19-4.92,0.26-6.42,0.34c-2.55-7.01-1.85-13.57,1.83-20.43c-1.49,1.11-2.98,2.22-5.13,3.82c-1.53-2.26-3.03-4.47-5.08-7.51
		c6.07-3.81,11.65-7.32,17.88-11.24C374.04,224.51,377.15,235.06,377.39,245.7z"/>
	<path style="fill:#603813;" d="M366.31,193.51c0.53,2.71-0.42,7.13-2.35,8.67c-7.26,5.81-14.89,11.34-23.03,15.81
		c-5.31,2.92-9.34,0.02-10.82-6.09c0.01,0.02,0.03,0.03,0.04,0.05c0.01,0.01,0.01,0.01,0.01,0.01c0.04-0.2,0.08-0.39,0.12-0.57
		c3.52-3.68,6.8-7.5,7.68-13.84c-5.96,6.34-6.11,6.5-7.68,13.84c-0.08,0.09-0.17,0.17-0.25,0.26c0.01,0.01,0.02,0.04,0.03,0.07
		c0.01,0.01,0.01,0.03,0.02,0.04v0.01c0.01,0.05,0.02,0.09,0.03,0.13c-4.19-5.03-3.22-10.35-0.54-15.56
		c1.59-3.1,3.72-5.92,4.96-9.81c-2.09,1.36-4.18,2.72-6.27,4.08c-5.19-3.02-0.21-6.9-0.9-10.3c2.03-2.13,4.05-4.27,6.08-6.4
		c-0.68-0.46-1.36-0.92-2.04-1.38c-1.37,2.57-2.74,5.15-4.11,7.72c-5.21-2.62-6.03-6.71-3.85-11.72c1.22-2.82,2.58-5.58,2.63-9.1
		c-1.87,2.34-3.75,4.68-6.26,7.81c-1.51-1.65-2.76-3.01-4.99-5.44c10.01-6.27,19.34-12.12,29.24-18.32
		C354.32,159.24,362.73,175.33,366.31,193.51z"/>
	<path style="fill:#C69C6D;" d="M355.7,113.04c6.33,10.33,6.27,10.87-2.24,17.36c-2.3,1.75-4.59,3.57-7.1,4.98
		c-27.86,15.64-52.67,35.57-78.02,54.81c-19.28,14.63-39.55,27.97-59.42,41.82c-20.16,14.05-40.37,28.04-60.58,42.03
		c-2.94,2.03-5.99,3.91-9.46,6.17c-0.6-2.49-0.84-3.5-1.22-5.07c-7.57,13.43-18.93,21.49-32.01,28.14
		c-13.18,6.7-25.61,14.87-38.37,22.39c-2.48,1.46-4.84,3.41-7.53,4.14c-1.58,0.43-4.56-0.59-5.33-1.89c-0.8-1.36,0.07-3.91,0.65-5.8
		c0.26-0.86,1.57-1.42,2.44-2.06c21.89-15.99,43.37-32.59,65.76-47.84c67.82-46.19,136.04-91.79,203.98-137.79
		C337.06,127.79,346.22,120.2,355.7,113.04z"/>
	<path d="M337.96,197.55c-0.88,6.34-4.16,10.16-7.68,13.84C331.85,204.05,332,203.89,337.96,197.55z"/>
	<path d="M333.44,173.91c-2.03,2.13-4.05,4.27-6.08,6.4l-0.07-0.06c1.37-2.57,2.74-5.15,4.11-7.72
		C332.08,172.99,332.76,173.45,333.44,173.91z"/>
	<path d="M330.28,211.39c-0.04,0.18-0.08,0.37-0.12,0.57c0,0,0,0-0.01-0.01c-0.01-0.03-0.04-0.11-0.07-0.18v-0.01l-0.02-0.06
		c0,0.01,0,0.01,0,0.02c-0.01-0.03-0.02-0.06-0.03-0.07C330.11,211.56,330.2,211.48,330.28,211.39z"/>
	<path d="M330.08,211.77c0.03,0.07,0.06,0.15,0.07,0.18c-0.01-0.02-0.03-0.03-0.04-0.05C330.1,211.86,330.09,211.82,330.08,211.77z"
		/>
	<path d="M330.06,211.7l0.02,0.06c-0.01-0.01-0.01-0.03-0.02-0.04C330.06,211.71,330.06,211.71,330.06,211.7z"/>
	<path style="fill:#603813;" d="M323.81,114c2.05,2.94,3.97,5.96,6.56,9.87c-9.63,6.81-18.71,13.24-29.01,20.54
		c-3.57-5.86-6.66-10.94-9.9-16.28c3.06-6.51,6.08-12.93,9.1-19.35c-0.39-0.27-0.78-0.54-1.17-0.81c-1.65,2.22-3.49,4.33-4.9,6.7
		c-1.66,2.78-2.94,5.78-4.39,8.7c-5.13-3.39-5.13-3.39-1.41-17.95c-2.06,3.45-4.13,6.89-6.56,10.96c-2.35-1.51-4.62-2.97-7.52-4.84
		c2.23-4.74,4.29-9.12,6.35-13.51c-0.4-0.25-0.8-0.5-1.2-0.76c-2.59,3.93-5.19,7.85-7.63,11.55c-1.13,0.16-1.95,0.55-2.51,0.31
		c-7.2-2.98-16.47-4.32-17.34-14.07c-0.75-8.5,7.54-11.44,12.84-15.99c1.65-1.41,3.59-2.5,5.12-4.01c8.76-8.7,12.35-6.07,20.38,0.5
		C303.91,86.43,314.05,100.06,323.81,114z"/>
	<path style="fill:#8C6239;" d="M268.85,66.28c-6.11,4.82-11.46,9.04-17.3,13.64c-2.13-1.43-4.15-2.76-6.13-4.13
		c-2.97-2.06-5.69-4.62-8.9-6.16c-29.4-14.08-59.31-26.89-92.09-30.52c-9.61-1.06-19.54-0.57-29.16,0.56
		c-5.49,0.64-11.13,3.29-15.84,6.35c-6.25,4.07-7.08,9.52-3.79,14.92c3.93,6.47,9.42,7.81,18.22,3.6c-2.14-1.08-3.15-1.44-3.99-2.04
		c-2.18-1.54-4.27-3.18-6.4-4.78c1.91-2.33,3.39-5.84,5.83-6.75c5.22-1.93,10.95-2.53,16.31-3.64c5.93,19.09-3.38,32.77-22.02,32.77
		c-6.31,0-15.02,2.63-18.24-6.99c-0.04-0.14-0.54-0.29-0.73-0.21c-3.26,1.43-6.14,0.39-6.87-2.75c-0.57-2.46,0.71-5.34,1.15-7.96
		c-1.41,0.35-2.72,0.68-5.34,1.34c2.05-5.17,3.71-9.35,5.37-13.53c-0.28-0.24-0.56-0.49-0.84-0.74c-1.11,1.27-2.22,2.53-3.33,3.8
		c-2.38-7.39-1.69-11.27,4.62-14.97c5.53-3.25,11.66-6.05,17.88-7.43c10.18-2.27,20.6-3.81,30.99-4.61
		c32.24-2.49,63.39,3.04,93.63,14.09C238.61,46.25,253.02,56.48,268.85,66.28z"/>
	<path style="fill:#BD3D6B;" d="M118.98,331.12c0.26,9.19-8.55,10.19-14.83,14.12c0.56-11.36,1.13-22.72,1.72-34.59
		c3.18-1.53,6.36-3.06,10.8-5.2C117.55,314.75,118.74,322.92,118.98,331.12z"/>
	<path style="fill:#BD3D6B;" d="M99.75,315.26c-0.47,6.41-0.88,12.34-1.37,18.27c-0.2,2.51-1.19,5.11-0.78,7.48
		c2.28,13.19-7.15,16.98-17.1,22.31c0-6.11-0.12-10.98,0.04-15.84c0.1-3.22,0.83-6.42,0.9-9.64
		C81.8,322.01,82.4,321.17,99.75,315.26z"/>
	<path style="fill:#BD3D6B;" d="M96.85,281.1c-2.74,2.24-5.03,4.11-7.01,5.73c-11.74-4.74-22.73-9.17-35.02-14.13
		c6.11-4.33,11.28-7.99,16.78-11.89C80.38,267.87,88.22,274.17,96.85,281.1z"/>
	<path style="fill:#BD3D6B;" d="M84.25,291.14c-6.03,4.78-10.73,8.5-14.77,11.71c-14.13-4.69-27.53-9.13-42.69-14.16
		c8.59-5.03,15.6-9.14,22.45-13.16C60.72,280.65,71.72,285.55,84.25,291.14z"/>
	<path style="fill:#BD3D6B;" d="M74.94,328.95c0,13.05,0.63,24.41-0.36,35.63c-0.32,3.61-4.91,6.85-7.55,10.25
		c-0.82-0.44-1.64-0.88-2.45-1.32c-0.62-12.09-1.24-24.17-1.9-37.08C66.15,334.31,69.95,331.99,74.94,328.95z"/>
	<path style="fill:#BD3D6B;" d="M64.58,306.6c-5.36,4.14-9.02,6.97-13.23,10.21c-13.29-4.9-26.69-9.84-42.71-15.74
		c5.56-4.24,8.62-6.58,12.31-9.39C34.92,296.46,48.97,301.26,64.58,306.6z"/>
</g>
<g>
</g>
<g>
</g>
<g>
</g>
<g>
</g>
<g>
</g>
<g>
</g>
<g>
</g>
<g>
</g>
<g>
</g>
<g>
</g>
<g>
</g>
<g>
</g>
<g>
</g>
<g>
</g>
<g>
</g>
</svg>
