<?xml version="1.0" encoding="iso-8859-1"?>
<!-- Generator: Adobe Illustrator 18.0.0, SVG Export Plug-In . SVG Version: 6.00 Build 0)  -->
<!DOCTYPE svg PUBLIC "-//W3C//DTD SVG 1.1//EN" "http://www.w3.org/Graphics/SVG/1.1/DTD/svg11.dtd">
<svg version="1.1" id="Capa_1" xmlns="http://www.w3.org/2000/svg" xmlns:xlink="http://www.w3.org/1999/xlink" x="0px" y="0px"
	 viewBox="0 0 447.404 447.404" style="enable-background:new 0 0 447.404 447.404;" xml:space="preserve">
<g>
	<path d="M446.133,221.47c4.26,12.28-2.55,19.54-15.03,16.02c-17.01-4.81-33.66-10.85-50.54-16.11c-8.9-2.77-17.96-5.01-26.66-7.4
		c-4.58,3.63-9.05,7.16-14.39,11.39c-0.57,4.92-1.7,10.95-1.9,17.01c-0.82,25.03-12.05,45.89-26.54,65.19
		c-4.2,5.6-10.5,9.94-16.5,13.84c-27.29,17.75-57.28,25.17-89.77,22.58c-14.48-1.16-28.76-3.14-42.14-9.15
		c-7.89-3.55-16.03-6.83-23.33-11.39c-6.98-4.38-13.02-10.26-19.9-15.82c-4.66,1.14-9.83,2.42-14.91,3.67
		c-7.3,16.26-6.56,33.98-10.41,50.75c-2.33,10.17-5.7,20.12-8.77,30.12c-0.73,2.39-1.62,5.09-3.32,6.74
		c-2.11,2.06-5.32,4.62-7.71,4.31c-2.36-0.31-5.91-3.8-6.11-6.13c-0.79-9.26-6.15-14.19-13.9-17.7
		c-8.89-4.02-12.84-11.23-12.82-20.82c0.01-3.25-0.23-6.52,0-9.76c0.67-9.58-2.27-17.86-8.81-24.78c-7.65-8.1-9.21-17.69-7.43-28.2
		c0.54-3.21,1.18-6.41,1.7-9.62c1.61-10-0.64-18.67-8.78-25.3c-0.84-0.68-1.54-1.53-2.29-2.31c-17.05-17.9-18.97-25.52-12.32-48.87
		c1.64-5.77,4.72-7.81,10.44-6.51c2.07,0.47,4.14,1.41,5.94,2.55c22.26,14.13,44.47,28.34,66.72,42.55
		c5.56-1.88,6.89-5.92,7.08-11.68c0.58-18.64,5.48-36.39,13.33-53.25c14.48-31.1,41.5-44.99,73.09-51.98
		c11.88-2.63,23.86-4.71,35.75-7.46c18.19-4.21,37.27-5.13,55.27,3.24c3.92,1.82,8.06,3.19,12.01,4.95
		c14.76,6.58,27.92,15.25,37.55,29.59c2.84-0.43,5.93-0.9,8.93-1.36c0.53-1.5,1.04-2.46,1.21-3.47
		c5.61-34.54,11.18-69.09,16.78-103.63c1.52-9.43,2.41-10.02,12.04-8.43c3.56,0.58,7.15,1.01,10.7,1.67
		c11.93,2.19,17.83,8.42,18.59,20.41c0.41,6.48,0.08,13.01-0.14,19.51c-0.29,8.48,1.2,16.56,4.95,24.18
		c8.69,17.7,13.4,36.64,16.53,55.91c1.33,8.24,5,13.74,11.5,18.56C434.173,194.22,441.253,207.38,446.133,221.47z M435.183,227.81
		c-0.35-3.01-0.03-5.37-0.93-7.09c-5.65-10.89-10.68-22.32-21.21-29.69c-7.91-5.54-11.48-13.11-13.45-22.52
		c-3.32-15.87-6.84-31.9-12.49-47.04c-5.41-14.5-8.88-28.73-8.37-44.27c0.6-18.46-1.15-20.01-19.1-23.75
		c-0.64-0.13-1.37,0.18-2.7,0.39c-0.6,2.51-1.5,5.24-1.89,8.04c-2.49,17.89-4.53,35.84-7.41,53.66c-2.52,15.61-1.1,31.88-7.8,46.79
		c-1.86,4.16,1.13,5.71,4.41,7.46c5.83-10.79,11.56-21.41,17.3-32.04c1.33,3.11,1.06,5.52,0.2,7.7
		c-3.46,8.74-6.95,17.47-10.73,26.07c-2.42,5.53-2.57,10.23,2.84,13.87c16.12-4.92,16.12-4.92,23.95-2.53
		c-6.75,6.24-15.64,6.67-22.61,11.39c0.46,2.72,0.92,5.46,1.4,8.35c13.24,4.48,26.05,9.2,39.1,13.12
		C408.593,219.59,420.583,226.72,435.183,227.81z M338.473,210.64c7.22-10.45,7.14-19.07-0.6-32.18
		c-2.61-4.43-4.68-10.31-11.42-9.44C330.523,183.12,334.413,196.56,338.473,210.64z M306.803,290.86
		c22.31-35.21,22.57-72.17,8.71-110.14c-4.71-12.92-12.73-23.83-24.98-30.37c-11.43-6.09-23.16-12.32-35.52-15.69
		c-9.81-2.67-21.07-2.69-31.12-0.84c-6.16,1.13-12.25,3.08-18.68,3.1c-24.82,0.08-46.3,9.89-66.49,23.15
		c-3.52,2.32-6.58,5.73-9.06,9.2c-22.91,32.01-29.62,66.84-17.27,104.65c4.53,13.88,19.6,30.83,31.76,36.52
		c3.06-9.53,6.1-19.03,9.15-28.53c0.34,0.08,0.68,0.16,1.02,0.24c-2.49,10.67-4.98,21.33-7.53,32.25
		c5.81,2.84,10.63,5.19,15.44,7.55c0,0,0-0.02,0.01-0.02c14.89,5.14,29.64,10.99,45.62,8.78c1.36-6.4,2.41-12.05,3.81-17.61
		c1.26-5.02,2.92-9.95,4.4-14.92c0.7,0.19,1.39,0.39,2.09,0.58c-2.23,10.51-4.46,21.02-6.82,32.11c15.98,0.88,31.27,0.71,45.21-5.56
		c3.65-13.05,7.1-25.38,10.56-37.71c0.88,0.22,1.76,0.45,2.64,0.68c-2.4,11.09-4.81,22.17-7.26,33.48
		C278.743,318.68,297.803,305.07,306.803,290.86z M94.373,288.77c2.64,8.43,5.43,9.81,14.58,9.24c-5.55-14.9-10.9-29.27-16.26-43.64
		c-2.3,4.55-3.78,9.17-3.23,13.54C90.363,274.96,92.233,281.96,94.373,288.77z M91.943,315.38c1.25-6.91,0.79-14.14-4.04-20.2
		c-7.22,3.37-11.44,11.19-20.66,12.06c3.65-11.53,14.29-16.18,19.97-25.22c-8-9.34-21.35-8.31-31.53-17.1
		c10.8-2.18,18.45,2.11,26.84,4.88c0-5.11,0-9.71,0-13.99c-22.72-13.87-45.39-27.7-68.15-41.59c-6.77,14.52-4.96,26.62,6.98,36.7
		c1.93,1.63,3.58,3.59,5.49,5.25c9.42,8.14,12.1,18.43,9.88,30.36c-0.73,3.91-1.18,7.86-1.99,11.75c-1.7,8.17,0.38,14.64,7.01,20.2
		c7.19,6.03,11.05,14.12,11.33,23.75c0.13,4.68,1.15,9.39,0.89,14.03c-0.45,7.88,2.54,12.83,9.89,16.01
		c4.52,1.96,8.35,5.5,13.53,9.04c1.15-3.33,2.36-5.93,2.93-8.67C84.313,353.57,88.473,334.54,91.943,315.38z"/>
	<path style="fill:#FBB03B;" d="M434.253,220.72c0.9,1.72,0.58,4.08,0.93,7.09c-14.6-1.09-26.59-8.22-39.49-12.09
		c-13.05-3.92-25.86-8.64-39.1-13.12c-0.48-2.89-0.94-5.63-1.4-8.35c6.97-4.72,15.86-5.15,22.61-11.39
		c-7.83-2.39-7.83-2.39-23.95,2.53c-5.41-3.64-5.26-8.34-2.84-13.87c3.78-8.6,7.27-17.33,10.73-26.07c0.86-2.18,1.13-4.59-0.2-7.7
		c-5.74,10.63-11.47,21.25-17.3,32.04c-3.28-1.75-6.27-3.3-4.41-7.46c6.7-14.91,5.28-31.18,7.8-46.79
		c2.88-17.82,4.92-35.77,7.41-53.66c0.39-2.8,1.29-5.53,1.89-8.04c1.33-0.21,2.06-0.52,2.7-0.39c17.95,3.74,19.7,5.29,19.1,23.75
		c-0.51,15.54,2.96,29.77,8.37,44.27c5.65,15.14,9.17,31.17,12.49,47.04c1.97,9.41,5.54,16.98,13.45,22.52
		C423.573,198.4,428.603,209.83,434.253,220.72z"/>
	<path style="fill:#C1272D;" d="M337.873,178.46c7.74,13.11,7.82,21.73,0.6,32.18c-4.06-14.08-7.95-27.52-12.02-41.62
		C333.193,168.15,335.263,174.03,337.873,178.46z"/>
	<path style="fill:#FBB03B;" d="M315.513,180.72c13.86,37.97,13.6,74.93-8.71,110.14c-9,14.21-28.06,27.82-44.31,30.9
		c2.45-11.31,4.86-22.39,7.26-33.48c-0.88-0.23-1.76-0.46-2.64-0.68c-3.46,12.33-6.91,24.66-10.56,37.71
		c-13.94,6.27-29.23,6.44-45.21,5.56c2.36-11.09,4.59-21.6,6.82-32.11c-0.7-0.19-1.39-0.39-2.09-0.58c-1.48,4.97-3.14,9.9-4.4,14.92
		c-1.4,5.56-2.45,11.21-3.81,17.61c-15.98,2.21-30.73-3.64-45.62-8.78c2.34-9.98,4.68-19.97,7.01-29.95
		c-6.1,9.16-10.02,18.8-7.02,29.95c0,0.01,0,0.01,0,0.02c-4.81-2.36-9.63-4.71-15.44-7.55c2.55-10.92,5.04-21.58,7.53-32.25
		c-0.34-0.08-0.68-0.16-1.02-0.24c-3.05,9.5-6.09,19-9.15,28.53c-12.16-5.69-27.23-22.64-31.76-36.52
		c-12.35-37.81-5.64-72.64,17.27-104.65c2.48-3.47,5.54-6.88,9.06-9.2c20.19-13.26,41.67-23.07,66.49-23.15
		c6.43-0.02,12.52-1.97,18.68-3.1c10.05-1.85,21.31-1.83,31.12,0.84c12.36,3.37,24.09,9.6,35.52,15.69
		C302.783,156.89,310.803,167.8,315.513,180.72z M272.763,313.19c9.65-10.69,13.36-26.84,9.23-31.81
		C279.003,291.69,275.883,302.44,272.763,313.19z M279.483,214.63c1.35-5.77,1.93-12.64,0.08-18.05
		c-6.41-18.81-18.42-27.87-38.02-19.82c-10.73,4.4-19.77,10.45-23.7,22.6c-16.43-2.51-25.31-2.93-35.28,1
		c-8.26,3.26-16.87,7.11-23.44,12.86c-17.16,15.03-14.51,40.36,5.75,50.74c26.28,13.46,54.73,14.03,83.36,9.49
		c2.43-0.38,5.1-2.82,6.58-5.03C265.953,251.85,274.923,234.14,279.483,214.63z M243.623,325.11c6.78-10.12,11.14-26.72,9.61-36.51
		C249.783,301.05,244.503,311.57,243.623,325.11z M228.603,328.27c3.52-11.32,8.27-22.32,7.02-34.91
		c-3.37,11.35-6.74,22.7-10.11,34.06C226.543,327.7,227.573,327.98,228.603,328.27z M193.853,324.69c2.2-9.09,4.41-18.19,6.61-27.28
		c-0.84-0.28-1.68-0.55-2.52-0.82c-2.33,9.13-4.66,18.25-6.99,27.37C191.923,324.21,192.893,324.45,193.853,324.69z M186.673,290.34
		c-0.44-0.17-0.88-0.33-1.33-0.49c-1.65,3.76-3.44,7.46-4.92,11.29c-1.43,3.68-3.17,7.41-3.59,11.24
		c-0.38,3.54-3.63,7.71,0.48,11.66C180.583,312.26,183.633,301.3,186.673,290.34z"/>
	<path d="M281.993,281.38c4.13,4.97,0.42,21.12-9.23,31.81C275.883,302.44,279.003,291.69,281.993,281.38z"/>
	<path style="fill:#C1272D;" d="M279.563,196.58c1.85,5.41,1.27,12.28-0.08,18.05c-4.56,19.51-13.53,37.22-24.67,53.79
		c-1.48,2.21-4.15,4.65-6.58,5.03c-28.63,4.54-57.08,3.97-83.36-9.49c-20.26-10.38-22.91-35.71-5.75-50.74
		c6.57-5.75,15.18-9.6,23.44-12.86c9.97-3.93,18.85-3.51,35.28-1c3.93-12.15,12.97-18.2,23.7-22.6
		C261.143,168.71,273.153,177.77,279.563,196.58z"/>
	<path d="M253.233,288.6c1.53,9.79-2.83,26.39-9.61,36.51C244.503,311.57,249.783,301.05,253.233,288.6z"/>
	<path d="M235.623,293.36c1.25,12.59-3.5,23.59-7.02,34.91c-1.03-0.29-2.06-0.57-3.09-0.85
		C228.883,316.06,232.253,304.71,235.623,293.36z"/>
	<path d="M200.463,297.41c-2.2,9.09-4.41,18.19-6.61,27.28c-0.96-0.24-1.93-0.48-2.9-0.73c2.33-9.12,4.66-18.24,6.99-27.37
		C198.783,296.86,199.623,297.13,200.463,297.41z"/>
	<path d="M185.343,289.85c0.45,0.16,0.89,0.32,1.33,0.49c-3.04,10.96-6.09,21.92-9.36,33.7c-4.11-3.95-0.86-8.12-0.48-11.66
		c0.42-3.83,2.16-7.56,3.59-11.24C181.903,297.31,183.693,293.61,185.343,289.85z"/>
	<path d="M169.253,291.98c-2.33,9.98-4.67,19.97-7.01,29.95h-0.01C159.233,310.78,163.153,301.14,169.253,291.98z"/>
	<path d="M162.243,321.93c-0.01,0-0.01,0.02-0.01,0.02c0-0.01,0-0.01,0-0.02H162.243z"/>
	<path style="fill:#C1272D;" d="M108.953,298.01c-9.15,0.57-11.94-0.81-14.58-9.24c-2.14-6.81-4.01-13.81-4.91-20.86
		c-0.55-4.37,0.93-8.99,3.23-13.54C98.053,268.74,103.403,283.11,108.953,298.01z"/>
	<path style="fill:#FBB03B;" d="M87.903,295.18c4.83,6.06,5.29,13.29,4.04,20.2c-3.47,19.16-7.63,38.19-11.63,57.26
		c-0.57,2.74-1.78,5.34-2.93,8.67c-5.18-3.54-9.01-7.08-13.53-9.04c-7.35-3.18-10.34-8.13-9.89-16.01
		c0.26-4.64-0.76-9.35-0.89-14.03c-0.28-9.63-4.14-17.72-11.33-23.75c-6.63-5.56-8.71-12.03-7.01-20.2
		c0.81-3.89,1.26-7.84,1.99-11.75c2.22-11.93-0.46-22.22-9.88-30.36c-1.91-1.66-3.56-3.62-5.49-5.25
		c-11.94-10.08-13.75-22.18-6.98-36.7c22.76,13.89,45.43,27.72,68.15,41.59c0,4.28,0,8.88,0,13.99c-8.39-2.77-16.04-7.06-26.84-4.88
		c10.18,8.79,23.53,7.76,31.53,17.1c-5.68,9.04-16.32,13.69-19.97,25.22C76.463,306.37,80.683,298.55,87.903,295.18z M69.913,365.98
		c2.84-10.8,5.69-21.6,8.53-32.41c-0.86-0.27-1.72-0.54-2.59-0.81c-2.94,10.81-5.88,21.62-8.82,32.43
		C67.993,365.46,68.953,365.72,69.913,365.98z M67.583,333.66c-0.72-0.08-1.44-0.17-2.16-0.26c-0.22,4.24-0.45,8.48-0.68,12.71
		c-0.1,0.44-0.19,0.88-0.29,1.32c0.01,0.01,0.02,0.03,0.04,0.05c-0.04,0.1-0.07,0.21-0.11,0.31c-5.18,2.13-3.82,6.98-3.93,11.21
		c1.31-3.74,2.62-7.47,3.93-11.21c0.09-0.05,0.18-0.08,0.28-0.12c0.03-0.52,0.05-1.04,0.08-1.56
		C65.663,341.93,66.623,337.79,67.583,333.66z"/>
	<path d="M78.443,333.57c-2.84,10.81-5.69,21.61-8.53,32.41c-0.96-0.26-1.92-0.52-2.88-0.79c2.94-10.81,5.88-21.62,8.82-32.43
		C76.723,333.03,77.583,333.3,78.443,333.57z"/>
	<path d="M65.423,333.4c0.72,0.09,1.44,0.18,2.16,0.26c-0.96,4.13-1.92,8.27-2.84,12.45C64.973,341.88,65.203,337.64,65.423,333.4z"
		/>
	<path d="M64.453,347.43c0.1-0.44,0.19-0.88,0.29-1.32c-0.03,0.52-0.05,1.04-0.08,1.56c0,0-0.11-0.12-0.17-0.19
		C64.473,347.46,64.463,347.44,64.453,347.43z"/>
	<path d="M64.493,347.48c0.06,0.07,0.17,0.19,0.17,0.19c-0.1,0.04-0.19,0.07-0.28,0.12C64.423,347.69,64.453,347.58,64.493,347.48z"
		/>
	<path d="M64.383,347.79c-1.31,3.74-2.62,7.47-3.93,11.21C60.563,354.77,59.203,349.92,64.383,347.79z"/>
</g>
<g>
</g>
<g>
</g>
<g>
</g>
<g>
</g>
<g>
</g>
<g>
</g>
<g>
</g>
<g>
</g>
<g>
</g>
<g>
</g>
<g>
</g>
<g>
</g>
<g>
</g>
<g>
</g>
<g>
</g>
</svg>
