<?xml version="1.0" encoding="iso-8859-1"?>
<!-- Generator: Adobe Illustrator 18.0.0, SVG Export Plug-In . SVG Version: 6.00 Build 0)  -->
<!DOCTYPE svg PUBLIC "-//W3C//DTD SVG 1.1//EN" "http://www.w3.org/Graphics/SVG/1.1/DTD/svg11.dtd">
<svg version="1.1" id="Capa_1" xmlns="http://www.w3.org/2000/svg" xmlns:xlink="http://www.w3.org/1999/xlink" x="0px" y="0px"
	 viewBox="0 0 438.037 438.037" style="enable-background:new 0 0 438.037 438.037;" xml:space="preserve">
<g>
	<path d="M437.8,126.417c0.3,23.57,0.34,47.15-0.02,70.71c-0.31,20.21-2.01,40.4-1.91,60.6c0.18,38.64,1.19,77.27,1.91,115.91
		c0.22,11.65-3.54,15.02-15.34,13.44c-16.18-2.16-20.59-6.31-20.52-22.74c0.11-25.74,1.38-51.48,1.77-77.23
		c0.32-21.33,0.06-42.68,0.06-65.74c-9.86-1.2-13.5-7.85-13.79-17.49c-0.62-20.22-1.93-40.42-2.27-60.63
		c-0.45-27.19-0.39-54.39-0.13-81.58c0.03-3.61,1.62-8.78,4.22-10.34c2.61-1.57,8.27-0.79,11.04,1.16
		c5.92,4.19,11.9,9.07,15.96,14.96C430.92,85.077,437.53,104.887,437.8,126.417z M428.44,315.157c0.63-42.57-4.09-85.03-1.68-127.65
		c1.12-19.82,0.34-39.76,0.1-59.65c-0.24-19.47-4.37-37.98-15.73-54.23c-3.05-4.37-6.89-8.18-11.53-13.61
		c0,17.64,0.5,32.71-0.11,47.72c-1.21,30.18-1.86,60.29,0.41,90.48c0.65,8.67,2.55,14.81,10.97,17.95c0.53,0.2,0.77,1.19,1.14,1.82
		c-0.58,3.11-1.7,6.22-1.67,9.33c0.24,29.78,0.83,59.57,1,89.36c0.08,15.83-0.76,31.66-0.61,47.48
		c0.11,12.63,4.32,15.39,17.66,12.64C428.39,356.277,428.14,335.717,428.44,315.157z"/>
	<path style="fill:#CCCCCC;" d="M426.76,187.507c-2.41,42.62,2.31,85.08,1.68,127.65c-0.3,20.56-0.05,41.12-0.05,61.64
		c-13.34,2.75-17.55-0.01-17.66-12.64c-0.15-15.82,0.69-31.65,0.61-47.48c-0.17-29.79-0.76-59.58-1-89.36
		c-0.03-3.11,1.09-6.22,1.67-9.33c-0.37-0.63-0.61-1.62-1.14-1.82c-8.42-3.14-10.32-9.28-10.97-17.95
		c-2.27-30.19-1.62-60.3-0.41-90.48c0.61-15.01,0.11-30.08,0.11-47.72c4.64,5.43,8.48,9.24,11.53,13.61
		c11.36,16.25,15.49,34.76,15.73,54.23C427.1,147.747,427.88,167.687,426.76,187.507z"/>
	<path d="M378.18,213.787c0.13,4.78,0.02,9.58,0.02,14.37c-0.4,25.84-2.5,51.35-11.05,76.11c-3.89,11.29-8.32,22.02-15.84,31.29
		c-19.01,23.42-41.42,40.67-72.08,47.55c-45.31,10.18-87.61,2.06-128.8-16.23c-27.37-12.15-43.12-35.08-52.97-62.18
		c-9.81-27-11.37-55.18-10.73-83.78c0.85-38.06,19.59-68.37,41.44-96.74c15.34-19.93,38.96-28.51,62.98-33.97
		c24.24-5.51,48.64-6.84,73.26-0.82c9.13,2.23,18.95,1.5,28.37,2.76c4.27,0.57,8.62,2.17,12.46,4.2
		C352.4,121.257,376.68,160.477,378.18,213.787z M353.8,307.807c12.51-36.14,15.75-73.22,10.69-110.93
		c-3.41-25.42-13.28-48.41-32.03-66.35c-8.95-8.57-19.66-15.4-30.03-22.33c-4.79-3.19-10.48-5.79-16.1-6.83
		c-26.76-4.93-53.57-9.24-80.96-4.25c-36.95,6.74-67.57,22.32-84.73,57.92c-2.87,5.95-7,11.34-9.53,17.42
		c-4.07,9.81-7.64,19.87-10.67,30.06c-0.98,3.28,0.18,7.2,0.47,10.85c-0.09,0.05-0.17,0.1-0.26,0.14l-0.01-0.01
		c-0.26,8.22-4.42,16.45-0.41,25.78c4.66-7.41,8.65-13.77,12.65-20.13c-1.66,7.3-4.54,13.97-8.55,19.87
		c-7.12,10.47-6.09,21.08-2.09,33.72c5.4-10.94,10.18-20.6,14.95-30.25c0.65,0.33,1.3,0.67,1.95,1.01
		c-4.52,9.98-9.42,19.82-13.38,30.03c-1.63,4.18-2.47,9.41-1.54,13.7c3.96,18.28,12.42,34.67,24.07,49.19
		c8.13,10.14,18.69,17.42,31.27,22.65c4.28-12.09,9.06-23.11,15.13-33.47c0.74,0.33,1.47,0.66,2.2,0.99
		c-4.59,11.04-9.18,22.09-14.18,34.1c4.45,1.63,7.97,2.93,11.32,4.16c4.17-10,7.81-18.74,11.45-27.48c0.63,0.22,1.25,0.45,1.88,0.67
		c-3.15,9.12-6.3,18.24-9.77,28.3c5.23,1.34,9.3,2.39,13.16,3.39c5.15-9.71,9.85-18.57,14.55-27.43c0.56,0.29,1.12,0.57,1.68,0.86
		c-4.04,8.86-8.08,17.71-12.45,27.29c7.06,1.66,13.02,3.81,19.12,4.31c10.48,0.87,21.05,0.7,31.58,0.97c0-0.05,0-0.1,0-0.14
		c1.62,0.59,3.31,1.68,4.82,1.48c30.05-4,58.31-11.98,80.1-35.09C339.81,331.737,349.06,321.487,353.8,307.807z"/>
	<path style="fill:#E6E6E6;" d="M364.49,196.877c5.06,37.71,1.82,74.79-10.69,110.93c-4.74,13.68-13.99,23.93-23.65,34.17
		c-21.79,23.11-50.05,31.09-80.1,35.09c-1.51,0.2-3.2-0.89-4.82-1.48c-0.01-0.12-0.01-0.23-0.01-0.34
		c6.1-5.03,8.36-12.37,11.43-19.22c-4.41,6.05-11.52,10.54-11.43,19.22c-0.09,0.08-0.18,0.15-0.28,0.23c0,0,0.01,0.01,0.02,0.02
		l0.07,0.06c0.09,0.08,0.2,0.17,0.2,0.17c-10.53-0.27-21.1-0.1-31.58-0.97c-6.1-0.5-12.06-2.65-19.12-4.31
		c4.37-9.58,8.41-18.43,12.45-27.29c-0.56-0.29-1.12-0.57-1.68-0.86c-4.7,8.86-9.4,17.72-14.55,27.43c-3.86-1-7.93-2.05-13.16-3.39
		c3.47-10.06,6.62-19.18,9.77-28.3c-0.63-0.22-1.25-0.45-1.88-0.67c-3.64,8.74-7.28,17.48-11.45,27.48
		c-3.35-1.23-6.87-2.53-11.32-4.16c5-12.01,9.59-23.06,14.18-34.1c-0.73-0.33-1.46-0.66-2.2-0.99
		c-6.07,10.36-10.85,21.38-15.13,33.47c-12.58-5.23-23.14-12.51-31.27-22.65c-11.65-14.52-20.11-30.91-24.07-49.19
		c-0.93-4.29-0.09-9.52,1.54-13.7c3.96-10.21,8.86-20.05,13.38-30.03c-0.65-0.34-1.3-0.68-1.95-1.01
		c-4.77,9.65-9.55,19.31-14.95,30.25c-4-12.64-5.03-23.25,2.09-33.72c4.01-5.9,6.89-12.57,8.55-19.87
		c-4,6.36-7.99,12.72-12.65,20.13c-4.01-9.33,0.15-17.56,0.41-25.78l0.01,0.01l0.3,0.27c0.09-0.19,0.19-0.39,0.28-0.58
		c4.92-2.77,6.14-7.69,6.35-13.14c-2.12,4.38-4.23,8.75-6.35,13.14c-0.1,0.06-0.21,0.12-0.32,0.17c-0.29-3.65-1.45-7.57-0.47-10.85
		c3.03-10.19,6.6-20.25,10.67-30.06c2.53-6.08,6.66-11.47,9.53-17.42c17.16-35.6,47.78-51.18,84.73-57.92
		c27.39-4.99,54.2-0.68,80.96,4.25c5.62,1.04,11.31,3.64,16.1,6.83c10.37,6.93,21.08,13.76,30.03,22.33
		C351.21,148.467,361.08,171.457,364.49,196.877z M314.38,243.287c8.11-17.63,11.93-36.31,10.63-55.89
		c-1.21-18.27-13.94-35.96-28.75-39.65c-18.19-4.54-38.09,2.49-48.93,17.99c-5.22,7.47-9.38,15.67-14.42,24.21
		c-19.38-14.62-41.26-12.96-63.27-8.5c-13.78,2.79-25.8,9.13-33.29,21.69c-16.9,28.38-8.99,73.43,23.31,91.74
		c34.02,19.3,70.81,22.94,108.02,27.13c6.53,0.74,10.13-2.25,12.83-7.98C291.67,290.387,303.45,267.037,314.38,243.287z
		 M228.17,371.197c4.58-7.61,9.15-15.22,13.73-22.83c-0.68-0.43-1.35-0.86-2.03-1.29c-4.79,7.48-9.58,14.96-14.38,22.43
		C226.39,370.077,227.28,370.637,228.17,371.197z M211.68,368.927c1.47-3.11,2.94-6.22,4.42-9.33c-0.59-0.27-1.17-0.54-1.76-0.8
		c-1.48,3.09-2.96,6.19-4.44,9.29C210.49,368.367,211.08,368.647,211.68,368.927z M155.04,351.537c3.43-8.84,6.87-17.67,10.3-26.5
		c-0.73-0.3-1.46-0.6-2.19-0.9c-3.7,8.67-7.4,17.33-11.1,26C153.05,350.597,154.04,351.067,155.04,351.537z M138.62,341.407
		c4.02-10.94,8.04-21.88,12.06-32.81c-0.78-0.29-1.57-0.57-2.35-0.86c-5.11,10.54-10.91,20.83-12.23,32.75
		C136.94,340.797,137.78,341.097,138.62,341.407z M125.74,322.137c3.72-8.38,7.19-16.2,10.67-24.02
		C126.01,309.657,124.23,314.177,125.74,322.137z M115.13,304.217c3.57-8,7.14-16,10.7-24.01c-0.81-0.36-1.62-0.72-2.44-1.09
		c-3.65,7.97-7.31,15.93-10.96,23.9C113.33,303.417,114.23,303.817,115.13,304.217z"/>
	<path d="M325.01,187.397c1.3,19.58-2.52,38.26-10.63,55.89c-10.93,23.75-22.71,47.1-33.87,70.74c-2.7,5.73-6.3,8.72-12.83,7.98
		c-37.21-4.19-74-7.83-108.02-27.13c-32.3-18.31-40.21-63.36-23.31-91.74c7.49-12.56,19.51-18.9,33.29-21.69
		c22.01-4.46,43.89-6.12,63.27,8.5c5.04-8.54,9.2-16.74,14.42-24.21c10.84-15.5,30.74-22.53,48.93-17.99
		C311.07,151.437,323.8,169.127,325.01,187.397z M314.75,206.137c1.39-10.01,1.37-19.83-1.5-29.48
		c-4.95-16.64-18.67-24.41-35.84-21.25c-9.58,1.77-17.42,6.34-23.2,13.75c-4.93,6.32-8.82,13.49-12.82,20.48
		c-3.76,6.59-6.67,8.06-13.05,4.28c-22.96-13.57-46.13-10.05-68.86-0.3c-17.03,7.31-26.53,30.47-21.57,48.45
		c2.47-2.91,5.04-5.95,7.63-8.99c-1.76,4.45-3.74,8.83-5.03,13.41c-0.96,3.39-1.78,7.33-0.98,10.61
		c2.53,10.26,7.63,19.33,16.77,25.14c13.7,8.71,28.05,16.65,43.96,20.14c20.39,4.46,41.11,7.41,61.7,10.95
		c4.91,0.84,7.95-0.66,10.19-5.82c5.11-11.8,11.37-23.09,16.8-34.75C299.02,251.137,311.37,230.417,314.75,206.137z"/>
	<path style="fill:#C1272D;" d="M313.25,176.657c2.87,9.65,2.89,19.47,1.5,29.48c-3.38,24.28-15.73,45-25.8,66.62
		c-5.43,11.66-11.69,22.95-16.8,34.75c-2.24,5.16-5.28,6.66-10.19,5.82c-20.59-3.54-41.31-6.49-61.7-10.95
		c-15.91-3.49-30.26-11.43-43.96-20.14c-9.14-5.81-14.24-14.88-16.77-25.14c-0.8-3.28,0.02-7.22,0.98-10.61
		c1.29-4.58,3.27-8.96,5.03-13.41c0.21-0.26,0.43-0.51,0.65-0.77c0.06-0.4,0.12-0.81,0.19-1.21c1.15-2.41,2.32-4.81,3.49-7.21
		c-0.76-0.24-1.51-0.48-2.27-0.72c-0.41,2.65-0.82,5.28-1.22,7.93c-0.16,0.32-0.32,0.65-0.47,0.97c0,0,0.01,0.01,0.02,0.02
		c-0.13,0.33-0.26,0.66-0.39,0.99c-2.59,3.04-5.16,6.08-7.63,8.99c-4.96-17.98,4.54-41.14,21.57-48.45
		c22.73-9.75,45.9-13.27,68.86,0.3c6.38,3.78,9.29,2.31,13.05-4.28c4-6.99,7.89-14.16,12.82-20.48c5.78-7.41,13.62-11.98,23.2-13.75
		C294.58,152.247,308.3,160.017,313.25,176.657z M223.26,301.677c3-5.01,6-10.02,9-15.03c-0.86-0.51-1.72-1.03-2.58-1.54
		c-2.87,5.12-5.74,10.24-8.61,15.36C221.8,300.867,222.53,301.277,223.26,301.677z M206.29,294.597c3.45-6.4,6.91-12.81,10.37-19.21
		c-0.74-0.41-1.49-0.81-2.23-1.21c-3.63,6.31-7.25,12.62-10.88,18.93C204.46,293.607,205.37,294.107,206.29,294.597z
		 M189.73,293.197c3.53-7.06,7.06-14.13,10.59-21.2c-0.63-0.4-1.26-0.79-1.89-1.19c-3.52,7.17-7.04,14.33-10.56,21.5
		C188.49,292.597,189.11,292.897,189.73,293.197z M180.06,273.047c1.38-2.43,2.75-4.86,4.13-7.28c-0.57-0.37-1.13-0.74-1.7-1.1
		c-1.22,2.59-2.45,5.18-3.68,7.77C179.23,272.637,179.64,272.847,180.06,273.047z M162.95,265.197c1.27-2.1,2.55-4.2,3.83-6.31
		c-0.41-0.4-0.81-0.8-1.21-1.2c-1.23,2.34-2.46,4.68-3.68,7.02C162.24,264.867,162.59,265.037,162.95,265.197z M151.32,260.877
		c0.97-2.1,1.94-4.19,2.91-6.29c-0.61-0.27-1.22-0.55-1.83-0.82c-0.79,2.2-1.58,4.4-2.37,6.6
		C150.46,260.537,150.89,260.707,151.32,260.877z"/>
	<path d="M256.65,356.027c-3.07,6.85-5.33,14.19-11.43,19.22C245.13,366.567,252.24,362.077,256.65,356.027z"/>
	<path d="M245.23,375.587c0,0.04,0,0.09,0,0.14c0,0-0.11-0.09-0.2-0.17c-0.03-0.02-0.05-0.04-0.07-0.06
		C245.05,375.527,245.14,375.557,245.23,375.587z"/>
	<path d="M245.22,375.247c0,0.11,0,0.22,0.01,0.34c-0.09-0.03-0.18-0.06-0.27-0.09c-0.01-0.01-0.02-0.02-0.02-0.02
		C245.04,375.397,245.13,375.327,245.22,375.247z"/>
	<path d="M245.03,375.557l-0.07-0.06C244.98,375.517,245,375.537,245.03,375.557z"/>
	<path d="M241.9,348.367c-4.58,7.61-9.15,15.22-13.73,22.83c-0.89-0.56-1.78-1.12-2.68-1.69c4.8-7.47,9.59-14.95,14.38-22.43
		C240.55,347.507,241.22,347.937,241.9,348.367z"/>
	<path d="M232.26,286.647c-3,5.01-6,10.02-9,15.03c-0.73-0.4-1.46-0.81-2.19-1.21c2.87-5.12,5.74-10.24,8.61-15.36
		C230.54,285.617,231.4,286.137,232.26,286.647z"/>
	<path d="M216.66,275.387c-3.46,6.4-6.92,12.81-10.37,19.21c-0.92-0.49-1.83-0.99-2.74-1.49c3.63-6.31,7.25-12.62,10.88-18.93
		C215.17,274.577,215.92,274.977,216.66,275.387z"/>
	<path d="M216.1,359.597c-1.48,3.11-2.95,6.22-4.42,9.33c-0.6-0.28-1.19-0.56-1.78-0.84c1.48-3.1,2.96-6.2,4.44-9.29
		C214.93,359.057,215.51,359.327,216.1,359.597z"/>
	<path d="M200.32,271.997c-3.53,7.07-7.06,14.14-10.59,21.2c-0.62-0.3-1.24-0.6-1.86-0.89c3.52-7.17,7.04-14.33,10.56-21.5
		C199.06,271.207,199.69,271.597,200.32,271.997z"/>
	<path d="M184.19,265.767c-1.38,2.42-2.75,4.85-4.13,7.28c-0.42-0.2-0.83-0.41-1.25-0.61c1.23-2.59,2.46-5.18,3.68-7.77
		C183.06,265.027,183.62,265.397,184.19,265.767z"/>
	<path d="M166.78,258.887c-1.28,2.11-2.56,4.21-3.83,6.31c-0.36-0.16-0.71-0.33-1.06-0.49c1.22-2.34,2.45-4.68,3.68-7.02
		C165.97,258.087,166.37,258.487,166.78,258.887z"/>
	<path d="M165.34,325.037c-3.43,8.83-6.87,17.66-10.3,26.5c-1-0.47-1.99-0.94-2.99-1.4c3.7-8.67,7.4-17.33,11.1-26
		C163.88,324.437,164.61,324.737,165.34,325.037z"/>
	<path d="M154.23,254.587c-0.97,2.1-1.94,4.19-2.91,6.29c-0.43-0.17-0.86-0.34-1.29-0.51c0.79-2.2,1.58-4.4,2.37-6.6
		C153.01,254.037,153.62,254.317,154.23,254.587z"/>
	<path d="M150.68,308.597c-4.02,10.93-8.04,21.87-12.06,32.81c-0.84-0.31-1.68-0.61-2.52-0.92c1.32-11.92,7.12-22.21,12.23-32.75
		C149.11,308.027,149.9,308.307,150.68,308.597z"/>
	<path d="M147.6,223.167c0.76,0.24,1.51,0.48,2.27,0.72c-1.17,2.4-2.34,4.8-3.49,7.21C146.78,228.447,147.19,225.817,147.6,223.167z
		"/>
	<path d="M146.38,231.097c-0.07,0.4-0.13,0.81-0.19,1.21c0,0-0.2-0.17-0.26-0.22c-0.01-0.01-0.02-0.02-0.02-0.02
		C146.06,231.747,146.22,231.417,146.38,231.097z"/>
	<path d="M146.19,232.307c-0.22,0.26-0.44,0.51-0.65,0.77c0.13-0.33,0.26-0.66,0.39-0.99
		C145.99,232.137,146.19,232.307,146.19,232.307z"/>
	<path d="M136.41,298.117c-3.48,7.82-6.95,15.64-10.67,24.02C124.23,314.177,126.01,309.657,136.41,298.117z"/>
	<path d="M125.83,280.207c-3.56,8.01-7.13,16.01-10.7,24.01c-0.9-0.4-1.8-0.8-2.7-1.2c3.65-7.97,7.31-15.93,10.96-23.9
		C124.21,279.487,125.02,279.847,125.83,280.207z"/>
	<path d="M101.23,213.197c2.12-4.39,4.23-8.76,6.35-13.14C107.37,205.507,106.15,210.427,101.23,213.197z"/>
	<path d="M101.23,213.197c-0.09,0.19-0.19,0.39-0.28,0.58c-0.01-0.14-0.02-0.27-0.04-0.41
		C101.02,213.317,101.13,213.257,101.23,213.197z"/>
	<path d="M100.91,213.367c0.02,0.14,0.03,0.27,0.04,0.41l-0.3-0.27C100.74,213.467,100.82,213.417,100.91,213.367z"/>
	<path d="M85.17,167.187c0.82,10.03-1.23,18.65-13.16,22.32c-9.63,2.96-14.65,11.25-14.98,21.21c-0.39,11.75-0.59,23.64,0.73,35.29
		c3.74,32.92,7.73,65.8,8.47,98.98c0.13,6.19,1.81,12.36,3.01,18.49c2.89,14.8-2.15,21.5-17.31,22.7c-2.2,0.18-4.42,0.28-6.62,0.15
		c-12.75-0.76-17.68-5.01-20.05-17.63c-0.74-3.95-1.06-8.03-1.09-12.05c-0.3-47.19-0.73-94.37-0.6-141.55
		c0.03-11.68-1.89-20.9-14.25-25.56c-6.95-2.62-9.5-9.45-9.31-16.31c0.57-20.24,1.42-40.48,3-60.66c0.37-4.71,3.34-9.76,6.43-13.58
		c3.89-4.8,8.86-3.33,10.64,2.63c0.82,2.77,0.99,5.8,1,8.72c0.05,9.95-0.25,19.9-0.1,29.85c0.06,4.14-0.72,8.83,5.04,12.93
		c0-7.44-0.36-13.54,0.09-19.58c0.66-8.74,0.99-17.67,3.19-26.07c2.11-8.01,7.52-11.59,12.17-10.82c4.49,0.74,8.16,6.37,8.36,14.12
		c0.16,6.24-0.47,12.5-0.84,18.75c-0.44,7.29-0.68,14.5,4.41,21.38c5.03-7.75,3.04-15.43,2.6-22.98
		c-0.42-7.32-0.73-14.65-0.82-21.99c-0.03-2.13,0.65-4.35,1.35-6.42c2.28-6.79,6.46-10.16,11.71-9.68
		c4.94,0.45,9.53,4.98,10.26,11.48C80.96,123.237,83.35,145.187,85.17,167.187z M66.51,183.477c10.93-4.53,11.3-4.55,10.29-15.75
		c-2.05-22.68-4.51-45.32-6.93-67.97c-0.13-1.24-1.41-2.36-2.17-3.56c-5.17,0.67-6.16,4.3-6.39,7.99c-0.3,4.77-0.25,9.58,0.11,14.34
		c0.62,8.44,1.9,16.84,2.32,25.28c0.41,8.12-3.31,13.92-8.65,14.9c-6.08,1.11-11.46-3.18-12.78-12.31
		c-1.2-8.31-0.63-16.88-0.76-25.34c-0.09-5.38-0.02-10.77-0.02-16.15c-0.94-0.2-1.89-0.39-2.83-0.59c-4.66,3.98-6.65,9.3-6.47,15.38
		c0.2,6.61,0.88,13.21,1.33,19.81c0.27,4.03,0.89,8.08,0.66,12.08c-0.28,5.05-2.25,9.48-7.83,10.72c-4.4,0.97-9.66-2.84-10.75-9.07
		c-1.32-7.53-1.92-15.33-1.61-22.96c0.36-8.93,0.65-17.76,0.4-27.38c-6.9,3.27-6.59,8.18-6.61,12.95c-0.1,17.3,0.09,34.61-0.39,51.9
		c-0.25,8.83,2.49,14.86,11.17,17.95c9.16,3.26,12.55,10.82,13.44,19.81c0.32,3.3,0.18,6.64,0.2,9.95
		c0.25,45.35,0.44,90.7,0.81,136.04c0.05,5.86,0.84,11.75,1.77,17.54c0.39,2.37,1.6,5,3.27,6.69c3,3.02,15.02,3.29,19.15,0.7
		c5.58-3.49,3.94-8.93,3.29-13.96c-1.12-8.74-2.76-17.44-3.55-26.2c-3.3-36.28-6.08-72.6-9.69-108.85
		c-0.87-8.69,0.17-16.82,2.14-25.05C51.67,192.987,57.84,187.067,66.51,183.477z"/>
	<path style="fill:#CCCCCC;" d="M76.8,167.727c1.01,11.2,0.64,11.22-10.29,15.75c-8.67,3.59-14.84,9.51-17.08,18.89
		c-1.97,8.23-3.01,16.36-2.14,25.05c3.61,36.25,6.39,72.57,9.69,108.85c0.79,8.76,2.43,17.46,3.55,26.2
		c0.65,5.03,2.29,10.47-3.29,13.96c-4.13,2.59-16.15,2.32-19.15-0.7c-1.67-1.69-2.88-4.32-3.27-6.69
		c-0.93-5.79-1.72-11.68-1.77-17.54c-0.37-45.34-0.56-90.69-0.81-136.04c-0.02-3.31,0.12-6.65-0.2-9.95
		c-0.89-8.99-4.28-16.55-13.44-19.81c-8.68-3.09-11.42-9.12-11.17-17.95c0.48-17.29,0.29-34.6,0.39-51.9
		c0.02-4.77-0.29-9.68,6.61-12.95c0.25,9.62-0.04,18.45-0.4,27.38c-0.31,7.63,0.29,15.43,1.61,22.96
		c1.09,6.23,6.35,10.04,10.75,9.07c5.58-1.24,7.55-5.67,7.83-10.72c0.23-4-0.39-8.05-0.66-12.08c-0.45-6.6-1.13-13.2-1.33-19.81
		c-0.18-6.08,1.81-11.4,6.47-15.38c0.94,0.2,1.89,0.39,2.83,0.59c0,5.38-0.07,10.77,0.02,16.15c0.13,8.46-0.44,17.03,0.76,25.34
		c1.32,9.13,6.7,13.42,12.78,12.31c5.34-0.98,9.06-6.78,8.65-14.9c-0.42-8.44-1.7-16.84-2.32-25.28c-0.36-4.76-0.41-9.57-0.11-14.34
		c0.23-3.69,1.22-7.32,6.39-7.99c0.76,1.2,2.04,2.32,2.17,3.56C72.29,122.407,74.75,145.047,76.8,167.727z"/>
</g>
<g>
</g>
<g>
</g>
<g>
</g>
<g>
</g>
<g>
</g>
<g>
</g>
<g>
</g>
<g>
</g>
<g>
</g>
<g>
</g>
<g>
</g>
<g>
</g>
<g>
</g>
<g>
</g>
<g>
</g>
</svg>
