<?xml version="1.0" encoding="iso-8859-1"?>
<!-- Generator: Adobe Illustrator 19.0.0, SVG Export Plug-In . SVG Version: 6.00 Build 0)  -->
<svg version="1.1" id="Capa_1" xmlns="http://www.w3.org/2000/svg" xmlns:xlink="http://www.w3.org/1999/xlink" x="0px" y="0px"
	 viewBox="0 0 464 464" style="enable-background:new 0 0 464 464;" xml:space="preserve">
<g>
	<path style="fill:#FFE6B9;" d="M275.746,101.269L280,80h-8.727h-21.818H232v32c92.784,0,168,75.216,168,168
		c0,92.784-75.216,168-168,168S64,372.784,64,280c0-78.78,54.229-144.884,127.391-163.047l-3.137-15.684
		C107.847,120.953,48,193.614,48,280c0,101.457,82.543,184,184,184s184-82.543,184-184C416,193.614,356.153,120.953,275.746,101.269
		z"/>
	<polygon style="fill:#FF8C87;" points="249.455,80 271.273,80 304,40 264,40 	"/>
	<polygon style="fill:#FFBEAF;" points="232,40 264,40 232,0 200,40 	"/>
	<polygon style="fill:#FF8C87;" points="272,0 232,0 264,40 	"/>
	<polygon style="fill:#FF8C87;" points="232,0 192,0 200,40 	"/>
	<polygon style="fill:#E86464;" points="192,0 160,40 200,40 	"/>
	<polygon style="fill:#FFD2BE;" points="304,40 272,0 264,40 	"/>
	<polygon style="fill:#D2464B;" points="200,40 160,40 192.727,80 214.545,80 	"/>
	<polygon style="fill:#E86464;" points="232,40 200,40 214.545,80 232,80 249.455,80 264,40 	"/>
	<path style="fill:#EBD2AA;" d="M64,280c0,92.784,75.216,168,168,168s168-75.216,168-168c0-92.784-75.216-168-168-168V80h-17.455
		h-21.818H184l4.254,21.269l3.137,15.684C118.229,135.116,64,201.22,64,280z M384,280c0,83.813-68.188,152-152,152
		S80,363.813,80,280s68.188-152,152-152S384,196.188,384,280z"/>
</g>
<g>
</g>
<g>
</g>
<g>
</g>
<g>
</g>
<g>
</g>
<g>
</g>
<g>
</g>
<g>
</g>
<g>
</g>
<g>
</g>
<g>
</g>
<g>
</g>
<g>
</g>
<g>
</g>
<g>
</g>
</svg>
