<?xml version="1.0" encoding="iso-8859-1"?>
<!-- Generator: Adobe Illustrator 18.0.0, SVG Export Plug-In . SVG Version: 6.00 Build 0)  -->
<!DOCTYPE svg PUBLIC "-//W3C//DTD SVG 1.1//EN" "http://www.w3.org/Graphics/SVG/1.1/DTD/svg11.dtd">
<svg version="1.1" id="Capa_1" xmlns="http://www.w3.org/2000/svg" xmlns:xlink="http://www.w3.org/1999/xlink" x="0px" y="0px"
	 viewBox="0 0 417.991 417.991" style="enable-background:new 0 0 417.991 417.991;" xml:space="preserve">
<g>
	<path d="M416.506,209.405c1.92,11.57,0.79,23.1-3.04,34.23c-3.83,11.11-12.11,14-22.13,7.7c-3.23-2.03-6.04-4.73-10.5-8.29
		c0.69,6.24,1.4,10.72,1.64,15.22c1.05,19.85,2.11,39.71,2.87,59.57c0.7,18.42,1.49,36.85,1.31,55.27
		c-0.07,7.8-1.64,15.85-4.06,23.28c-3.33,10.22-11.2,16.72-21.38,20.06c-12.39,4.05-22.85,0.16-27.74-11.91
		c-3.61-8.9-6.39-18.67-6.88-28.19c-0.99-19.06-0.14-38.22-0.07-57.33c0.03-9.74,0.01-19.47,0.01-31.38
		c-11.17,7.12-14.24,16.51-15.29,26.58c-0.71,6.78-0.19,13.73,0.21,20.58c1.21,20.81,0.43,41.3-9.24,60.39
		c-2.26,4.48-4.68,9.1-8,12.77c-7.74,8.53-17.44,8.56-25.67,0.51c-12.07-11.8-17.18-26.72-17.47-43.14
		c-0.75-43.41-0.9-86.81,9.41-129.45c0.83-3.43,0.8-7.07-0.29-11.22c-2.43,4.43-4.67,8.97-7.33,13.25
		c-2.86,4.6-5.94,9.07-9.22,13.38c-4.12,5.41-9.49,7.53-16.27,5.39c-7.24-2.29-10.67-7.74-10.77-14.68
		c-0.11-7.91,0.59-15.92,1.77-23.76c3.45-22.96,10.06-44.99,18.83-66.56c9.31-22.91,26.03-32.6,49.9-32.16
		c9.66,0.18,19.33,0.03,29,0.03c0.12-0.84,0.23-1.67,0.35-2.51c-3.31-0.61-6.6-1.44-9.93-1.82c-36.16-4.13-54.84-35.94-40.92-69.73
		c0.55-1.34,1.13-2.66,1.7-3.99c10.79-25.47,25.54-33.44,54.87-32.97c6.78,0.11,13.6,1.51,20.3,2.81
		c9.53,1.86,16.64,7.82,20.64,16.19c10.63,22.24,9.59,44.89-0.47,67.02c-4.69,10.32-12.86,17.35-24.38,19.78
		c-1.67,0.36-3.26,1.04-5.55,1.78c9.23,1.83,17.73,2.98,25.92,5.24c27.83,7.69,46.03,24.64,51.08,54.08
		C411.676,186.805,414.626,198.015,416.506,209.405z M406.316,222.545c0.59-21.28-5.01-41.75-13.17-60.92
		c-7.91-18.58-25.1-27.37-44.33-31.21c-22.55-4.49-45.43-2.19-68.13-1.54c-8.73,0.26-18.2,2.55-24.3,10.28
		c-6.92,8.78-11.03,18.99-14.62,30.05c2.19-0.46,3.36-0.71,5.1-1.09c-9.58,12.43-9.58,12.43-10.21,21.67c2.07-1.6,3.66-3,5.42-4.13
		c1.45-0.93,3.12-1.53,6.46-3.13c-7.21,9.91-19.14,14.55-16.89,28.07c1.55-0.73,2.48-1.36,3.5-1.58c0.71-0.15,1.54,0.27,3.84,0.76
		c-12.84,10.33-11.92,22.86-9.61,36.74c2.69-0.59,4.88-0.41,5.9-1.42c3.05-3,6.19-6.16,8.31-9.82c5.43-9.37,10.15-19.16,15.57-28.53
		c1.4-2.44,4.33-3.99,6.56-5.95c1.53,2.19,3.88,4.2,4.42,6.61c1.12,4.88,1.19,10,1.86,15c0.11,0.82,1.03,1.54,1.58,2.32
		c2.17-2.27,4.07-4.27,5.97-6.27c0.47,0.37,0.95,0.74,1.42,1.1c-3.62,6.71-7.25,13.41-10.88,20.12c0.58,0.34,1.15,0.69,1.73,1.03
		c3.96-4.71,7.92-9.41,11.89-14.12c0.62,0.44,1.24,0.88,1.87,1.32c-4.23,6.51-8.3,13.13-12.74,19.5c-4.95,7.08-6.97,14.83-6.8,25.1
		c3.27-4.37,5.56-7.5,7.92-10.57c2.19-2.86,4.45-5.67,6.68-8.5c0.62,0.47,1.24,0.94,1.86,1.41c-5.22,8.56-10.39,17.15-15.69,25.65
		c-3.53,5.65-4.22,11.49-2.65,19.02c4.95-6.1,8.94-11.02,12.92-15.94c-2.49,8.38-6.57,15.53-10.82,22.58
		c-3.9,6.46-3.81,13.14-2.23,21.63c6.1-9.25,11.25-17.06,16.4-24.87c0.7,0.44,1.41,0.88,2.12,1.32c-1.91,3.74-3.84,7.47-5.71,11.23
		c-4.02,8.08-8.04,16.16-12.01,24.27c-2.78,5.7-1.69,11.42,0.47,17.45c3.89-6.01,7.78-12.01,11.68-18.01
		c0.66,0.39,1.32,0.77,1.97,1.16c-1.31,2.81-2.5,5.68-3.95,8.41c-2.9,5.43-5.91,10.78-8.92,16.14c-3.05,5.4-3.12,10.62,0.64,16.23
		c4.86-7.74,9.43-15.01,13.99-22.28c0.73,0.47,1.46,0.95,2.19,1.42c-3.77,7.69-7.65,15.33-11.29,23.08
		c-2.95,6.26,1.26,16.5,7.7,18.59c1.41,0.45,3.75,0,4.86-0.96c1.86-1.61,3.48-3.78,4.47-6.03c7.82-17.65,13.95-35.62,12.01-55.48
		c-0.8-8.25-0.8-16.64-0.37-24.93c0.62-12.36,5.53-23.05,14.29-31.92c4.52-4.57,9.86-6.44,15.77-3.86
		c5.53,2.42,7.48,7.42,7.38,13.37c-0.2,11.57-0.36,23.15-0.36,34.72c-0.01,15.9-0.46,31.84,0.49,47.69
		c0.52,8.5,2.89,17.09,5.7,25.19c2.74,7.9,7.99,9.43,15.58,6.12c5.94-2.59,10.49-6.96,12.17-13.1c1.79-6.54,3.28-13.45,3.18-20.17
		c-0.42-27.82-1.21-55.64-2.42-83.43c-0.74-16.94-2.68-33.83-3.7-50.76c-0.66-10.82-0.81-21.68-0.71-32.52
		c0.02-1.94,2.39-5.42,3.71-5.44c2.36-0.03,5.18,1.59,6.98,3.36c1.37,1.35,1.34,4.04,2.1,6.07c2.92,7.77,5.52,15.69,8.99,23.21
		c2.17,4.7,4.98,9.61,12.73,10.71C403.666,236.395,406.126,229.505,406.316,222.545z M354.276,85.005c5.25-16,7.03-32.55,0.18-48.69
		c-1.77-4.17-4.56-8.37-7.95-11.3c-13.19-11.37-42.39-12.16-56.02-1.31c-12.79,10.17-17.63,24.72-19.29,40.8
		c3.5-4.72,7.01-9.44,11.52-15.52c-0.92,12.12-14.52,18.35-9.78,31.47c4.58-5.43,8.56-10.15,12.55-14.87
		c0.51,0.37,1.03,0.74,1.55,1.12c-3.86,6.29-7.72,12.58-11.93,19.44c1.96,2.35,3.92,4.72,6.29,7.58c2.52-3.74,4.34-6.81,6.53-9.58
		c2.06-2.61,4.51-4.92,6.79-7.36c0.47,0.33,0.94,0.67,1.41,1c-3.52,6.43-7.03,12.86-11.01,20.13c3.74,1.76,6.76,3.19,9.61,4.53
		c4.59-6.58,8.56-12.28,12.53-17.98c0.71,0.43,1.42,0.86,2.13,1.29c-3.15,5.84-6.31,11.68-9.65,17.86
		c9.6,3.14,18.92,3.56,28.28,2.57C341.216,104.785,350.276,97.195,354.276,85.005z"/>
	<path style="fill:#00568F;" d="M393.146,161.625c8.16,19.17,13.76,39.64,13.17,60.92c-0.19,6.96-2.65,13.85-4.16,21.22
		c-7.75-1.1-10.56-6.01-12.73-10.71c-3.47-7.52-6.07-15.44-8.99-23.21c-0.76-2.03-0.73-4.72-2.1-6.07c-1.8-1.77-4.62-3.39-6.98-3.36
		c-1.32,0.02-3.69,3.5-3.71,5.44c-0.1,10.84,0.05,21.7,0.71,32.52c1.02,16.93,2.96,33.82,3.7,50.76c1.21,27.79,2,55.61,2.42,83.43
		c0.1,6.72-1.39,13.63-3.18,20.17c-1.68,6.14-6.23,10.51-12.17,13.1c-7.59,3.31-12.84,1.78-15.58-6.12
		c-2.81-8.1-5.18-16.69-5.7-25.19c-0.95-15.85-0.5-31.79-0.49-47.69c0-11.57,0.16-23.15,0.36-34.72c0.1-5.95-1.85-10.95-7.38-13.37
		c-5.91-2.58-11.25-0.71-15.77,3.86c-8.76,8.87-13.67,19.56-14.29,31.92c-0.43,8.29-0.43,16.68,0.37,24.93
		c1.94,19.86-4.19,37.83-12.01,55.48c-0.99,2.25-2.61,4.42-4.47,6.03c-1.11,0.96-3.45,1.41-4.86,0.96
		c-6.44-2.09-10.65-12.33-7.7-18.59c3.64-7.75,7.52-15.39,11.29-23.08c-0.73-0.47-1.46-0.95-2.19-1.42
		c-4.56,7.27-9.13,14.54-13.99,22.28c-3.76-5.61-3.69-10.83-0.64-16.23c3.01-5.36,6.02-10.71,8.92-16.14
		c1.45-2.73,2.64-5.6,3.95-8.41c-0.65-0.39-1.31-0.77-1.97-1.16c-3.9,6-7.79,12-11.68,18.01c-2.16-6.03-3.25-11.75-0.47-17.45
		c3.97-8.11,7.99-16.19,12.01-24.27c1.87-3.76,3.8-7.49,5.71-11.23c-0.71-0.44-1.42-0.88-2.12-1.32
		c-5.15,7.81-10.3,15.62-16.4,24.87c-1.58-8.49-1.67-15.17,2.23-21.63c4.25-7.05,8.33-14.2,10.82-22.58
		c-3.98,4.92-7.97,9.84-12.92,15.94c-1.57-7.53-0.88-13.37,2.65-19.02c5.3-8.5,10.47-17.09,15.69-25.65
		c-0.62-0.47-1.24-0.94-1.86-1.41c-2.23,2.83-4.49,5.64-6.68,8.5c-2.36,3.07-4.65,6.2-7.92,10.57c-0.17-10.27,1.85-18.02,6.8-25.1
		c4.44-6.37,8.51-12.99,12.74-19.5c-0.63-0.44-1.25-0.88-1.87-1.32c-3.97,4.71-7.93,9.41-11.89,14.12
		c-0.58-0.34-1.15-0.69-1.73-1.03c3.63-6.71,7.26-13.41,10.88-20.12c-0.47-0.36-0.95-0.73-1.42-1.1c-1.9,2-3.8,4-5.97,6.27
		c-0.55-0.78-1.47-1.5-1.58-2.32c-0.67-5-0.74-10.12-1.86-15c-0.54-2.41-2.89-4.42-4.42-6.61c-2.23,1.96-5.16,3.51-6.56,5.95
		c-5.42,9.37-10.14,19.16-15.57,28.53c-2.12,3.66-5.26,6.82-8.31,9.82c-1.02,1.01-3.21,0.83-5.9,1.42
		c-2.31-13.88-3.23-26.41,9.61-36.74c-2.3-0.49-3.13-0.91-3.84-0.76c-1.02,0.22-1.95,0.85-3.5,1.58
		c-2.25-13.52,9.68-18.16,16.89-28.07c-3.34,1.6-5.01,2.2-6.46,3.13c-1.76,1.13-3.35,2.53-5.42,4.13
		c0.63-9.24,0.63-9.24,10.21-21.67c-1.74,0.38-2.91,0.63-5.1,1.09c3.59-11.06,7.7-21.27,14.62-30.05
		c6.1-7.73,15.57-10.02,24.3-10.28c22.7-0.65,45.58-2.95,68.13,1.54C368.046,134.255,385.236,143.045,393.146,161.625z"/>
	<path style="fill:#00568F;" d="M354.456,36.315c6.85,16.14,5.07,32.69-0.18,48.69c-4,12.19-13.06,19.78-26.26,21.18
		c-9.36,0.99-18.68,0.57-28.28-2.57c3.34-6.18,6.5-12.02,9.65-17.86c-0.71-0.43-1.42-0.86-2.13-1.29
		c-3.97,5.7-7.94,11.4-12.53,17.98c-2.85-1.34-5.87-2.77-9.61-4.53c3.98-7.27,7.49-13.7,11.01-20.13c-0.47-0.33-0.94-0.67-1.41-1
		c-2.28,2.44-4.73,4.75-6.79,7.36c-2.19,2.77-4.01,5.84-6.53,9.58c-2.37-2.86-4.33-5.23-6.29-7.58c4.21-6.86,8.07-13.15,11.93-19.44
		c-0.52-0.38-1.04-0.75-1.55-1.12c-3.99,4.72-7.97,9.44-12.55,14.87c-4.74-13.12,8.86-19.35,9.78-31.47
		c-4.51,6.08-8.02,10.8-11.52,15.52c1.66-16.08,6.5-30.63,19.29-40.8c13.63-10.85,42.83-10.06,56.02,1.31
		C349.896,27.945,352.686,32.145,354.456,36.315z"/>
	<path style="fill:#C1272D;" d="M230.186,66.865c2.51,5.79,4.57,12.69,3.88,18.74c-1.22,10.61-4.59,20.98-7.3,31.39
		c-1.48,5.66-5.74,8.25-11.36,8.04c-9.33-0.35-18.78-0.33-27.95-1.85c-11.4-1.89-20-8.42-23.27-20.01
		c-5.61-19.9,12.47-35.39,26.95-31.73c1.71,0.43,3.5,0.55,5.94,0.93c2.07-3.13,3.56-5.59,5.25-7.91
		C210.156,53.675,224.886,54.675,230.186,66.865z"/>
	<path style="fill:#C1272D;" d="M233.786,8.295c1.65,10.96-10.41,30.49-21.04,33.41c-2.89,0.79-6.47,0.91-9.25-0.05
		c-10.87-3.75-17.32-17.09-14.03-27.98c2.95-9.74,8.59-11.57,16.72-5.39c0.84,0.63,1.57,1.41,2.77,2.49
		c4.18-3.48,7.43-6.98,11.37-9.28C226.596-2.165,232.716,1.195,233.786,8.295z"/>
	<path d="M192.676,171.175c3.54,17.29,9.5,34.31,8,52.32c-0.6,7.13-1.68,14.38-3.83,21.17c-3.1,9.77-10.65,12.46-19.76,7.64
		c-3.69-1.95-6.86-4.9-11.7-8.45c0.85,15.99,1.81,30.4,2.33,44.82c1.03,28.18,2.1,56.36,2.53,84.55c0.11,7.44-1.2,15.19-3.42,22.3
		c-3.33,10.63-11.23,17.55-21.88,20.95c-12.5,3.99-22.79,0.15-27.58-12.08c-3.77-9.62-6.8-20.09-7.26-30.32
		c-0.85-19.08,0.4-38.25,0.8-57.39c0.19-9.2,0.58-18.41-0.37-28.5c-7.39,2.93-9.93,8.1-12.19,13.31c-4.28,9.9-4.81,20.34-3.39,30.87
		c3.02,22.43,0.28,43.96-9.55,64.48c-4.02,8.4-8.7,16.37-19.08,17.31c-10.17,0.92-15.49-6.58-20.55-13.73
		c-6.64-9.38-10.53-20-10.41-31.44c0.32-30.37,0.47-60.77,2.21-91.07c0.93-16.13,5.04-32.07,7.7-48.09
		c0.29-1.75,0.46-3.51-0.58-5.88c-1.34,2.19-2.69,4.38-4.03,6.58c-3.75,6.17-7.12,12.61-11.33,18.45
		c-5.88,8.17-11.17,10.02-18.39,7.58c-7.41-2.5-11.04-7.96-10.28-18.14c0.88-11.87,2.14-23.78,4.39-35.45
		c3.77-19.56,10.28-38.27,18.58-56.48c8.65-18.99,23.91-26.15,43.34-26.86c10.8-0.39,21.62-0.07,33.86-0.07
		c-3.5-4.62-7.17-4-10.52-4.38c-24.54-2.78-39.63-16.18-44.48-40.4c-1.17-5.83-1.54-12.51,0.15-18.06
		c2.92-9.58,6.93-19.04,11.92-27.72c9.64-16.78,26.52-20.27,43.97-20.76c8.17-0.23,16.48,1.64,24.61,3.15
		c9.56,1.77,16.53,7.92,20.58,16.27c10.59,21.84,9.6,44.14-0.03,65.98c-5.43,12.32-15.49,19.65-30.9,22.04
		c11.56,2.53,21.31,3.84,30.51,6.84C170.616,130.335,187.436,145.605,192.676,171.175z M189.866,224.925
		c1.56-21.76-4.44-42.5-12.31-62.18c-7.71-19.23-25.1-28.37-44.75-32.31c-22.55-4.52-45.44-2.14-68.15-1.6
		c-8.05,0.19-16.87,2.24-22.85,8.73c-8.01,8.68-12.27,19.41-15.9,31.94c7.28-5.53,9.61-13.71,18.43-18.59
		c-7.08,15.25-19.05,24.81-25.86,40.46c4.64-2.99,7.05-4.55,9.46-6.11c-1.67,4.65-4.62,7.78-6.82,11.37
		c-2.58,4.2-4.51,8.8-6.63,13.28c-0.1,0.19,0.72,0.81,1.17,1.29c2.45-1.79,4.83-3.53,7.22-5.28c-9.02,12.44-15.68,24.79-8.6,40.48
		c8.17-3.05,8.57-3.06,12.55-10.14c5.68-10.06,10.82-20.44,16.56-30.46c1.24-2.18,4.05-3.46,6.14-5.15c1.64,2.2,3.86,4.18,4.76,6.64
		c1.07,2.91,1,6.24,1.47,9.73c1.98-0.93,3.49-1.64,6.1-2.87c-4.64,8.21-8.77,15.73-6.23,24.91c2.02-1.19,3.59-2.12,6.53-3.85
		c-4.42,11.38-13.63,19.68-10.88,32.79c3.31-3.96,6.07-7.26,8.82-10.56c-2.95,13.34-15.6,23.07-12.14,39.54
		c4.4-6.79,8.17-12.63,11.94-18.46c0.67,0.38,1.34,0.77,2.01,1.15c-3.23,6.24-6.52,12.46-9.7,18.73
		c-4.92,9.74-7.78,13.34-3.76,21.16c4.15-6.4,8.13-12.55,12.1-18.69c0.18,4.02-1.1,7.26-2.65,10.37
		c-3.05,6.15-6.34,12.18-9.37,18.34c-2.54,5.18-2.53,10.47-0.66,17.14c4.56-7.38,8.32-13.45,12.07-19.52
		c0.71,0.41,1.42,0.83,2.13,1.25c-4.29,8.22-8.21,16.67-13.03,24.58c-2.45,4.01-3.02,7.2-0.89,12.11c2.92-4.07,5.11-7.12,8.1-11.27
		c-0.32,10.56-12.45,17.33-5.53,28.58c2.05-2.43,3.67-4.36,5.3-6.3c-4.27,15.08-3.35,18.08,9.99,27.41
		c2.57-3.65,5.87-7.02,7.6-11.06c3.39-7.96,6.84-16.1,8.56-24.52c1.85-9.09,2.12-18.57,2.37-27.89c0.22-8.28-1.3-16.64-0.67-24.85
		c0.99-12.94,5.76-24.54,15.63-33.59c4.12-3.77,8.87-5.04,14.03-3.22c5.32,1.88,7.59,6.46,8.22,11.77c0.34,2.86,0.25,5.79,0.19,8.68
		c-0.47,20.59-1.34,41.18-1.33,61.76c0.01,12.99,1.3,26.02,6.27,38.26c3.58,8.81,8.89,10.68,17.23,6.44
		c7.72-3.91,12.34-10.67,12.89-18.91c0.88-13.24,0.39-26.58,0.49-39.87c0.31-40.88-2.22-81.6-6.28-122.26
		c-0.61-6.09-0.5-12.32-0.03-18.43c0.16-2,2.39-5.32,3.85-5.41c2.33-0.15,5.11,1.51,7.11,3.13c1.16,0.93,1.06,3.33,1.67,5.02
		c2.73,7.46,5.17,15.05,8.39,22.3c2.43,5.48,5.25,11.16,13.73,12.93C187.316,237.395,189.416,231.215,189.866,224.925z
		 M138.526,83.785c4.29-13.88,5.38-28.17,1.51-42.73c-3.75-14.08-12.99-21.55-26.53-23.56c-7.71-1.15-15.84-0.75-23.63,0.19
		c-16.33,1.96-25.06,12.92-30.22,27.51c-1.07,3.03-1.96,6.16-3.32,9.05c-6.06,12.92-1.13,23.93,5.22,35.98
		c4.04-4.63,7.19-8.24,10.34-11.85c0.44,0.3,0.88,0.59,1.32,0.89c-2.77,4.71-5.55,9.43-8.7,14.77c3.62,2.5,6.39,4.4,9.1,6.28
		c4.57-4.5,6.64-9.98,12.6-11.62c-2.94,4.23-5.89,8.46-10.1,14.51c3.91-1.01,6.13-0.97,7.4-2.05c1.57-1.33,2.2-3.7,3.51-5.4
		c1.01-1.32,2.45-2.32,3.69-3.45c0.35,0.3,0.7,0.61,1.05,0.92c-1.52,3.49-3.03,6.98-4.83,11.12c9.82,2.4,18.85,2.8,28.26,1.09
		C127.846,103.135,135.096,94.895,138.526,83.785z"/>
	<path style="fill:#0071BC;" d="M177.556,162.745c7.87,19.68,13.87,40.42,12.31,62.18c-0.45,6.29-2.55,12.47-3.94,18.92
		c-8.48-1.77-11.3-7.45-13.73-12.93c-3.22-7.25-5.66-14.84-8.39-22.3c-0.61-1.69-0.51-4.09-1.67-5.02c-2-1.62-4.78-3.28-7.11-3.13
		c-1.46,0.09-3.69,3.41-3.85,5.41c-0.47,6.11-0.58,12.34,0.03,18.43c4.06,40.66,6.59,81.38,6.28,122.26
		c-0.1,13.29,0.39,26.63-0.49,39.87c-0.55,8.24-5.17,15-12.89,18.91c-8.34,4.24-13.65,2.37-17.23-6.44
		c-4.97-12.24-6.26-25.27-6.27-38.26c-0.01-20.58,0.86-41.17,1.33-61.76c0.06-2.89,0.15-5.82-0.19-8.68
		c-0.63-5.31-2.9-9.89-8.22-11.77c-5.16-1.82-9.91-0.55-14.03,3.22c-9.87,9.05-14.64,20.65-15.63,33.59
		c-0.63,8.21,0.89,16.57,0.67,24.85c-0.25,9.32-0.52,18.8-2.37,27.89c-1.72,8.42-5.17,16.56-8.56,24.52
		c-1.73,4.04-5.03,7.41-7.6,11.06c-13.34-9.33-14.26-12.33-9.99-27.41c-1.63,1.94-3.25,3.87-5.3,6.3
		c-6.92-11.25,5.21-18.02,5.53-28.58c-2.99,4.15-5.18,7.2-8.1,11.27c-2.13-4.91-1.56-8.1,0.89-12.11
		c4.82-7.91,8.74-16.36,13.03-24.58c-0.71-0.42-1.42-0.84-2.13-1.25c-3.75,6.07-7.51,12.14-12.07,19.52
		c-1.87-6.67-1.88-11.96,0.66-17.14c3.03-6.16,6.32-12.19,9.37-18.34c1.55-3.11,2.83-6.35,2.65-10.37
		c-3.97,6.14-7.95,12.29-12.1,18.69c-4.02-7.82-1.16-11.42,3.76-21.16c3.18-6.27,6.47-12.49,9.7-18.73
		c-0.67-0.38-1.34-0.77-2.01-1.15c-3.77,5.83-7.54,11.67-11.94,18.46c-3.46-16.47,9.19-26.2,12.14-39.54
		c-2.75,3.3-5.51,6.6-8.82,10.56c-2.75-13.11,6.46-21.41,10.88-32.79c-2.94,1.73-4.51,2.66-6.53,3.85
		c-2.54-9.18,1.59-16.7,6.23-24.91c-2.61,1.23-4.12,1.94-6.1,2.87c-0.47-3.49-0.4-6.82-1.47-9.73c-0.9-2.46-3.12-4.44-4.76-6.64
		c-2.09,1.69-4.9,2.97-6.14,5.15c-5.74,10.02-10.88,20.4-16.56,30.46c-3.98,7.08-4.38,7.09-12.55,10.14
		c-7.08-15.69-0.42-28.04,8.6-40.48c-2.39,1.75-4.77,3.49-7.22,5.28c-0.45-0.48-1.27-1.1-1.17-1.29c2.12-4.48,4.05-9.08,6.63-13.28
		c2.2-3.59,5.15-6.72,6.82-11.37c-2.41,1.56-4.82,3.12-9.46,6.11c6.81-15.65,18.78-25.21,25.86-40.46
		c-8.82,4.88-11.15,13.06-18.43,18.59c3.63-12.53,7.89-23.26,15.9-31.94c5.98-6.49,14.8-8.54,22.85-8.73
		c22.71-0.54,45.6-2.92,68.15,1.6C152.456,134.375,169.846,143.515,177.556,162.745z"/>
	<path style="fill:#0071BC;" d="M140.036,41.055c3.87,14.56,2.78,28.85-1.51,42.73c-3.43,11.11-10.68,19.35-23.33,21.65
		c-9.41,1.71-18.44,1.31-28.26-1.09c1.8-4.14,3.31-7.63,4.83-11.12c-0.35-0.31-0.7-0.62-1.05-0.92c-1.24,1.13-2.68,2.13-3.69,3.45
		c-1.31,1.7-1.94,4.07-3.51,5.4c-1.27,1.08-3.49,1.04-7.4,2.05c4.21-6.05,7.16-10.28,10.1-14.51c-5.96,1.64-8.03,7.12-12.6,11.62
		c-2.71-1.88-5.48-3.78-9.1-6.28c3.15-5.34,5.93-10.06,8.7-14.77c-0.44-0.3-0.88-0.59-1.32-0.89c-3.15,3.61-6.3,7.22-10.34,11.85
		c-6.35-12.05-11.28-23.06-5.22-35.98c1.36-2.89,2.25-6.02,3.32-9.05c5.16-14.59,13.89-25.55,30.22-27.51
		c7.79-0.94,15.92-1.34,23.63-0.19C127.046,19.505,136.286,26.975,140.036,41.055z"/>
</g>
<g>
</g>
<g>
</g>
<g>
</g>
<g>
</g>
<g>
</g>
<g>
</g>
<g>
</g>
<g>
</g>
<g>
</g>
<g>
</g>
<g>
</g>
<g>
</g>
<g>
</g>
<g>
</g>
<g>
</g>
</svg>
