<?xml version="1.0" encoding="iso-8859-1"?>
<!-- Generator: Adobe Illustrator 18.0.0, SVG Export Plug-In . SVG Version: 6.00 Build 0)  -->
<!DOCTYPE svg PUBLIC "-//W3C//DTD SVG 1.1//EN" "http://www.w3.org/Graphics/SVG/1.1/DTD/svg11.dtd">
<svg version="1.1" id="Capa_1" xmlns="http://www.w3.org/2000/svg" xmlns:xlink="http://www.w3.org/1999/xlink" x="0px" y="0px"
	 viewBox="0 0 428.078 428.078" style="enable-background:new 0 0 428.078 428.078;" xml:space="preserve">
<g>
	<path d="M336.77,4.027c9.22,0.93,11.29,3.28,11.18,12.68c-0.45,37.19-1.14,74.38-1.4,111.57c-0.1,13.6,1.25,27.22,1.06,40.81
		c-0.27,20.23-1.37,40.45-2.01,60.68c-0.16,5.15,0.28,10.32,0.08,15.47c-0.99,26.48-2.09,52.95-3.17,79.42
		c-0.27,6.57-1.19,12.98,1.74,19.51c2.35,5.24-0.91,10.32-6.88,11.33c-5.73,0.98-11.64,0.97-17.48,1.13
		c-11.37,0.31-22.74,0.45-34.1,0.64c-6.63,0.11-13.26,0.16-19.89,0.3c-3.59,0.08-7.17,0.31-11.63,0.5
		c-0.28,4.37-0.69,7.95-0.71,11.53c-0.08,14.37-0.02,28.74-0.07,43.12c-0.03,11.48-7.07,17.17-18.33,14.85
		c-1.07-0.22-2.15-0.54-3.16-0.96c-22.37-9.46-44.84-18.49-65.21-32.23c-22.27-15.02-44.8-29.89-68.43-42.55
		c-10.55-5.65-13.13-11.56-14.12-22.61c-4.49-49.99-4.44-100.05-3.81-150.11c0.32-25.74,2.91-51.44,4.03-77.17
		c0.58-13.25,0.12-26.53,0.21-39.8c0.12-16.58,0.1-33.17,0.56-49.75c0.24-8.7,3.49-12.31,12.16-12.37
		c17.94-0.13,35.89,0.5,53.83,0.94c7.73,0.2,15.44,0.95,23.16,1.04c49.72,0.57,99.43,1.02,149.14,1.54
		C327.94,3.577,332.38,3.577,336.77,4.027z M328.1,342.817c7.29-109.29,6.63-218.46,7.25-329.03c-78.4,1.18-155.45-5.41-232.75-4.31
		c29.31,20.48,59.9,38.05,91.25,54.32c1.93,1,4.44,2.62,6.11,2.11c11.8-3.65,25.44,1.44,35.71-8.72c5.57,5.54,11.5,8.75,18.41,6.26
		c7.68-2.76,14.83-5.98,22.48,0.34c1.47,1.21,4.97-0.04,7.53-0.14c4.03-0.15,7.24,0.84,7.89,5.89c-9.51,2.87-18.69,5.11-25.76-3.85
		c-19.53,5.55-19.53,5.55-30.49-1.59c-7.93,2.8-14.86,5.24-23,8.11c9.95,4.64,19.02,8.58,27.8,13.1c3.04,1.56,6.1,4.09,7.86,6.97
		c4.23,6.94,4.16,7.64,11.59,4.29c7.95-3.59,15.95-1.73,23.91-1.56c2.31,0.04,4.57,2.42,6.85,3.73c-0.16,0.9-0.32,1.79-0.49,2.69
		c-14.01-2.36-27.37-0.06-40.56,4.47c0,3.9,0,8.14,0,13.56c5.92-3.26,10.91-6.02,17.01-9.38c4.45,9.51,11.2,6.49,18.85,5.33
		c6.64-1.01,13.95,2.07,20.89,3.64c0.78,0.18,1.12,2.29,2.61,5.61c-6.49-1.09-11.31-1.97-16.15-2.68c-2.44-0.36-5.27-1.28-7.34-0.46
		c-8.33,3.3-15.7,2.96-21.19-4.44c-5.28,3.13-9.66,5.71-13.29,7.86c0,9.14-0.34,17.61,0.1,26.03c0.43,8.48,4.3,10.15,11.42,5.39
		c2.44-1.63,4.56-3.76,7.04-5.31c3.24-2.02,6.83-1.94,8.54,1.71c3.65,7.82,9.22,7.05,15.63,4.46c2.04-0.82,4.21-1.5,6.37-1.78
		c5.78-0.74,8.36,1.93,8.49,8.53c-4.2,0-8.71-0.97-12.56,0.2c-9.27,2.83-17.39,2.6-23.19-4.75c-7.35,2.84-14.03,5.42-21.29,8.23
		c0.44,8.01,0.91,16.72,1.43,26.42c6.29-2.25,11.67-4.45,17.2-6.09c7.5-2.21,9.95,6.72,15.65,7.94c13.11-6.49,13.11-6.49,17.51-1.31
		c-12.5,11.37-17.36,11.34-31.81-0.5c-6.22,2.42-12.68,4.93-19.65,7.65c-0.57,9.27-2.39,18.55,3.26,26.61
		c6.95-2.92,12.68-7.3,18.36-7.24c8.02,0.08,16.01,3.43,23.99,5.49c0.34,0.09,0.39,1.29,0.83,2.85c-5.06,3.63-11.84,4.55-16.26,1.54
		c-7.6-5.18-12.86-2.33-18.97,1.65c-2.98,1.95-6.44,3.15-10.1,4.89c0.77,36.67,1.55,73.41,2.32,110.07
		C280.55,345.957,304.89,344.347,328.1,342.817z M242.4,340.737c0.07-44.61-0.19-89.23-0.7-133.84
		c-0.4-34.98-1.53-69.96-1.94-104.95c-0.07-6.2-2.52-9.29-7.78-11.69c-10.72-4.9-21.38-9.98-31.81-15.46
		c-30.98-16.27-62.12-32.26-90.54-52.94c-3.98-2.9-8.34-5.28-13.37-8.43c-1.72,18.28-3.59,34.74,0.45,51.62
		c1.65-0.56,2.01-1.64,2.66-2.5c0.58-0.75,1.48-1.26,2.24-1.87c-7.21,9.56-9.5,18.91-3.36,29.36c-0.02,0.02-0.04,0.05-0.06,0.07
		c-6.79,18.24-4.52,36.98-4.64,57.54c9.9-9.61,16.72-19.01,26.07-25.62c0.51,0.51,1.02,1.02,1.53,1.54
		c-8.94,9.63-17.87,19.25-27.3,29.41c0,2.84,0,6.72,0,11.68c7.54-4.91,11.24-12.96,19.19-15.57c-4.66,6.28-9.57,12.3-15.35,17.31
		c-4.77,4.12-5.9,8.72-5.76,14.59c0.65,27.61,0.66,55.25,1.66,82.85c0.79,22.05,2.89,44.05,3.91,66.1c0.28,5.9,2.52,9.06,7.47,12.11
		c26.02,16.04,51.7,32.64,77.64,48.83c17.82,11.13,37.48,18.23,58.65,26.89c0-4.67,0.09-7.77-0.02-10.85
		c-0.19-5.15-0.85-10.3-0.7-15.43C241.05,374.567,242.38,357.657,242.4,340.737z"/>
	<path style="fill:#B5778E;" d="M335.35,13.787c-0.62,110.57,0.04,219.74-7.25,329.03c-23.21,1.53-47.55,3.14-72.71,4.8
		c-0.77-36.66-1.55-73.4-2.32-110.07c3.66-1.74,7.12-2.94,10.1-4.89c6.11-3.98,11.37-6.83,18.97-1.65
		c4.42,3.01,11.2,2.09,16.26-1.54c-0.44-1.56-0.49-2.76-0.83-2.85c-7.98-2.06-15.97-5.41-23.99-5.49
		c-5.68-0.06-11.41,4.32-18.36,7.24c-5.65-8.06-3.83-17.34-3.26-26.61c6.97-2.72,13.43-5.23,19.65-7.65
		c14.45,11.84,19.31,11.87,31.81,0.5c-4.4-5.18-4.4-5.18-17.51,1.31c-5.7-1.22-8.15-10.15-15.65-7.94
		c-5.53,1.64-10.91,3.84-17.2,6.09c-0.52-9.7-0.99-18.41-1.43-26.42c7.26-2.81,13.94-5.39,21.29-8.23
		c5.8,7.35,13.92,7.58,23.19,4.75c3.85-1.17,8.36-0.2,12.56-0.2c-0.13-6.6-2.71-9.27-8.49-8.53c-2.16,0.28-4.33,0.96-6.37,1.78
		c-6.41,2.59-11.98,3.36-15.63-4.46c-1.71-3.65-5.3-3.73-8.54-1.71c-2.48,1.55-4.6,3.68-7.04,5.31c-7.12,4.76-10.99,3.09-11.42-5.39
		c-0.44-8.42-0.1-16.89-0.1-26.03c3.63-2.15,8.01-4.73,13.29-7.86c5.49,7.4,12.86,7.74,21.19,4.44c2.07-0.82,4.9,0.1,7.34,0.46
		c4.84,0.71,9.66,1.59,16.15,2.68c-1.49-3.32-1.83-5.43-2.61-5.61c-6.94-1.57-14.25-4.65-20.89-3.64
		c-7.65,1.16-14.4,4.18-18.85-5.33c-6.1,3.36-11.09,6.12-17.01,9.38c0-5.42,0-9.66,0-13.56c13.19-4.53,26.55-6.83,40.56-4.47
		c0.17-0.9,0.33-1.79,0.49-2.69c-2.28-1.31-4.54-3.69-6.85-3.73c-7.96-0.17-15.96-2.03-23.91,1.56c-7.43,3.35-7.36,2.65-11.59-4.29
		c-1.76-2.88-4.82-5.41-7.86-6.97c-8.78-4.52-17.85-8.46-27.8-13.1c8.14-2.87,15.07-5.31,23-8.11c10.96,7.14,10.96,7.14,30.49,1.59
		c7.07,8.96,16.25,6.72,25.76,3.85c-0.65-5.05-3.86-6.04-7.89-5.89c-2.56,0.1-6.06,1.35-7.53,0.14c-7.65-6.32-14.8-3.1-22.48-0.34
		c-6.91,2.49-12.84-0.72-18.41-6.26c-10.27,10.16-23.91,5.07-35.71,8.72c-1.67,0.51-4.18-1.11-6.11-2.11
		c-31.35-16.27-61.94-33.84-91.25-54.32C179.9,8.377,256.95,14.967,335.35,13.787z M305,280.727c0.7-4.28-0.3-8.76-4.79-9.79
		c-2.34-0.53-5.52,2.07-8.13,3.58c-1.13,0.65-1.8,2.09-2.66,3.15c-2.7-1.11-4.98-2.56-7.44-2.95c-6.92-1.11-13.06,5.49-11.67,12.2
		c1.91,9.2,16.94,15.51,24.72,10.24C300.79,293.247,303.89,287.487,305,280.727z"/>
	<path d="M300.21,270.937c4.49,1.03,5.49,5.51,4.79,9.79c-1.11,6.76-4.21,12.52-9.97,16.43c-7.78,5.27-22.81-1.04-24.72-10.24
		c-1.39-6.71,4.75-13.31,11.67-12.2c2.46,0.39,4.74,1.84,7.44,2.95c0.86-1.06,1.53-2.5,2.66-3.15
		C294.69,273.007,297.87,270.407,300.21,270.937z"/>
	<path style="fill:#FFD6E5;" d="M241.7,206.897c0.51,44.61,0.77,89.23,0.7,133.84c-0.02,16.92-1.35,33.83-1.86,50.75
		c-0.15,5.13,0.51,10.28,0.7,15.43c0.11,3.08,0.02,6.18,0.02,10.85c-21.17-8.66-40.83-15.76-58.65-26.89
		c-25.94-16.19-51.62-32.79-77.64-48.83c-4.95-3.05-7.19-6.21-7.47-12.11c-1.02-22.05-3.12-44.05-3.91-66.1
		c-1-27.6-1.01-55.24-1.66-82.85c-0.14-5.87,0.99-10.47,5.76-14.59c5.78-5.01,10.69-11.03,15.35-17.31
		c-7.95,2.61-11.65,10.66-19.19,15.57c0-4.96,0-8.84,0-11.68c9.43-10.16,18.36-19.78,27.3-29.41c-0.51-0.52-1.02-1.03-1.53-1.54
		c-9.35,6.61-16.17,16.01-26.07,25.62c0.12-20.56-2.15-39.3,4.64-57.54l0.21,0.19c0.02-0.19,0.05-0.38,0.08-0.56
		c2.69-3.41,5.38-6.82,8.07-10.23c0.22-0.11,0.44-0.22,0.66-0.33c0.27-0.39,0.54-0.77,0.81-1.16c2.97-2.71,5.96-5.43,8.93-8.14
		c-0.67-0.59-1.33-1.17-2-1.76c-2.31,3.3-4.62,6.6-6.93,9.9c-0.35,0.32-0.69,0.63-1.04,0.95c-0.14,0.18-0.28,0.36-0.43,0.54
		c-4.22,2.2-7.31,5.29-8.07,10.23c-0.08,0.1-0.16,0.2-0.23,0.3c-6.14-10.45-3.85-19.8,3.36-29.36c-0.76,0.61-1.66,1.12-2.24,1.87
		c-0.65,0.86-1.01,1.94-2.66,2.5c-4.04-16.88-2.17-33.34-0.45-51.62c5.03,3.15,9.39,5.53,13.37,8.43
		c28.42,20.68,59.56,36.67,90.54,52.94c10.43,5.48,21.09,10.56,31.81,15.46c5.26,2.4,7.71,5.49,7.78,11.69
		C240.17,136.937,241.3,171.917,241.7,206.897z M195.91,205.937c3.56-8.5,1.32-15.7-5.49-20.4c-6.17-4.26-13.68-3.71-20.21,1.86
		c-1.91,1.63-3.15,4.04-4.34,5.62c-5.32-4.65-8.81-8.59-13.09-11.24c-6.12-3.79-13.02-5.4-19.78-1.3c-6.74,4.09-6.92,10.81-6,17.58
		c2.81,20.54,14.5,34.71,32.15,44.66c4.81,2.71,8.35,1.41,11.57-2.36c5.73-6.68,11.71-13.17,17.02-20.16
		C191.04,215.867,193.81,210.967,195.91,205.937z M188.94,290.187c-2.09-2.31-3.75-5.58-6.35-6.74c-6.61-2.94-13.6-5.62-20.88-1.53
		h-0.01c-1.7-7.37-7.07-10.41-13.97-11.59c-2.89-0.49-5.81-1.19-8.71-1.17c-3.42,0.03-8.38-1.6-9.21,3.22
		c-0.35,2.01,3.48,4.73,5.34,7.18c0.41,0.54,0.51,1.32,0.92,2.43c-0.32,1.39-0.92,3.14-1.09,4.94c-1.07,10.92-3.14,21.89-2.77,32.77
		c0.56,16.39,14.41,23.36,29.07,15.82c10.19-5.25,14.17-14.37,16.17-24.83c1.02-5.31,1.91-10.65,2.44-13.62
		C184.18,293.807,186.56,291.997,188.94,290.187z M169.76,104.617c5.68-1.69,9.81,6.9,16.01,1.28c-1.82-8.83-9.57-10.31-16.31-12.11
		c-5.33-1.43-11.42-5.48-17.51,1.06c3.72,2.68,6.84,4.92,9.78,7.03c-0.73,10.59-1.42,20.68-2.09,30.47
		c-6.64,1.09-13.2-5.14-17.92,2.4c12.28,11.67,26.97,17.2,35.79,13.55c0.96-6.2-5.78-6.86-7.75-10.45
		C169.76,126.507,169.76,115.547,169.76,104.617z M100.66,108.107c7.5-8.12,15-16.23,22.5-24.35c-9.58,6.19-17.94,13.51-24.16,22.81
		C99.56,107.087,100.11,107.597,100.66,108.107z M98.52,259.677c6.62-7.05,13.23-14.11,19.84-21.16c-0.63-0.63-1.27-1.26-1.91-1.9
		c-7.38,6.4-15.3,12.32-19.74,21.37C97.31,258.547,97.92,259.117,98.52,259.677z M102.58,195.897c2.95-3.49,5.91-6.98,8.86-10.47
		C106.26,187.017,102.53,190.077,102.58,195.897z M97,185.627c4.77-5.21,9.54-10.43,14.31-15.64c-6.73,3.36-12.47,7.82-15.96,14.19
		C95.9,184.657,96.45,185.147,97,185.627z M102.99,234.647c2.65-3.07,5.31-6.14,7.96-9.21c-0.64-0.5-1.28-1-1.92-1.5
		c-2.47,3.19-4.94,6.39-7.41,9.58C102.08,233.897,102.53,234.267,102.99,234.647z M98.08,221.247c6.99-7.74,13.05-14.44,19.11-21.14
		C105.59,206.687,99.89,213.337,98.08,221.247z M116.01,109.737c-11.46,7.33-14.81,11.78-16.47,19.74
		C105.3,122.577,110.66,116.157,116.01,109.737z"/>
	<path style="fill:#C1272D;" d="M190.42,185.537c6.81,4.7,9.05,11.9,5.49,20.4c-2.1,5.03-4.87,9.93-8.17,14.26
		c-5.31,6.99-11.29,13.48-17.02,20.16c-3.22,3.77-6.76,5.07-11.57,2.36c-17.65-9.95-29.34-24.12-32.15-44.66
		c-0.92-6.77-0.74-13.49,6-17.58c6.76-4.1,13.66-2.49,19.78,1.3c4.28,2.65,7.77,6.59,13.09,11.24c1.19-1.58,2.43-3.99,4.34-5.62
		C176.74,181.827,184.25,181.277,190.42,185.537z"/>
	<path style="fill:#C1272D;" d="M182.59,283.447c2.6,1.16,4.26,4.43,6.35,6.74c-2.38,1.81-4.76,3.62-9.05,6.88
		c-0.53,2.97-1.42,8.31-2.44,13.62c-2,10.46-5.98,19.58-16.17,24.83c-14.66,7.54-28.51,0.57-29.07-15.82
		c-0.37-10.88,1.7-21.85,2.77-32.77c0.17-1.8,0.77-3.55,1.09-4.94c-0.41-1.11-0.51-1.89-0.92-2.43c-1.86-2.45-5.69-5.17-5.34-7.18
		c0.83-4.82,5.79-3.19,9.21-3.22c2.9-0.02,5.82,0.68,8.71,1.17c6.9,1.18,12.27,4.22,13.97,11.59c-0.26,0.03-0.51,0.06-0.73,0.11
		c-5.33-0.03-10.69-0.03-16.98-0.03c-0.38,12.41-1.04,23.36-0.87,34.31c0.06,4.09,0.32,9.51,5.81,10.66
		c5.28,1.12,9.07-2.32,12.1-6.19c1.32-1.68,2.35-3.84,2.78-5.93c1.59-7.83,2.87-15.71,4.22-23.28c-3.58-2.2-6.45-3.31-8.37-5.33
		c-1.74-1.82-1.22-3.69,1.31-4.21c0.25,0,0.51,0,0.76,0c-0.01-0.04-0.02-0.07-0.03-0.11h0.01
		C168.99,277.827,175.98,280.507,182.59,283.447z"/>
	<path style="fill:#C1272D;" d="M185.77,105.897c-6.2,5.62-10.33-2.97-16.01-1.28c0,10.93,0,21.89,0,33.23
		c1.97,3.59,8.71,4.25,7.75,10.45c-8.82,3.65-23.51-1.88-35.79-13.55c4.72-7.54,11.28-1.31,17.92-2.4
		c0.67-9.79,1.36-19.88,2.09-30.47c-2.94-2.11-6.06-4.35-9.78-7.03c6.09-6.54,12.18-2.49,17.51-1.06
		C176.2,95.587,183.95,97.067,185.77,105.897z"/>
	<path style="fill:#FFD6E5;" d="M168.03,291.567c-1.35,7.57-2.63,15.45-4.22,23.28c-0.43,2.09-1.46,4.25-2.78,5.93
		c-3.03,3.87-6.82,7.31-12.1,6.19c-5.49-1.15-5.75-6.57-5.81-10.66c-0.17-10.95,0.49-21.9,0.87-34.31c6.29,0,11.65,0,16.98,0.03
		c-2.53,0.52-3.05,2.39-1.31,4.21C161.58,288.257,164.45,289.367,168.03,291.567z"/>
	<path d="M161.7,281.917c0.01,0.04,0.02,0.07,0.03,0.11c-0.25,0-0.51,0-0.76,0C161.19,281.977,161.44,281.947,161.7,281.917z"/>
	<path d="M123.16,83.757c-7.5,8.12-15,16.23-22.5,24.35c-0.55-0.51-1.1-1.02-1.66-1.54C105.22,97.267,113.58,89.947,123.16,83.757z"
		/>
	<path d="M118.36,238.517c-6.61,7.05-13.22,14.11-19.84,21.16c-0.6-0.56-1.21-1.13-1.81-1.69c4.44-9.05,12.36-14.97,19.74-21.37
		C117.09,237.257,117.73,237.887,118.36,238.517z"/>
	<path d="M116.95,69.877c-2.97,2.71-5.96,5.43-8.93,8.14c2.31-3.3,4.62-6.6,6.93-9.9C115.62,68.707,116.28,69.287,116.95,69.877z"/>
	<path d="M111.44,185.427c-2.95,3.49-5.91,6.98-8.86,10.47C102.53,190.077,106.26,187.017,111.44,185.427z"/>
	<path d="M111.31,169.987c-4.77,5.21-9.54,10.43-14.31,15.64c-0.55-0.48-1.1-0.97-1.65-1.45
		C98.84,177.807,104.58,173.347,111.31,169.987z"/>
	<path d="M110.95,225.437c-2.65,3.07-5.31,6.14-7.96,9.21c-0.46-0.38-0.91-0.75-1.37-1.13c2.47-3.19,4.94-6.39,7.41-9.58
		C109.67,224.437,110.31,224.937,110.95,225.437z"/>
	<path d="M117.19,200.107c-6.06,6.7-12.12,13.4-19.11,21.14C99.89,213.337,105.59,206.687,117.19,200.107z"/>
	<path d="M108.02,78.017c-0.27,0.39-0.54,0.77-0.81,1.16l-0.23-0.21C107.33,78.647,107.67,78.337,108.02,78.017z"/>
	<path d="M107.21,79.177c-0.22,0.11-0.44,0.22-0.66,0.33c0.15-0.18,0.29-0.36,0.43-0.54L107.21,79.177z"/>
	<path d="M106.55,79.507c-2.69,3.41-5.38,6.82-8.07,10.23C99.24,84.797,102.33,81.707,106.55,79.507z"/>
	<path d="M99.54,129.477c1.66-7.96,5.01-12.41,16.47-19.74C110.66,116.157,105.3,122.577,99.54,129.477z"/>
	<path d="M98.48,89.737c-0.03,0.18-0.06,0.37-0.08,0.56c-0.05-0.09-0.1-0.17-0.15-0.26C98.32,89.937,98.4,89.837,98.48,89.737z"/>
	<path d="M98.25,90.037c0.05,0.09,0.1,0.17,0.15,0.26l-0.21-0.19C98.21,90.087,98.23,90.057,98.25,90.037z"/>
</g>
<g>
</g>
<g>
</g>
<g>
</g>
<g>
</g>
<g>
</g>
<g>
</g>
<g>
</g>
<g>
</g>
<g>
</g>
<g>
</g>
<g>
</g>
<g>
</g>
<g>
</g>
<g>
</g>
<g>
</g>
</svg>
