<?xml version="1.0" encoding="iso-8859-1"?>
<!-- Generator: Adobe Illustrator 18.0.0, SVG Export Plug-In . SVG Version: 6.00 Build 0)  -->
<!DOCTYPE svg PUBLIC "-//W3C//DTD SVG 1.1//EN" "http://www.w3.org/Graphics/SVG/1.1/DTD/svg11.dtd">
<svg version="1.1" id="Capa_1" xmlns="http://www.w3.org/2000/svg" xmlns:xlink="http://www.w3.org/1999/xlink" x="0px" y="0px"
	 viewBox="0 0 446.137 446.137" style="enable-background:new 0 0 446.137 446.137;" xml:space="preserve">
<g>
	<path d="M436.617,94.839c17.07,49.29,10.48,96.21-14.14,141.07c-20.95,38.17-47.15,72.75-74.83,106.23
		c-4.84,5.85-9.53,11.84-13.85,18.07c-12.2,17.61-26.08,33.72-41.77,48.28c-0.52,0.49-1.63,0.66-1.77,1.17
		c-3.38,11.81-12.7,9.06-20.24,7.23c-21.74-5.28-43.6-10.51-64.74-17.72c-18.04-6.16-35.64-14.11-52.55-22.95
		c-23.35-12.22-46.26-25.39-68.63-39.33c-25.19-15.69-45.13-37.1-61.46-61.84c-12.24-18.55-17-39.56-20.66-61.09
		c-5.1-29.99-0.27-58.2,13.74-84.98c5.59-10.69,13.34-19.68,22.5-27.55c23.67-20.33,49.93-35.62,80.63-42.7
		c16.49-3.8,33.18-4.35,49.37-0.07c17.71,4.68,34.91,11.27,53.29,17.35c22.96-25.67,54.91-37.85,88.68-45.59
		c31-7.1,60.87-0.31,87.83,15C416.867,56.119,429.337,73.819,436.617,94.839z M431.987,147.049c0.37-21.97-5.44-42.99-15-62.62
		c-5.74-11.77-14.68-22.13-26-28.55c-18.41-10.45-38.89-17.29-60.12-15.47c-37.91,3.25-72.44,16.36-100.88,42.64
		c-4.76,4.4-8.56,4.89-14.41,2.56c-12.74-5.06-25.72-9.58-38.8-13.67c-22.46-7.03-44.79-6.08-67.04,1.64
		c-21.81,7.56-41.05,19.25-58.86,33.81c-14.49,11.83-24.4,26.53-30.38,43.99c-5.43,15.87-7.79,32.31-6.71,49.04
		c0.48,7.4,2.46,14.71,3.76,22.06c8.5-15.57,14.88-31.14,25.22-44.69c-0.22,2.84-1.08,5.39-2.16,7.85
		c-5.95,13.56-12.26,26.97-17.85,40.68c-3.98,9.76-1.95,18.1,5.26,27.08c6.7-25.77,16.13-45.33,24.32-49.69
		c-7.47,19.79-14.8,39.2-22.35,59.22c5.56,7.02,10.82,13.68,16.06,20.33c-0.01,0.01-0.02,0.01-0.03,0.02c0,0,0.01,0.01,0.02,0.02
		c19.26,27.29,46.41,44.62,75.47,60.6c3.6-15.76,7.03-30.78,10.46-45.81c0.91,0.18,1.83,0.35,2.74,0.53
		c0.59,16.45-6.84,31.94-7.57,48.72c3.65,1.77,7.12,3.45,10.95,5.29c1.88-7.61,3.5-14.53,5.32-21.41c4.06-15.28,4.1-15.27,9.8-20.35
		c-3.59,15.7-6.85,29.96-10.21,44.65c5.93,3.3,11.17,6.2,17.23,9.57c2.35-14.95,5.53-28.46,10.95-41.35
		c1.42,14.82-5.21,28.13-7.4,43.42c4.53,1.47,9.17,2.98,13.8,4.49c0-0.01,0.01-0.03,0.01-0.04c7.58,3.91,14.81,9.01,22.84,11.43
		c26.17,7.88,52.63,14.76,77.99,21.75c4.37-5.14,7.75-9.3,11.32-13.3c6.02-6.74,12.66-12.98,18.16-20.11
		c24.48-31.77,49.18-63.4,72.7-95.88c12.25-16.91,22.97-35.06,33.02-53.4C426.327,198.899,431.547,173.319,431.987,147.049z"/>
	<path style="fill:#C1272D;" d="M177.347,371.479l0.23,0.17c-4.63-1.51-9.27-3.02-13.8-4.49c2.19-15.29,8.82-28.6,7.4-43.42
		c-5.42,12.89-8.6,26.4-10.95,41.35c-6.06-3.37-11.3-6.27-17.23-9.57c3.36-14.69,6.62-28.95,10.21-44.65
		c-5.7,5.08-5.74,5.07-9.8,20.35c-1.82,6.88-3.44,13.8-5.32,21.41c-3.83-1.84-7.3-3.52-10.95-5.29c0.73-16.78,8.16-32.27,7.57-48.72
		c-0.91-0.18-1.83-0.35-2.74-0.53c-3.43,15.03-6.86,30.05-10.46,45.81c-29.06-15.98-56.21-33.31-75.47-60.6
		c0.04,0.04,0.16,0.17,0.23,0.24c0.02,0.03,0.04,0.05,0.04,0.05c0-0.16,0-0.31-0.01-0.47c1.33-0.75,3.25-1.29,3.6-2.35
		c4.82-14.68,9.42-29.45,14.02-44.2c1.32-4.24,2.47-8.54,4.29-14.89c-2.68,2.35-3.87,2.89-4.21,3.76
		c-5.94,15.07-12.05,30.08-17.42,45.35c-1.3,3.68-0.32,8.17-0.28,12.33c-0.09,0.05-0.17,0.09-0.25,0.14
		c-5.24-6.65-10.5-13.31-16.06-20.33c7.55-20.02,14.88-39.43,22.35-59.22c-8.19,4.36-17.62,23.92-24.32,49.69
		c-7.21-8.98-9.24-17.32-5.26-27.08c5.59-13.71,11.9-27.12,17.85-40.68c1.08-2.46,1.94-5.01,2.16-7.85
		c-10.34,13.55-16.72,29.12-25.22,44.69c-1.3-7.35-3.28-14.66-3.76-22.06c-1.08-16.73,1.28-33.17,6.71-49.04
		c5.98-17.46,15.89-32.16,30.38-43.99c17.81-14.56,37.05-26.25,58.86-33.81c22.25-7.72,44.58-8.67,67.04-1.64
		c13.08,4.09,26.06,8.61,38.8,13.67c5.85,2.33,9.65,1.84,14.41-2.56c28.44-26.28,62.97-39.39,100.88-42.64
		c21.23-1.82,41.71,5.02,60.12,15.47c11.32,6.42,20.26,16.78,26,28.55c9.56,19.63,15.37,40.65,15,62.62
		c-0.44,26.27-5.66,51.85-18.37,75.05c-10.05,18.34-20.77,36.49-33.02,53.4c-23.52,32.48-48.22,64.11-72.7,95.88
		c-5.5,7.13-12.14,13.37-18.16,20.11c-3.57,4-6.95,8.16-11.32,13.3c-25.36-6.99-51.82-13.87-77.99-21.75
		c-8.03-2.42-15.26-7.52-22.84-11.43c0.02-0.08,0.04-0.16,0.06-0.24c1.58-0.52,3.85-0.8,4.22-1.77c3.58-9.67,6.96-19.44,6.66-30.05
		c-6.03,9.83-8.09,20.94-10.88,31.82C177.537,371.409,177.447,371.439,177.347,371.479z M383.187,165.069
		c7.28-21.47-6.64-44.54-30.34-43.53c-10-0.02-18.91,1.64-26.31,9.88c-6.68,7.45-14.64,13.97-22.81,19.83
		c-19.81,14.19-37.3,30.93-53.66,48.75c-12.88,14.02-22.24,30.22-22.12,50.35c0.04,6.87,2.19,12.69,6.42,17.95
		c13.43,16.67,34.37,19.8,51.96,7.39c5.59-3.94,10.96-8.34,15.81-13.15c18.7-18.58,37.39-37.19,55.62-56.24
		C369.097,194.459,377.917,180.619,383.187,165.069z M204.407,376.439c-0.23-3.85-0.46-7.69-0.69-11.54
		c-0.92,0.05-1.85,0.09-2.77,0.14C200.787,368.929,199.287,372.879,204.407,376.439z M105.977,329.489
		c4.15-17.27,10.72-34.09,8.85-52.26C109.067,289.399,103.697,319.509,105.977,329.489z M85.767,316.849
		c4.86-20.21,9.35-38.86,13.84-57.52C88.187,276.459,81.377,306.459,85.767,316.849z M66.387,302.069
		c6.22-20.45,11.71-38.49,17.19-56.52c-8.47,8.67-19.01,37.17-19.59,48.12C63.877,295.709,65.117,297.809,66.387,302.069z"/>
	<path d="M352.847,121.539c23.7-1.01,37.62,22.06,30.34,43.53c-5.27,15.55-14.09,29.39-25.43,41.23
		c-18.23,19.05-36.92,37.66-55.62,56.24c-4.85,4.81-10.22,9.21-15.81,13.15c-17.59,12.41-38.53,9.28-51.96-7.39
		c-4.23-5.26-6.38-11.08-6.42-17.95c-0.12-20.13,9.24-36.33,22.12-50.35c16.36-17.82,33.85-34.56,53.66-48.75
		c8.17-5.86,16.13-12.38,22.81-19.83C333.937,123.179,342.847,121.519,352.847,121.539z M374.937,164.229
		c6.48-15-3.68-37.65-23.95-35.23c-7.15-0.89-13.35,1.76-19.14,6.93c-10.7,9.56-22.26,18.18-32.79,27.91
		c-14.57,13.46-29.02,27.12-42.59,41.57c-10.75,11.44-18.29,25.06-19.71,41.25c-0.51,5.87,0.12,11.38,3.74,16.47
		c9.54,13.39,26.55,16.8,39.81,6.43c10.76-8.41,20.49-18.18,30.37-27.67c11.43-10.99,22.16-22.72,33.85-33.42
		C358.157,195.989,367.717,180.939,374.937,164.229z"/>
	<path style="fill:#C69C6D;" d="M350.987,128.999c20.27-2.42,30.43,20.23,23.95,35.23c-7.22,16.71-16.78,31.76-30.41,44.24
		c-11.69,10.7-22.42,22.43-33.85,33.42c-9.88,9.49-19.61,19.26-30.37,27.67c-13.26,10.37-30.27,6.96-39.81-6.43
		c-3.62-5.09-4.25-10.6-3.74-16.47c1.42-16.19,8.96-29.81,19.71-41.25c13.57-14.45,28.02-28.11,42.59-41.57
		c10.53-9.73,22.09-18.35,32.79-27.91C337.637,130.759,343.837,128.109,350.987,128.999z M303.557,223.359
		c11.03,0.07,25.07-13.08,24.68-23.1c-0.42-10.44-11.64-23.07-20.72-23.33c-11.67-0.33-25.32,12.39-25.12,23.41
		C282.607,212.839,292.217,223.289,303.557,223.359z"/>
	<path d="M328.237,200.259c0.39,10.02-13.65,23.17-24.68,23.1c-11.34-0.07-20.95-10.52-21.16-23.02
		c-0.2-11.02,13.45-23.74,25.12-23.41C316.597,177.189,327.817,189.819,328.237,200.259z M304.157,218.039
		c8.12-0.07,18.49-10.41,18.22-18.18c-0.27-8.02-8.33-17.4-14.94-17.39c-9.04,0.02-20.03,9.76-19.96,17.7
		C287.557,209.599,295.507,218.119,304.157,218.039z"/>
	<path style="fill:#A17442;" d="M322.377,199.859c0.27,7.77-10.1,18.11-18.22,18.18c-8.65,0.08-16.6-8.44-16.68-17.87
		c-0.07-7.94,10.92-17.68,19.96-17.7C314.047,182.459,322.107,191.839,322.377,199.859z"/>
	<path d="M203.717,364.899c0.23,3.85,0.46,7.69,0.69,11.54c-5.12-3.56-3.62-7.51-3.46-11.4
		C201.867,364.989,202.797,364.949,203.717,364.899z"/>
	<path d="M188.527,339.549c0.3,10.61-3.08,20.38-6.66,30.05c-0.37,0.97-2.64,1.25-4.22,1.77
		C180.437,360.489,182.497,349.379,188.527,339.549z"/>
	<path d="M177.647,371.369c-0.02,0.08-0.04,0.16-0.06,0.24c-0.08-0.05-0.16-0.09-0.24-0.13
		C177.447,371.439,177.537,371.409,177.647,371.369z"/>
	<path d="M177.347,371.479c0.08,0.04,0.16,0.08,0.24,0.13c0,0.01-0.01,0.03-0.01,0.04L177.347,371.479z"/>
	<path d="M114.827,277.229c1.87,18.17-4.7,34.99-8.85,52.26C103.697,319.509,109.067,289.399,114.827,277.229z"/>
	<path d="M99.607,259.329c-4.49,18.66-8.98,37.31-13.84,57.52C81.377,306.459,88.187,276.459,99.607,259.329z"/>
	<path d="M83.577,245.549c-5.48,18.03-10.97,36.07-17.19,56.52c-1.27-4.26-2.51-6.36-2.4-8.4
		C64.567,282.719,75.107,254.219,83.577,245.549z"/>
	<path d="M68.207,221.679c-1.82,6.35-2.97,10.65-4.29,14.89c-4.6,14.75-9.2,29.52-14.02,44.2c-0.35,1.06-2.27,1.6-3.6,2.35
		c-0.04-4.16-1.02-8.65,0.28-12.33c5.37-15.27,11.48-30.28,17.42-45.35C64.337,224.569,65.527,224.029,68.207,221.679z"/>
	<path d="M46.297,283.119c0.01,0.16,0.01,0.31,0.01,0.47c0,0-0.02-0.02-0.04-0.05c-0.07-0.09-0.15-0.19-0.22-0.28
		C46.127,283.209,46.207,283.169,46.297,283.119z"/>
	<path d="M46.047,283.259c0.07,0.09,0.15,0.19,0.22,0.28c-0.07-0.07-0.19-0.2-0.23-0.24c-0.01-0.01-0.02-0.02-0.02-0.02
		C46.027,283.269,46.037,283.269,46.047,283.259z"/>
</g>
<g>
</g>
<g>
</g>
<g>
</g>
<g>
</g>
<g>
</g>
<g>
</g>
<g>
</g>
<g>
</g>
<g>
</g>
<g>
</g>
<g>
</g>
<g>
</g>
<g>
</g>
<g>
</g>
<g>
</g>
</svg>
