<?xml version="1.0" encoding="iso-8859-1"?>
<!-- Generator: Adobe Illustrator 18.0.0, SVG Export Plug-In . SVG Version: 6.00 Build 0)  -->
<!DOCTYPE svg PUBLIC "-//W3C//DTD SVG 1.1//EN" "http://www.w3.org/Graphics/SVG/1.1/DTD/svg11.dtd">
<svg version="1.1" id="Capa_1" xmlns="http://www.w3.org/2000/svg" xmlns:xlink="http://www.w3.org/1999/xlink" x="0px" y="0px"
	 viewBox="0 0 458.096 458.096" style="enable-background:new 0 0 458.096 458.096;" xml:space="preserve">
<g>
	<path d="M421.177,222.508c1.38,29.86-8.25,56.48-24.53,81.04c-4.47,6.76-9.32,13.29-13.42,20.26c-6.9,11.74-9.37,24.21-7.7,38.1
		c1.95,16.14,4.55,31.99,8.97,47.64c2.63,9.34,2.06,18.89-1.39,28.23c-4.81,12.99-14.61,19.03-27.71,20.21
		c-8.18,0.74-15.11-2.35-20.27-9.04c-8.01-10.38-10.72-22.45-11.19-35.17c-0.37-9.94-0.37-19.89-0.61-29.84
		c-0.12-5.22-1.51-9.96-6.46-14.98c-2.35,4.57-4.61,8.19-6.16,12.1c-2.71,6.84-4.52,14.06-7.57,20.72
		c-2.42,5.28-5.44,10.62-9.41,14.78c-9.96,10.46-24.3,8.88-31.67-3.61c-2.87-4.86-4.47-10.91-5.05-16.59
		c-0.77-7.64-0.01-15.45,0.14-23.18c0.06-3.31,0.44-6.63,0.32-9.93c-0.53-14.73-7.14-20.98-21.64-19.85
		c-7.31,0.57-14.52,2.8-21.82,3.11c-18.34,0.78-36.74,1.7-55.06,0.97c-12.36-0.49-22.17-7.77-28.89-18.2
		c-3.01-4.66-7.11-6.61-11.82-9c-15.69-7.98-32.41-15.03-45.93-25.92c-20.6-16.58-29.77-41.05-34.05-66.47
		c-3.99-23.67,0.41-46.84,9.96-68.95c14.72-34.05,41.4-50.46,77.64-52.55c22.29-1.29,44.17,0.63,64.86,10.01
		c0.99,0.45,2.07,0.78,3.14,0.98c0.68,0.12,1.43-0.1,2.78-0.24c0.88-8.89,1.73-17.9,2.67-26.91c0.27-2.56,0.65-5.12,1.21-7.63
		c9.65-43.62,40.01-69.88,83.64-80.6c50.72-12.45,103.74,35.54,106.06,81.23c0.54,10.65,1.39,21.28,2.33,31.9
		c0.22,2.42,0.69,5.43,2.22,7.03c16.33,17.02,20.23,38.88,23.48,60.77C420.177,195.988,420.567,209.298,421.177,222.508z
		 M408.187,236.258c2.01-25.18-0.59-49.98-6.57-74.35c-2.25-9.18-6.03-18.16-10.33-26.61c-2.91-5.71-7.25-12.07-15.08-11.08
		c-7.82,1-10.98,7.83-13.98,14.21c-0.62,1.32-1.08,2.8-1.22,4.24c-0.74,7.65-1.7,15.31-1.94,22.99c-0.3,9.57,0.26,19.16,0.02,28.74
		c-0.22,8.92-2.01,17.55-6.81,25.29c-9.51,15.34-25.78,16.78-37.94,3.45c-6.81-7.46-8.73-16.77-10.48-26.25
		c-1.46-7.95-2.95-15.95-5.25-23.68c-2.97-9.98-8.25-11.19-16.2-4.36c-1.12,0.96-2.13,2.04-3.14,3.12
		c-13.16,14.08-17.32,31.15-16.54,49.86c0.46,11.04,1.51,22.09,1.17,33.1c-0.49,15.86-12.06,28.71-26.54,30.94
		c-5.7,0.88-10.3,0.22-14.89-4.46c-4.21-4.3-9.98-7.7-15.69-9.76c-13.03-4.7-26.89-5.51-40.35-3.06c-7.68,1.4-15.32,5.24-21.95,9.57
		c-9.76,6.37-13.75,17.55-12.32,28c1.07,7.88,4.21,16.85,10.57,23.31c0.41,0.42,1.35,0.32,2.21,0.49
		c5.61-7.63,11.28-15.34,16.95-23.05c0.6,0.43,1.19,0.85,1.79,1.28c-5.29,8.18-10.57,16.35-16.22,25.1
		c2.65,1.28,4.45,2.16,5.93,2.87c7.35-10.62,14.3-20.66,21.25-30.69c-2.96,12.04-12.39,20.41-16.15,32.64
		c23.3,2.51,45.37,0.76,65.67-4.11c6.42-10.54,13.33-18.53,22.99-24.13c-5.84,7.09-11.68,14.18-18.03,21.9
		c8.53,2.25,13.39,0.52,17.54-5.72c3.46-5.21,8.65-9.26,13.08-13.82c0.35,0.35,0.7,0.69,1.06,1.04
		c-5.06,6.1-10.12,12.19-15.35,18.49c3.9,3.52,6.53,2.21,9.29-0.11c2.17-1.82,4.59-3.33,6.9-4.98c0.18,0.33,0.37,0.66,0.55,1
		c-2.39,2.62-4.78,5.24-7.5,8.22c3.47,2.48,6.36,4.54,9.25,6.6c6.88-6.11,12.56-12.73,20.88-15.8c-2.65,3.54-5.83,6.44-8.96,9.38
		c-3.22,3.02-6.4,6.07-10.33,9.79c1.93,4.77,4.56,8.72,4.96,12.9c0.49,4.98-1.29,10.13-1.43,15.23c-0.26,9.18-0.58,18.42,0.24,27.53
		c0.41,4.54,2.62,9.58,8.1,10.87c5.76,1.36,9.12-2.79,11.46-6.87c5.11-8.92,9.61-18.19,14.27-27.37c1.83-3.6,3.02-7.58,5.2-10.93
		c5.26-8.05,12.97-8.3,19.04-0.83c5.12,6.31,6.49,13.93,6.74,21.75c0.24,7.36,0.01,14.74,0.13,22.11c0.16,9.65,1.27,19.13,5.9,27.82
		c2.83,5.29,5.87,10.16,13.22,9.83c7.58-0.34,13.52-2.83,17.3-9.75c4.88-8.94,4.96-18.12,2.66-27.83
		c-3.38-14.28-6.79-28.61-9.07-43.09c-3.28-20.8,0.43-40.34,13.42-57.55c2.66-3.52,5.1-7.22,7.55-10.9
		C397.847,279.768,406.357,259.278,408.187,236.258z M378.737,112.548c-0.7-7.34-1.58-14.23-1.96-21.15
		c-1.36-24.76-10.33-45.77-29.98-61.58c-11.57-9.32-23.68-18.84-39.21-18.31c-30.2,1.02-56.85,11.34-77.58,34.37
		c-10.71,11.9-14.86,26.34-15.43,42.87c3.6-3.48,7.2-6.96,12.06-11.65c-4.52,6.22-7.97,10.98-11.44,15.72
		c-3.39,4.64-7.09,9.19-3.58,16.12c6.98-6.55,13.56-12.71,20.15-18.87c-4.18,6.98-9.09,13.29-14.74,18.86
		c-6.16,6.06-9.79,12.55-8.29,21.5c0.44,2.57-0.6,5.38-1.11,9.19c-2.8-1.41-4.93-1.78-5.75-3.01c-5.08-7.68-13.19-10.17-21.13-13.2
		c-21.71-8.29-44.2-8.4-66.48-4.77c-23.58,3.83-41.22,17.29-51.7,39.05c-2.88,5.98-6.49,11.51-5.93,19.36
		c0.46,6.59-3.96,13.42-5.61,20.28c-1.13,4.75-1.21,9.74-1.76,14.62c0.6,0.18,1.2,0.36,1.8,0.54c8.84-13.58,17.68-27.15,26.52-40.73
		c0.64,0.39,1.27,0.77,1.91,1.16c-1.61,3.13-3.09,6.34-4.86,9.39c-6.84,11.79-13.74,23.56-20.68,35.3
		c-3.71,6.27-3.96,12.4,0.57,19.14c10.42-16.53,19.7-33.41,32.45-47.91c-0.99,3.57-2.68,6.69-4.51,9.73
		c-7.39,12.33-14.47,24.85-22.35,36.86c-5.07,7.74-3.89,14,2.26,21.12c10.82-18.59,19.94-37.56,35.02-52.62
		c-11.18,19.66-22.36,39.33-33.45,58.84c2.87,3.95,4.84,6.67,7.37,10.16c3.14-5.77,5.51-10.3,8.05-14.74
		c2.74-4.8,5.53-9.57,8.48-14.24c2.54-4.03,5.33-7.9,8.01-11.84c0.5,0.35,0.99,0.7,1.49,1.06c-7.97,14.38-15.93,28.77-24.24,43.76
		c2.73,2.54,4.95,4.61,7.4,6.89c3.71-5.89,6.75-10.93,10.01-15.82c3.21-4.81,6.63-9.47,9.97-14.2c0.53,0.39,1.06,0.78,1.6,1.16
		c-6.23,10.57-12.46,21.13-19.3,32.73c13.33,6.89,25.22,13.05,36.84,19.05c1.22-1.59,1.54-1.83,1.6-2.13
		c0.23-1.07,0.45-2.15,0.53-3.24c1.43-19.53,12.07-32.98,30.06-38.35c25.26-7.55,50.28-6.34,72.25,10.8
		c3.64,2.84,7.03,3.5,11.21,2.52c9.52-2.25,16.78-10.39,17.34-21.72c0.49-9.87-0.48-19.84-1.09-29.74
		c-1.52-24.39,4.51-46.01,22.91-63.11c13.41-12.47,29.09-8.64,34.45,8.69c2.6,8.41,3.82,17.23,5.94,25.79
		c1.48,6.03,2.9,12.17,5.31,17.85c2.04,4.8,5.97,9.27,11.55,9.11c6.27-0.18,10.63-4.64,13.56-10.09c1.03-1.93,1.91-4.08,2.23-6.22
		c1.2-7.98,2.62-15.97,3.03-24.01c0.49-9.56-0.62-19.22,0.12-28.75C352.087,135.418,356.437,118.118,378.737,112.548z"/>
	<path style="fill:#603813;" d="M401.617,161.908c5.98,24.37,8.58,49.17,6.57,74.35c-1.83,23.02-10.34,43.51-22.97,62.52
		c-2.45,3.68-4.89,7.38-7.55,10.9c-12.99,17.21-16.7,36.75-13.42,57.55c2.28,14.48,5.69,28.81,9.07,43.09
		c2.3,9.71,2.22,18.89-2.66,27.83c-3.78,6.92-9.72,9.41-17.3,9.75c-7.35,0.33-10.39-4.54-13.22-9.83
		c-4.63-8.69-5.74-18.17-5.9-27.82c-0.12-7.37,0.11-14.75-0.13-22.11c-0.25-7.82-1.62-15.44-6.74-21.75
		c-6.07-7.47-13.78-7.22-19.04,0.83c-2.18,3.35-3.37,7.33-5.2,10.93c-4.66,9.18-9.16,18.45-14.27,27.37
		c-2.34,4.08-5.7,8.23-11.46,6.87c-5.48-1.29-7.69-6.33-8.1-10.87c-0.82-9.11-0.5-18.35-0.24-27.53c0.14-5.1,1.92-10.25,1.43-15.23
		c-0.4-4.18-3.03-8.13-4.96-12.9c3.93-3.72,7.11-6.77,10.33-9.79c3.13-2.94,6.31-5.84,8.96-9.38c-8.32,3.07-14,9.69-20.88,15.8
		c-2.89-2.06-5.78-4.12-9.25-6.6c2.72-2.98,5.11-5.6,7.5-8.22c-0.18-0.34-0.37-0.67-0.55-1c-2.31,1.65-4.73,3.16-6.9,4.98
		c-2.76,2.32-5.39,3.63-9.29,0.11c5.23-6.3,10.29-12.39,15.35-18.49c-0.36-0.35-0.71-0.69-1.06-1.04
		c-4.43,4.56-9.62,8.61-13.08,13.82c-4.15,6.24-9.01,7.97-17.54,5.72c6.35-7.72,12.19-14.81,18.03-21.9
		c-9.66,5.6-16.57,13.59-22.99,24.13c-20.3,4.87-42.37,6.62-65.67,4.11c3.76-12.23,13.19-20.6,16.15-32.64
		c-6.95,10.03-13.9,20.07-21.25,30.69c-1.48-0.71-3.28-1.59-5.93-2.87c5.65-8.75,10.93-16.92,16.22-25.1
		c-0.6-0.43-1.19-0.85-1.79-1.28c-5.67,7.71-11.34,15.42-16.95,23.05c-0.86-0.17-1.8-0.07-2.21-0.49
		c-6.36-6.46-9.5-15.43-10.57-23.31c-1.43-10.45,2.56-21.63,12.32-28c6.63-4.33,14.27-8.17,21.95-9.57
		c13.46-2.45,27.32-1.64,40.35,3.06c5.71,2.06,11.48,5.46,15.69,9.76c4.59,4.68,9.19,5.34,14.89,4.46
		c14.48-2.23,26.05-15.08,26.54-30.94c0.34-11.01-0.71-22.06-1.17-33.1c-0.78-18.71,3.38-35.78,16.54-49.86
		c1.01-1.08,2.02-2.16,3.14-3.12c7.95-6.83,13.23-5.62,16.2,4.36c2.3,7.73,3.79,15.73,5.25,23.68c1.75,9.48,3.67,18.79,10.48,26.25
		c12.16,13.33,28.43,11.89,37.94-3.45c4.8-7.74,6.59-16.37,6.81-25.29c0.24-9.58-0.32-19.17-0.02-28.74
		c0.24-7.68,1.2-15.34,1.94-22.99c0.14-1.44,0.6-2.92,1.22-4.24c3-6.38,6.16-13.21,13.98-14.21c7.83-0.99,12.17,5.37,15.08,11.08
		C395.587,143.748,399.367,152.728,401.617,161.908z M392.157,232.898c0-3.54,0.18-5.4-0.03-7.21c-0.52-4.51-1.59-9.03-6.57-10.49
		c-5.08-1.49-10.04,0.11-12.51,4.63c-0.44,0.81-0.87,1.65-1.27,2.51c-1.73,3.72-2.99,7.86-3.07,11.78
		c-0.25,12.09-3.69,23.12-8.72,33.86c-1.71,3.66-3.7,7.21-5.14,10.97c-0.47,1.22-0.79,2.44-0.96,3.62
		c-0.64,4.46,0.78,8.39,3.74,10.37c4,2.66,9.72,2.28,14.18-2.01c7.2-6.94,13.54-14.86,15.52-24.89
		C389.587,254.538,390.757,242.838,392.157,232.898z M364.037,430.288c5.93-12.78,2.06-24.99-3.18-36.89
		c-0.82-1.85-2.84-3.44-4.67-4.52c-3.32-1.95-6.73-1.65-7.95,2.48c-1.64,5.55-2.57,11.3-4.1,18.27c1.89,6.59,3.5,14.08,6.33,21.08
		c0.97,2.39,4.9,4.67,7.64,4.89C359.977,435.748,362.967,432.608,364.037,430.288z M224.217,310.448
		c-5.94,6.68-11.88,13.36-17.82,20.03c0.79,0.7,1.58,1.39,2.37,2.09C214.737,325.868,221.217,319.568,224.217,310.448z
		 M211.917,309.038c-0.59-0.45-1.19-0.91-1.78-1.37c-6.73,8.26-13.47,16.51-20.21,24.77c0.77,0.72,1.53,1.45,2.3,2.18
		C199.897,326.908,206.477,318.398,211.917,309.038z M184.737,319.878c1.24-1.69,2.31-3.5,3.46-5.26
		c-7.39,5.72-14.41,11.97-16.48,21.55C176.517,331.058,180.657,325.488,184.737,319.878z"/>
	<path style="fill:#C69C6D;" d="M392.127,225.688c0.21,1.81,0.03,3.67,0.03,7.21c-1.4,9.94-2.57,21.64-4.83,33.14
		c-1.98,10.03-8.32,17.95-15.52,24.89c-4.46,4.29-10.18,4.67-14.18,2.01c-2.96-1.98-4.38-5.91-3.74-10.37l2.6,0.43
		c-0.23,1.7,0.27,3.41,2.03,4.91c3.59,3.06,7.29,0.84,9.68-1.99c7.04-8.38,15.54-16.16,16.74-27.87
		c1.05-10.21,1.17-20.52,1.83-33.19c-0.8-0.99-2.45-5.05-5.2-6.03c-3.26-1.16-5.86,1.1-7.26,4.12l-2.53-0.61
		c0.4-0.86,0.83-1.7,1.27-2.51c2.47-4.52,7.43-6.12,12.51-4.63C390.537,216.658,391.607,221.178,392.127,225.688z"/>
	<path style="fill:#C69C6D;" d="M386.767,224.858c-0.66,12.67-0.78,22.98-1.83,33.19c-1.2,11.71-9.7,19.49-16.74,27.87
		c-2.39,2.83-6.09,5.05-9.68,1.99c-1.76-1.5-2.26-3.21-2.03-4.91c0.23-1.76,1.24-3.5,2.42-4.97c6.92-8.63,10.07-18.75,12.08-29.29
		c0.96-5.03,0.98-10.23,1.49-15.35c0.3-2.9,0.37-5.9,1.17-8.67c0.17-0.61,0.4-1.2,0.66-1.77c1.4-3.02,4-5.28,7.26-4.12
		C384.317,219.808,385.967,223.868,386.767,224.858z"/>
	<path style="fill:#C1272D;" d="M376.777,91.398c0.38,6.92,1.26,13.81,1.96,21.15c-22.3,5.57-26.65,22.87-28.11,41.59
		c-0.74,9.53,0.37,19.19-0.12,28.75c-0.41,8.04-1.83,16.03-3.03,24.01c-0.32,2.14-1.2,4.29-2.23,6.22
		c-2.93,5.45-7.29,9.91-13.56,10.09c-5.58,0.16-9.51-4.31-11.55-9.11c-2.41-5.68-3.83-11.82-5.31-17.85
		c-2.12-8.56-3.34-17.38-5.94-25.79c-5.36-17.33-21.04-21.16-34.45-8.69c-18.4,17.1-24.43,38.72-22.91,63.11
		c0.61,9.9,1.58,19.87,1.09,29.74c-0.56,11.33-7.82,19.47-17.34,21.72c-4.18,0.98-7.57,0.32-11.21-2.52
		c-21.97-17.14-46.99-18.35-72.25-10.8c-17.99,5.37-28.63,18.82-30.06,38.35c-0.08,1.09-0.3,2.17-0.53,3.24
		c-0.06,0.3-0.38,0.54-1.6,2.13c-11.62-6-23.51-12.16-36.84-19.05c6.84-11.6,13.07-22.16,19.3-32.73c-0.54-0.38-1.07-0.77-1.6-1.16
		c-3.34,4.73-6.76,9.39-9.97,14.2c-3.26,4.89-6.3,9.93-10.01,15.82c-2.45-2.28-4.67-4.35-7.4-6.89
		c8.31-14.99,16.27-29.38,24.24-43.76c-0.5-0.36-0.99-0.71-1.49-1.06c-2.68,3.94-5.47,7.81-8.01,11.84
		c-2.95,4.67-5.74,9.44-8.48,14.24c-2.54,4.44-4.91,8.97-8.05,14.74c-2.53-3.49-4.5-6.21-7.37-10.16
		c11.09-19.51,22.27-39.18,33.45-58.84c-15.08,15.06-24.2,34.03-35.02,52.62c-6.15-7.12-7.33-13.38-2.26-21.12
		c7.88-12.01,14.96-24.53,22.35-36.86c1.83-3.04,3.52-6.16,4.51-9.73c-12.75,14.5-22.03,31.38-32.45,47.91
		c-4.53-6.74-4.28-12.87-0.57-19.14c6.94-11.74,13.84-23.51,20.68-35.3c1.77-3.05,3.25-6.26,4.86-9.39
		c-0.64-0.39-1.27-0.77-1.91-1.16c-8.84,13.58-17.68,27.15-26.52,40.73c-0.6-0.18-1.2-0.36-1.8-0.54c0.55-4.88,0.63-9.87,1.76-14.62
		c1.65-6.86,6.07-13.69,5.61-20.28c-0.56-7.85,3.05-13.38,5.93-19.36c10.48-21.76,28.12-35.22,51.7-39.05
		c22.28-3.63,44.77-3.52,66.48,4.77c7.94,3.03,16.05,5.52,21.13,13.2c0.82,1.23,2.95,1.6,5.75,3.01c0.51-3.81,1.55-6.62,1.11-9.19
		c-1.5-8.95,2.13-15.44,8.29-21.5c5.65-5.57,10.56-11.88,14.74-18.86c-6.59,6.16-13.17,12.32-20.15,18.87
		c-3.51-6.93,0.19-11.48,3.58-16.12c3.47-4.74,6.92-9.5,11.44-15.72c-4.86,4.69-8.46,8.17-12.06,11.65
		c0.57-16.53,4.72-30.97,15.43-42.87c20.73-23.03,47.38-33.35,77.58-34.37c15.53-0.53,27.64,8.99,39.21,18.31
		C366.447,45.628,375.417,66.638,376.777,91.398z M115.447,263.418c-5.02,7.29-10.04,14.59-15.06,21.88
		C108.367,279.958,113.417,272.678,115.447,263.418z"/>
	<path style="fill:#C69C6D;" d="M371.777,222.338l2.53,0.61c-0.26,0.57-0.49,1.16-0.66,1.77c-0.8,2.77-0.87,5.77-1.17,8.67
		c-0.51,5.12-0.53,10.32-1.49,15.35c-2.01,10.54-5.16,20.66-12.08,29.29c-1.18,1.47-2.19,3.21-2.42,4.97l-2.6-0.43
		c0.17-1.18,0.49-2.4,0.96-3.62c1.44-3.76,3.43-7.31,5.14-10.97c5.03-10.74,8.47-21.77,8.72-33.86
		C368.787,230.198,370.047,226.058,371.777,222.338z"/>
	<path style="fill:#C69C6D;" d="M360.857,393.398c5.24,11.9,9.11,24.11,3.18,36.89c-1.07,2.32-4.06,5.46-5.93,5.31
		c-2.74-0.22-6.67-2.5-7.64-4.89c-2.83-7-4.44-14.49-6.33-21.08c1.53-6.97,2.46-12.72,4.1-18.27c1.22-4.13,4.63-4.43,7.95-2.48
		C358.017,389.958,360.037,391.548,360.857,393.398z M356.937,432.488c8.17-15.06,3.56-26.84-3.79-40.05
		c-4.01,9.57-4.72,25.45-1.74,32.94C352.327,427.678,354.527,429.478,356.937,432.488z"/>
	<path style="fill:#C69C6D;" d="M353.147,392.438c7.35,13.21,11.96,24.99,3.79,40.05c-2.41-3.01-4.61-4.81-5.53-7.11
		C348.427,417.888,349.137,402.008,353.147,392.438z"/>
	<path d="M206.397,330.478c5.94-6.67,11.88-13.35,17.82-20.03c-3,9.12-9.48,15.42-15.45,22.12
		C207.977,331.868,207.187,331.178,206.397,330.478z"/>
	<path d="M210.137,307.668c0.59,0.46,1.19,0.92,1.78,1.37c-5.44,9.36-12.02,17.87-19.69,25.58c-0.77-0.73-1.53-1.46-2.3-2.18
		C196.667,324.178,203.407,315.928,210.137,307.668z"/>
	<path d="M188.197,314.618c-1.15,1.76-2.22,3.57-3.46,5.26c-4.08,5.61-8.22,11.18-13.02,16.29
		C173.787,326.588,180.807,320.338,188.197,314.618z"/>
	<path d="M100.387,285.298c5.02-7.29,10.04-14.59,15.06-21.88C113.417,272.678,108.367,279.958,100.387,285.298z"/>
</g>
<g>
</g>
<g>
</g>
<g>
</g>
<g>
</g>
<g>
</g>
<g>
</g>
<g>
</g>
<g>
</g>
<g>
</g>
<g>
</g>
<g>
</g>
<g>
</g>
<g>
</g>
<g>
</g>
<g>
</g>
</svg>
