<?xml version="1.0" encoding="iso-8859-1"?>
<!-- Generator: Adobe Illustrator 18.0.0, SVG Export Plug-In . SVG Version: 6.00 Build 0)  -->
<!DOCTYPE svg PUBLIC "-//W3C//DTD SVG 1.1//EN" "http://www.w3.org/Graphics/SVG/1.1/DTD/svg11.dtd">
<svg version="1.1" id="Capa_1" xmlns="http://www.w3.org/2000/svg" xmlns:xlink="http://www.w3.org/1999/xlink" x="0px" y="0px"
	 viewBox="0 0 413.438 413.438" style="enable-background:new 0 0 413.438 413.438;" xml:space="preserve">
<g>
	<path d="M413.419,289.958c0.21,7.36-1.25,9.5-8.61,9.69c-16.17,0.42-32.36,0.28-48.55,0.47c-17.21,0.2-34.35-1.5-51.7,1.07
		c-7.61,1.13-16.43-2.83-24.08-5.98c-5.78-2.38-5.78-9.35-0.42-14.88c7.66-7.89,17.12-12.64,28.19-13.62
		c3.61-0.32,7.27-0.05,11.56-0.05c3.41-23.01,15.59-35.86,32.31-35.32c18.54,0.6,30.98,15.13,33.09,39.7c3.06,0,6.24-0.1,9.41,0.02
		C405.759,271.508,413.089,278.908,413.419,289.958z M404.239,292.758c0.49-11.93-1.72-15.16-10.62-14.97
		c-4.59,0.1-9.11,2.15-13.71,3.07c-1.85,0.37-3.83,0.06-6.83,0.06c1.44-4.11,2.59-7.07,3.51-10.09c3.34-10.98-1.19-19.49-9.03-26.54
		c-7.12-6.4-15.5-8.73-24.54-4.47c-9.77,4.61-15.53,12.16-15.18,23.51c0.11,3.56,0.02,7.13,0.02,11.73
		c-22.33-6.11-40.41,0.2-44.45,14.65c5.41,3.39,11.33,4.31,17.75,3.87c11.37-0.78,22.77-1.73,34.16-1.69
		c11.77,0.05,23.52,1.56,35.3,1.74C381.869,293.798,393.139,293.089,404.239,292.758z"/>
	<path style="fill:#3FA9F5;" d="M393.619,277.788c8.9-0.19,11.11,3.04,10.62,14.97c-11.1,0.33-22.37,1.04-33.62,0.87
		c-11.78-0.18-23.53-1.69-35.3-1.74c-11.39-0.04-22.79,0.91-34.16,1.69c-6.42,0.44-12.34-0.48-17.75-3.87
		c4.04-14.45,22.12-20.76,44.45-14.65c0-4.6,0.09-8.17-0.02-11.73c-0.35-11.35,5.41-18.9,15.18-23.51
		c9.04-4.26,17.42-1.93,24.54,4.47c7.84,7.05,12.37,15.56,9.03,26.54c-0.92,3.02-2.07,5.98-3.51,10.09c3,0,4.98,0.31,6.83-0.06
		C384.509,279.938,389.029,277.888,393.619,277.788z"/>
	<path d="M346.869,42.288c9.29,22.8,12.51,45.84,3.73,69.84c-6.99,19.14-15.42,37.43-26.88,54.27
		c-9.73,14.31-19.88,28.34-29.41,42.78c-7.27,11.04-13.86,22.55-20.75,33.84c-1.15,1.88-1.88,4.34-3.53,5.54
		c-8.19,6-8.38,14-8.05,23.28c0.44,12.42-1.26,24.92-2.09,38.12c8.04,0.21,9.33,6.31,9.54,12.81c0.24,7.65-0.13,14.97-2.65,22.68
		c-2.9,8.83-2.3,18.81-3.18,28.3c-0.51,5.49-0.55,11.05-1.54,16.44c-0.87,4.72-3.88,7.37-9.25,7.78
		c-16.81,1.28-33.6,2.94-50.38,4.63c-9.17,0.92-12.2-0.88-14.03-9.31c-1.71-7.89-3.31-15.8-4.9-23.72
		c-1.47-7.34-2.05-14.47-7.19-21.19c-3.13-4.1-1.23-11.98-1.79-18.15c-0.7-7.78,6.77-8.69,10.17-12.07
		c-4.78-18.81-9.2-36.23-13.34-52.56c-8.39-6.26-16.65-11.72-24.11-18.1c-19.85-16.97-39.51-34.18-58.97-51.61
		c-17.1-15.31-33.32-31.65-41.72-53.56c-10.31-26.91-14-54.25,0.5-81.09c14.55-26.94,37.76-42.34,67.66-45.82
		c35.38-4.12,68.19,2.96,94.93,29.12c19.08-18.91,42.84-28.19,68.46-32.81c18.81-3.39,36.53,1.18,52.71,11.35
		C338.209,27.738,343.609,34.298,346.869,42.288z M338.319,107.788c6.69-18.92,5.16-37.65-0.36-56.35
		c-2.22-7.52-5.94-14.38-12.39-19.2c-13.89-10.39-29.55-15.29-46.71-11.86c-21.49,4.31-41.66,12.12-58.81,26.42
		c-3.32,2.76-7.02,5.06-10.43,7.49c-2.31-1.53-4.01-2.35-5.34-3.57c-22.23-20.35-49.01-27.89-78.37-26.68
		c-32.94,1.36-57.43,16.66-71.72,46.86c-2.38,5.03-3.43,10.69-5.09,16.06c7.07-4.13,11.43-10.44,18.27-13.71
		c-4.03,5.73-8.34,11.14-13.2,15.98c-7.01,6.97-6.7,14.63-3.34,22.97c0.56,1.39,0.87,3.15,0.55,4.58
		c-1.27,5.77,1.23,10.44,3.4,17.02c3.21-3.77,5.22-6.22,7.33-8.58c6.27-7.03,12.58-14.03,18.87-21.03c-1.4,2.77-2.64,5.67-4.47,8.14
		c-5.24,7.11-10.68,14.09-16.33,20.88c-4.13,4.96-3.24,8.88,1.35,13.14c6.01-7.23,11.54-14.05,17.25-20.73
		c5.75-6.7,11.35-13.59,19.44-17.95c-11.55,14.24-23.1,28.47-34.4,42.4c7.88,14.54,26.43,33.89,36.77,38.92
		c6.3-7.31,12.37-14.72,18.84-21.76c6.25-6.81,12.92-13.25,19.4-19.86c0.52,0.5,1.04,1,1.55,1.5c-12.6,14.58-25.2,29.16-37.52,43.42
		c23.19,20.13,45.33,39.49,67.73,58.53c2.12,1.8,5.99,2.34,8.96,2.16c13.92-0.84,27.83-1.97,41.72-3.32
		c12.71-1.25,25.38-2.91,35.76-4.13c7.44-12.66,13.12-23.39,19.79-33.47c12.18-18.44,25.09-36.39,37.42-54.73
		C324.579,141.968,332.149,125.238,338.319,107.788z M242.619,342.508c19.39-1.07,19.52-1.4,17.47-22.23
		c-2.73-0.22-4.89-0.67-7-0.52c-19.81,1.32-39.63,2.49-59.41,4.22c-12.07,1.06-13.69,3.84-10.98,15.87c0.31,1.4,1,2.71,1.63,4.34
		c1.86,0.2,3.66,0.62,5.45,0.55C207.399,344.059,225.019,343.478,242.619,342.508z M253.239,387.798c3.5-12.18,3.01-24.94,4.66-38.3
		c-3.66,0.76-6.39,1.32-9.39,1.94c0.65,12.98,1.23,24.62,1.82,36.26C251.299,387.728,252.269,387.768,253.239,387.798z
		 M248.619,310.778c2.16-18.04,4.21-35.19,6.36-53.12c-4.6,0.44-8.84,0.85-14.11,1.36c0,17.52,0,34.49,0,51.76
		C243.659,310.778,246.679,310.778,248.619,310.778z M240.749,390.288c2.15-13.26,4.6-25.66,2.19-38.23c-5.47,0-10.07,0-14.35,0
		c0.64,13.84,1.26,27.01,1.9,40.89C234.889,391.798,237.919,391.018,240.749,390.288z M232.019,261.228c-7.39,0-14.21,0-21.55,0
		c3.6,16.38,7.01,32.13,10.55,47.85c1.25,5.56,4.94,3.85,8.94,3.1C230.659,294.898,231.329,278.178,232.019,261.228z
		 M223.049,392.589c0-13.18,0-25.95,0-39.23c-5.14,0-9.39,0-14.35,0c2.47,14.16,4.81,27.6,7.29,41.79
		C219.359,393.928,221.359,393.208,223.049,392.589z M211.779,313.568c-3.13-17.95-6.07-34.81-9.23-52.91
		c-8,0.99-15.48,1.91-24.22,2.98c6.65,17.99,9.84,35.97,17.97,53.03C202.109,315.508,206.959,314.538,211.779,313.568z
		 M208.709,394.038c-1.32-14.04-1.73-27.47-4.83-41.24c-4.99,0.39-8.9,0.7-14.23,1.12c3.6,14.77,6.79,27.83,10.1,41.39
		C202.869,394.868,205.579,394.478,208.709,394.038z"/>
	<path style="fill:#C1272D;" d="M80.979,104.188c-6.29,7-12.6,14-18.87,21.03c-2.11,2.36-4.12,4.81-7.33,8.58
		c-2.17-6.58-4.67-11.25-3.4-17.02c0.32-1.43,0.01-3.19-0.55-4.58c-3.36-8.34-3.67-16,3.34-22.97c4.86-4.84,9.17-10.25,13.2-15.98
		c-6.84,3.27-11.2,9.58-18.27,13.71c1.66-5.37,2.71-11.03,5.09-16.06c14.29-30.2,38.78-45.5,71.72-46.86
		c29.36-1.21,56.14,6.33,78.37,26.68c1.33,1.22,3.03,2.04,5.34,3.57c3.41-2.43,7.11-4.73,10.43-7.49
		c17.15-14.3,37.32-22.11,58.81-26.42c17.16-3.43,32.82,1.47,46.71,11.86c6.45,4.82,10.17,11.68,12.39,19.2
		c5.52,18.7,7.05,37.43,0.36,56.35c-6.17,17.45-13.74,34.18-24.08,49.54c-12.33,18.34-25.24,36.29-37.42,54.73
		c-6.67,10.08-12.35,20.81-19.79,33.47c-10.38,1.22-23.05,2.88-35.76,4.13c-13.89,1.35-27.8,2.48-41.72,3.32
		c-2.97,0.18-6.84-0.36-8.96-2.16c-22.4-19.04-44.54-38.4-67.73-58.53c12.32-14.26,24.92-28.84,37.52-43.42
		c-0.51-0.5-1.03-1-1.55-1.5c-6.48,6.61-13.15,13.05-19.4,19.86c-6.47,7.04-12.54,14.45-18.84,21.76
		c-10.34-5.03-28.89-24.38-36.77-38.92c11.3-13.93,22.85-28.16,34.4-42.4c-8.09,4.36-13.69,11.25-19.44,17.95
		c-5.71,6.68-11.24,13.5-17.25,20.73c-4.59-4.26-5.48-8.18-1.35-13.14c5.65-6.79,11.09-13.77,16.33-20.88
		C78.339,109.858,79.579,106.958,80.979,104.188z M80.989,104.178c0.29-0.31,0.57-0.63,0.85-0.94c0.17-0.29,0.34-0.57,0.5-0.86
		c1.51-1.25,3.01-2.52,4.51-3.77c-0.52-0.44-1.03-0.87-1.55-1.31c-0.98,1.69-1.97,3.39-2.96,5.08c-0.25,0.21-0.49,0.41-0.74,0.62
		C81.389,103.388,81.189,103.778,80.989,104.178z M320.929,76.318c0-2.2,0.17-4.42-0.02-6.6c-1.61-17.71-14.77-28.31-31.25-26.4
		c-19.31,2.24-27.27,16.35-18.89,33.27c0.32,0.66,0.7,1.29,1.06,1.93c5.76,10.11,6.89,20.65,3.48,31.84
		c-1.16,3.81-1.89,7.93-1.82,11.89c0.16,9.93,7.87,15.3,17.31,12.21c8.4-2.74,14.78-8.24,18.71-16.1
		C316.119,105.148,321.539,91.528,320.929,76.318z M172.439,229.848c3.03-3.3,6.06-6.6,9.09-9.89c-0.68-0.63-1.36-1.25-2.05-1.87
		c-2.99,3.34-5.97,6.68-8.96,10.02C171.159,228.688,171.799,229.268,172.439,229.848z M144.079,216.878
		c8.78-9.74,17.56-19.48,26.34-29.22c-11.34,7.52-20.81,16.69-28.52,27.48C142.619,215.718,143.349,216.298,144.079,216.878z
		 M128.799,210.358c11.7-13.23,22-24.86,33.18-37.51C151.769,176.908,132.289,198.638,128.799,210.358z M150.449,162.698
		c-15.69,9.51-30.98,27.94-32.28,37.29C129.239,187.198,139.839,174.948,150.449,162.698z M95.729,178.278
		c10.47-13.36,20.93-26.72,31.4-40.08C111.939,149.448,96.829,168.918,95.729,178.278z M78.489,164.618
		c11.8-14.89,23.59-29.78,35.39-44.67C99.849,132.968,84.949,145.598,78.489,164.618z M81.779,61.268
		c-0.31-0.51-0.61-1.02-0.92-1.53c-2.3,2.15-4.6,4.3-6.9,6.45c0.37,0.38,0.74,0.76,1.11,1.14
		C77.299,65.308,79.539,63.288,81.779,61.268z M70.429,92.698c1.61-1.86,3.22-3.72,4.83-5.57c-0.27-0.24-0.55-0.48-0.82-0.72
		c-1.65,1.82-3.31,3.63-4.97,5.45C69.789,92.138,70.109,92.418,70.429,92.698z M57.809,108.528c1.81-2.54,3.62-5.08,5.43-7.62
		c-0.38-0.27-0.77-0.54-1.16-0.81c-1.98,2.4-3.95,4.81-5.92,7.21C56.709,107.718,57.259,108.118,57.809,108.528z"/>
	<path style="fill:#FFFFFF;" d="M320.909,69.718c0.19,2.18,0.02,4.4,0.02,6.6c0.61,15.21-4.81,28.83-11.42,42.04
		c-3.93,7.86-10.31,13.36-18.71,16.1c-9.44,3.09-17.15-2.28-17.31-12.21c-0.07-3.96,0.66-8.08,1.82-11.89
		c3.41-11.19,2.28-21.73-3.48-31.84c-0.36-0.64-0.74-1.27-1.06-1.93c-8.38-16.92-0.42-31.03,18.89-33.27
		C306.139,41.408,319.299,52.008,320.909,69.718z M305.909,115.888c6.06-12.68,11.44-25.55,10.27-38.95c0-2.62,0.01-4.09-0.01-5.56
		c-0.1-13.33-5.87-20.8-18.58-23.12c-9.92-1.81-18.17,2.16-24.62,9.37c-5.93,6.63,0.11,12.27,2.52,18.11
		c0.14,0.34,0.36,0.65,0.54,0.96c6.46,11.02,8.65,22.46,4.2,34.88c-1.21,3.36-1.63,7.23-1.45,10.82c0.28,5.52,3.78,8.26,8.94,6.69
		C295.169,126.828,302.249,123.548,305.909,115.888z"/>
	<path style="fill:#FFFFFF;" d="M316.179,76.938c1.17,13.4-4.21,26.27-10.27,38.95c-3.66,7.66-10.74,10.94-18.19,13.2
		c-5.16,1.57-8.66-1.17-8.94-6.69c-0.18-3.59,0.24-7.46,1.45-10.82c4.45-12.42,2.26-23.86-4.2-34.88c-0.18-0.31-0.4-0.62-0.54-0.96
		c-2.41-5.84-8.45-11.48-2.52-18.11c6.45-7.21,14.7-11.18,24.62-9.37c12.71,2.32,18.48,9.79,18.58,23.12
		C316.189,72.848,316.179,74.318,316.179,76.938z"/>
	<path style="fill:#F57547;" d="M260.089,320.278c2.05,20.83,1.92,21.16-17.47,22.23c-17.6,0.97-35.22,1.55-52.84,2.23
		c-1.79,0.07-3.59-0.35-5.45-0.55c-0.63-1.63-1.32-2.94-1.63-4.34c-2.71-12.03-1.09-14.81,10.98-15.87
		c19.78-1.73,39.6-2.9,59.41-4.22C255.199,319.608,257.359,320.059,260.089,320.278z"/>
	<path style="fill:#FBB03B;" d="M257.899,349.498c-1.65,13.36-1.16,26.12-4.66,38.3c-0.97-0.03-1.94-0.07-2.91-0.1
		c-0.59-11.64-1.17-23.28-1.82-36.26C251.509,350.818,254.239,350.258,257.899,349.498z"/>
	<path style="fill:#FBB03B;" d="M242.939,352.059c2.41,12.57-0.04,24.97-2.19,38.23c-2.83,0.73-5.86,1.51-10.26,2.66
		c-0.64-13.88-1.26-27.05-1.9-40.89C232.869,352.059,237.469,352.059,242.939,352.059z"/>
	<path style="fill:#FBB03B;" d="M223.049,353.358c0,13.28,0,26.05,0,39.23c-1.69,0.62-3.69,1.34-7.06,2.56
		c-2.48-14.19-4.82-27.63-7.29-41.79C213.659,353.358,217.909,353.358,223.049,353.358z"/>
	<path style="fill:#FBB03B;" d="M203.879,352.798c3.1,13.77,3.51,27.2,4.83,41.24c-3.13,0.44-5.84,0.83-8.96,1.27
		c-3.31-13.56-6.5-26.62-10.1-41.39C194.979,353.498,198.889,353.188,203.879,352.798z"/>
	<path d="M181.529,219.958c-3.03,3.29-6.06,6.59-9.09,9.89c-0.64-0.58-1.28-1.16-1.92-1.74c2.99-3.34,5.97-6.68,8.96-10.02
		C180.169,218.708,180.849,219.328,181.529,219.958z"/>
	<path d="M170.419,187.658c-8.78,9.74-17.56,19.48-26.34,29.22c-0.73-0.58-1.46-1.16-2.18-1.74
		C149.609,204.348,159.079,195.178,170.419,187.658z"/>
	<path d="M142.039,301.948c8.66,8.56,8.05,20.2,5.67,31.29c-1.35,6.3-7.08,6.74-12.36,7.04c-13.59,0.78-27.18,1.56-40.77,2.24
		c-15.45,0.78-30.9,1.38-46.34,2.23c-3.63,0.2-7.4,0.58-10.78,1.78c-9.58,3.41-18.9,1.75-28.25-0.67c-4.54-1.18-8.15-3.62-9.04-8.62
		c-0.89-5.01,1.86-8.39,5.49-11.28c8.06-6.39,17.5-9.24,27.47-10.6c2.49-0.34,5.07-0.05,9.39-0.05
		c-1.77-13.47-4.67-25.79,3.94-36.41c4.57-5.65,10.61-8.88,17.69-10.53c16.09-3.74,28.57,4.3,39.69,26.06
		c2.36-0.76,4.78-1.55,7.2-2.31C123.649,288.168,133.799,293.809,142.039,301.948z M124.539,335.408
		c15.15-0.75,19.88-5.93,16.47-20.67c-2.27-9.83-9.89-14.87-18.09-17.79c-7.26-2.58-14.32,0.65-19.52,6.96
		c-1.14,1.39-3.32,1.92-6.39,3.6c0-4.34,0.37-7.17-0.09-9.87c-0.66-3.92-1.05-8.28-3.07-11.49c-6.38-10.09-21.77-14.83-32.26-10.63
		c-11.15,4.47-16.31,14.3-14.42,27.9c0.86,6.14,2.07,12.23,3.35,19.65c-2.79,0.26-4.42,0.93-5.47,0.42
		c-13.32-6.5-24.11,0.44-34.86,6.71c-1.79,1.04-3.57,4.39-3.2,6.23c0.36,1.74,3.47,3.98,5.51,4.14c7.98,0.62,16.05,1.02,24.03,0.55
		C65.869,339.368,95.179,336.848,124.539,335.408z"/>
	<path d="M161.979,172.848c-11.18,12.65-21.48,24.28-33.18,37.51C132.289,198.638,151.769,176.908,161.979,172.848z"/>
	<path style="fill:#3FA9F5;" d="M141.009,314.738c3.41,14.74-1.32,19.92-16.47,20.67c-29.36,1.44-58.67,3.96-88.01,5.71
		c-7.98,0.47-16.05,0.07-24.03-0.55c-2.04-0.16-5.15-2.4-5.51-4.14c-0.37-1.84,1.41-5.19,3.2-6.23
		c10.75-6.27,21.54-13.21,34.86-6.71c1.05,0.51,2.68-0.16,5.47-0.42c-1.28-7.42-2.49-13.51-3.35-19.65
		c-1.89-13.6,3.27-23.43,14.42-27.9c10.49-4.2,25.88,0.54,32.26,10.63c2.02,3.21,2.41,7.57,3.07,11.49c0.46,2.7,0.09,5.53,0.09,9.87
		c3.07-1.68,5.25-2.21,6.39-3.6c5.2-6.31,12.26-9.54,19.52-6.96C131.119,299.868,138.739,304.908,141.009,314.738z"/>
	<path d="M118.169,199.988c1.3-9.35,16.59-27.78,32.28-37.29C139.839,174.948,129.239,187.198,118.169,199.988z"/>
	<path d="M127.129,138.198c-10.47,13.36-20.93,26.72-31.4,40.08C96.829,168.918,111.939,149.448,127.129,138.198z"/>
	<path d="M113.879,119.948c-11.8,14.89-23.59,29.78-35.39,44.67C84.949,145.598,99.849,132.968,113.879,119.948z"/>
	<path d="M85.299,97.298c0.52,0.44,1.03,0.87,1.55,1.31c-1.5,1.25-3,2.52-4.51,3.77C83.329,100.688,84.319,98.988,85.299,97.298z"/>
	<path d="M82.339,102.378c-0.16,0.29-0.33,0.57-0.5,0.86l-0.24-0.24C81.849,102.788,82.089,102.588,82.339,102.378z"/>
	<path d="M81.839,103.238c-0.28,0.31-0.56,0.63-0.85,0.94c0.2-0.4,0.4-0.79,0.61-1.18L81.839,103.238z"/>
	<path d="M80.859,59.738c0.31,0.51,0.61,1.02,0.92,1.53c-2.24,2.02-4.48,4.04-6.71,6.06c-0.37-0.38-0.74-0.76-1.11-1.14
		C76.259,64.038,78.559,61.888,80.859,59.738z"/>
	<path d="M75.259,87.128c-1.61,1.85-3.22,3.71-4.83,5.57c-0.32-0.28-0.64-0.56-0.96-0.84c1.66-1.82,3.32-3.63,4.97-5.45
		C74.709,86.648,74.989,86.888,75.259,87.128z"/>
	<path d="M63.239,100.908c-1.81,2.54-3.62,5.08-5.43,7.62c-0.55-0.41-1.1-0.81-1.65-1.22c1.97-2.4,3.94-4.81,5.92-7.21
		C62.469,100.368,62.859,100.638,63.239,100.908z"/>
</g>
<g>
</g>
<g>
</g>
<g>
</g>
<g>
</g>
<g>
</g>
<g>
</g>
<g>
</g>
<g>
</g>
<g>
</g>
<g>
</g>
<g>
</g>
<g>
</g>
<g>
</g>
<g>
</g>
<g>
</g>
</svg>
