<?xml version="1.0" encoding="iso-8859-1"?>
<!-- Generator: Adobe Illustrator 18.0.0, SVG Export Plug-In . SVG Version: 6.00 Build 0)  -->
<!DOCTYPE svg PUBLIC "-//W3C//DTD SVG 1.1//EN" "http://www.w3.org/Graphics/SVG/1.1/DTD/svg11.dtd">
<svg version="1.1" id="Capa_1" xmlns="http://www.w3.org/2000/svg" xmlns:xlink="http://www.w3.org/1999/xlink" x="0px" y="0px"
	 viewBox="0 0 460.92 460.92" style="enable-background:new 0 0 460.92 460.92;" xml:space="preserve">
<g>
	<path d="M460.92,181.861c0,6.52,0,13.04,0,19.55c-14.62,20.4-29.25,40.79-44.52,62.09c1.69,4.06,4.08,9.28,6.04,14.65
		c3.33,9.15,2.25,12.4-5.9,16.96c-31.21,17.47-62.52,34.79-93.73,52.25c-15.77,8.82-31.4,17.89-47.15,26.74
		c-21.1,11.86-42.23,23.64-63.37,35.42c-11.47,6.4-18.99,4.98-27.48-4.91c-6.34-7.38-12.78-14.68-19.09-21.93
		c-11.17,2.06-22.08,4.48-33.12,5.96c-6.37,0.85-13.02,0.87-19.39,0.08c-16.32-2.05-19.54-7.38-14.95-24.16
		c-3.81-0.75-7.58-1.53-11.36-2.24c-14.95-2.84-18.37-7.64-15.62-22.88c-4.44-0.76-8.96-1.32-13.37-2.34
		c-15.86-3.7-18.82-12.08-8.82-24.64c0.66-0.83,1.31-1.67,2.45-3.14c-4.12-2.49-8.42-1.2-12.4-1.38
		c-13.19-0.58-24.82-4.64-33.74-14.8c-6.58-7.49-7.09-14.3-1.84-22.77c4.98-8.04,12.06-13.21,21.26-15.67
		c25.16-6.73,49.92-7.14,74.02,4.23c0.96,0.46,2.04,0.68,3.08,0.94c0.3,0.07,0.67-0.12,2.2-0.44c-2.63-4.32-5.26-8.27-7.53-12.42
		c-5.77-10.55-4.11-16.54,6.76-21.97c20.36-10.17,40.94-19.88,61.37-29.92c36.95-18.15,73.85-36.43,110.8-54.62
		c16.17-7.96,32.11-16.49,48.67-23.53c14.41-6.14,16.97-4.56,25.23,8.94c1.11,1.81,2.4,3.51,4.45,6.49
		c1.79-5.53,3.24-9.81,4.57-14.12c5.62-18.14,13.75-34.98,26.2-49.47c7.16-8.34,15.81-14.93,25.94-19.16
		c12.12-5.05,18.5-1.16,20.52,11.75c2.11,13.51-0.68,26.55-3.83,39.53c0.62,0.39,1.22,1.09,1.73,1.04
		c13.85-1.45,16.87,1.7,14.47,15.53c-0.55,3.18-1.62,6.3-2.67,9.37c-1.04,3-2.36,5.91-3.81,9.48c1.94,0.57,3.2,0.98,4.48,1.3
		c9.78,2.44,12.62,6.67,10.03,16.44c-1.65,6.21-4.28,12.16-6.8,19.13C451.14,174.481,457.56,175.631,460.92,181.861z
		 M446.31,204.921c4.11-5.73,6.91-12.67,4.88-20.94c-6.88-1.85-10.16,2.45-14.29,5.17c-1.71,1.13-5.34,1.43-6.74,0.35
		c-1.32-1.02-1.61-4.55-1.04-6.62c0.93-3.43,3.03-6.53,4.43-9.85c3.47-8.21,6.83-16.47,10.22-24.7c-6.25-3.68-10.2-1.43-13.88,1.8
		c-2.45,2.15-4.79,5.22-8.21,1.96c-3.46-3.3,0.2-5.85,1.53-8.53c3.23-6.46,6.88-12.73,9.71-19.36c1.87-4.39,2.6-9.26,4.37-15.91
		c-9.08,2.75-14.57,6.08-17.9,12.63c-1.3,2.57-2.39,5.4-4.29,7.46c-1.16,1.25-4.12,2.16-5.46,1.53c-1.32-0.63-2.26-3.43-2.2-5.23
		c0.07-2.03,1.56-3.99,2.23-6.04c3.03-9.26,6.81-18.37,8.74-27.86c2.19-10.75,4.98-21.83,0.48-33.93
		c-3.82,1.81-7.13,3.09-10.14,4.87c-10.17,6.02-17.77,14.63-24.36,24.32c-11.37,16.71-16.99,35.83-22.98,54.75
		c-0.85,2.67,0.22,6.42,1.45,9.2c10.64,24.13,21.42,48.21,32.41,72.19c4.39,9.6,9.44,18.9,15.08,30.12
		C423.28,235.391,435.19,220.441,446.31,204.921z M409.21,281.471c-1.3-3.46-2.01-6.2-3.29-8.64c-16.6-31.67-31.7-64.01-45.09-97.21
		c-6.06-15.02-14.22-29.19-21.56-43.68c-1.23-2.42-3.17-4.48-6.22-8.7c-2.07,5.31-3.84,8.6-4.65,12.12
		c-6.63,28.84-12.49,57.87-19.9,86.5c-2.8,10.83-4.97,21.08-3.37,32.28c0.99,6.99,0.18,14.24,0.18,22.27
		C339.39,280.231,373.67,283.091,409.21,281.471z M401.32,290.731c-18.21-1.28-33.96-2.19-49.67-3.54
		c-16.1-1.38-32.15-3.18-48.63-4.84c-0.94,3.63-2.24,6.7-2.46,9.84c-0.44,6.48-3.76,10.13-9.31,13.33
		c-15.36,8.87-31.27,10.25-48.19,4.82c-15.17,29.11-27.87,58.83-39.18,91.55c10.09-5.8,17.88-10.27,25.26-14.52
		c1.02-12.53,3.12-24.07,9.92-34.48c-2.15,10.49-4.29,20.98-6.81,33.29c6.52-3.37,10.92-5.64,15.12-7.8
		c0.76-15.31,5-28.92,11.73-41.96c-2.51,12.47-5.03,24.94-7.99,39.65c6.19-3.61,10.14-5.92,11.91-6.95
		c4.04-13.03,7.42-23.9,10.79-34.78c0.89,0.23,1.77,0.47,2.66,0.7c-2.41,9.48-4.82,18.96-7.53,29.64
		c8.4-2.65,13.47-5.77,15.26-13.71c1.44-6.38,4.82-12.32,7.35-18.46c0.79,0.27,1.59,0.55,2.38,0.82
		c-1.38,6.18-2.77,12.36-4.61,20.58C327.19,332.981,364,313.611,401.32,290.731z M298.25,232.031c7.43-33.22,14.63-65.42,21.98-98.3
		c-14.35,3.95-208.08,98.75-213.21,104.16c14.39,5,28.37,11.19,42.99,14.64c23.45,5.54,47.31,9.37,71.06,13.59
		c2.76,0.49,6.46-0.26,8.76-1.85c8.55-5.89,17.54-9.98,29.29-9.44c1.34-9.8,4.74-17.58,12.81-22.42
		C280.27,227.391,289.04,228.541,298.25,232.031z M296.34,249.961c0.41-5.67-1.11-10.84-7.4-12.93c-6.22-2.07-11.4,0.05-15.66,4.47
		c-5.49,5.71-7.26,12.79-6.57,20.96c-2.52-0.26-4.98-0.51-7.45-0.75c-11.75-1.17-21.17,3.4-28.49,12.24
		c-6.82,8.23-5.61,13.53,3.26,19.44c17,11.32,34.99,11.13,53.64,5.45c1.95-6.91,4.4-13.35,5.51-20.02
		C294.78,269.281,295.64,259.611,296.34,249.961z M235.25,306.851c-4.11-3.86-9.85-7.31-12.63-12.39c-2.9-5.28-2.95-12.13-4.49-19.5
		c-16.83-3.67-34.92-6.9-52.58-11.67c-17.96-4.85-35.51-11.21-53.24-16.91c9.45,15.09,11.54,33.08,21.65,48.9
		c2.44-9.1,4.36-16.26,6.28-23.42c-0.17,7.7-1.26,15.18-3.27,22.39c-2.07,7.37,0.61,12.97,5.25,19.91
		c2.47-9.01,4.55-16.61,6.63-24.21c0.98,3.07,0.86,5.93,0.42,8.73c-1.13,7.12-2.53,14.2-3.58,21.33
		c-1.21,8.26,2.49,14.71,7.48,22.34c3.87-15.24,7.23-28.48,10.59-41.72c0.83,0.2,1.65,0.4,2.48,0.6
		c-2.78,12.59-5.53,25.2-8.35,37.78c-2.43,10.84-1.29,14.41,7.86,23.46c4.15-16.07,8.26-31.95,12.37-47.82
		c0.74,0.17,1.48,0.35,2.23,0.53c-0.4,2.74-0.66,5.5-1.23,8.21c-2.91,13.77-6.02,27.5-8.8,41.3c-1.69,8.38-1.28,8.92,5.36,13.57
		c3.21-10.56,6.42-21.11,9.63-31.67c1.47,2.49,1.4,4.6,0.92,6.61c-2.08,8.78-4.09,17.58-6.53,26.26c-1.09,3.87-1.1,7.07,2.07,9.82
		c4.05,3.52,8.1,7.03,11.9,10.32C207.75,368.181,221.47,337.571,235.25,306.851z M158.48,371.301
		c-7.14-12.8-14.02-23.87-19.64-35.54c-8.77-18.21-16.6-36.86-25.04-55.23c-1.27-2.77-3.2-5.85-5.7-7.34
		c-26.1-15.61-53.82-17.19-82.4-8.33c-3.57,1.11-6.93,3.94-9.61,6.72c-8.67,8.95-6.11,16.95,6.66,21.19
		c1.39-3.53,2.78-7.09,4.17-10.65c0.28,0.09,0.57,0.18,0.85,0.27c-0.66,4.42-1.32,8.85-2.14,14.29c6.54,0.67,12.05,1.23,17.11,1.75
		c1.71-3.56,2.84-5.91,4.99-10.38c0,4.71,0,7.01,0,10.22c4.32,0,8.26-0.2,12.16,0.05c6.11,0.39,12.24,0.87,18.29,1.74
		c3.08,0.44,7,0.97,6.88,5.4c-0.12,4.49-3.77,4.31-7.09,4.68c-3.56,0.4-7.33,0.75-10.5,2.22c-5.78,2.67-11.68,5.68-13.3,13.74
		c10.12,4.34,12.7,4.47,30.5,3.43c2.83-0.17,7.24,0.53,8.35,2.37c2.31,3.88-2.04,5.17-4.72,6.83c-4.03,2.51-7.99,5.14-7.32,12.15
		c2.93,0.82,6.18,2.2,9.53,2.55c6.44,0.67,12.98,0.45,19.39,1.26c2.47,0.31,5.29,2,6.79,3.95c0.6,0.79-1.42,4.48-3.07,5.94
		c-3.85,3.43-7.57,6.61-6.5,13.32c3.27,0.37,6.3,0.7,9.69,1.08c1.98-5.88,3.74-11.09,5.5-16.29c1,2.84,0.36,5.23,0.14,7.67
		c-0.23,2.55-0.05,5.15-0.05,9.73c8.61-6.44,5.01-16.84,12.89-22.43c-0.98,7-1.8,12.84-2.8,19.99
		C141.93,375.351,150.01,373.371,158.48,371.301z"/>
	<path style="fill:#FF7BAC;" d="M451.19,183.981c2.03,8.27-0.77,15.21-4.88,20.94c-11.12,15.52-23.03,30.47-35.96,47.38
		c-5.64-11.22-10.69-20.52-15.08-30.12c-10.99-23.98-21.77-48.06-32.41-72.19c-1.23-2.78-2.3-6.53-1.45-9.2
		c5.99-18.92,11.61-38.04,22.98-54.75c6.59-9.69,14.19-18.3,24.36-24.32c3.01-1.78,6.32-3.06,10.14-4.87
		c4.5,12.1,1.71,23.18-0.48,33.93c-1.93,9.49-5.71,18.6-8.74,27.86c-0.67,2.05-2.16,4.01-2.23,6.04c-0.06,1.8,0.88,4.6,2.2,5.23
		c1.34,0.63,4.3-0.28,5.46-1.53c1.9-2.06,2.99-4.89,4.29-7.46c3.33-6.55,8.82-9.88,17.9-12.63c-1.77,6.65-2.5,11.52-4.37,15.91
		c-2.83,6.63-6.48,12.9-9.71,19.36c-1.33,2.68-4.99,5.23-1.53,8.53c3.42,3.26,5.76,0.19,8.21-1.96c3.68-3.23,7.63-5.48,13.88-1.8
		c-3.39,8.23-6.75,16.49-10.22,24.7c-1.4,3.32-3.5,6.42-4.43,9.85c-0.57,2.07-0.28,5.6,1.04,6.62c1.4,1.08,5.03,0.78,6.74-0.35
		C441.03,186.431,444.31,182.131,451.19,183.981z"/>
	<path style="fill:#C69C6D;" d="M405.92,272.831c1.28,2.44,1.99,5.18,3.29,8.64c-35.54,1.62-69.82-1.24-103.9-5.06
		c0-8.03,0.81-15.28-0.18-22.27c-1.6-11.2,0.57-21.45,3.37-32.28c7.41-28.63,13.27-57.66,19.9-86.5c0.81-3.52,2.58-6.81,4.65-12.12
		c3.05,4.22,4.99,6.28,6.22,8.7c7.34,14.49,15.5,28.66,21.56,43.68C374.22,208.821,389.32,241.161,405.92,272.831z"/>
	<path style="fill:#C69C6D;" d="M351.65,287.191c15.71,1.35,31.46,2.26,49.67,3.54c-37.32,22.88-74.13,42.25-112,63.18
		c1.84-8.22,3.23-14.4,4.61-20.58c-0.79-0.27-1.59-0.55-2.38-0.82c-2.53,6.14-5.91,12.08-7.35,18.46
		c-1.79,7.94-6.86,11.06-15.26,13.71c2.71-10.68,5.12-20.16,7.53-29.64c-0.89-0.23-1.77-0.47-2.66-0.7
		c-3.37,10.88-6.75,21.75-10.79,34.78c-1.77,1.03-5.72,3.34-11.91,6.95c2.96-14.71,5.48-27.18,7.99-39.65
		c-6.73,13.04-10.97,26.65-11.73,41.96c-4.2,2.16-8.6,4.43-15.12,7.8c2.52-12.31,4.66-22.8,6.81-33.29
		c-6.8,10.41-8.9,21.95-9.92,34.48c-7.38,4.25-15.17,8.72-25.26,14.52c11.31-32.72,24.01-62.44,39.18-91.55
		c16.92,5.43,32.83,4.05,48.19-4.82c5.55-3.2,8.87-6.85,9.31-13.33c0.22-3.14,1.52-6.21,2.46-9.84
		C319.5,284.011,335.55,285.811,351.65,287.191z"/>
	<path style="fill:#C69C6D;" d="M320.23,133.731c-7.35,32.88-14.55,65.08-21.98,98.3c-9.21-3.49-17.98-4.64-26.32,0.38
		c-8.07,4.84-11.47,12.62-12.81,22.42c-11.75-0.54-20.74,3.55-29.29,9.44c-2.3,1.59-6,2.34-8.76,1.85
		c-23.75-4.22-47.61-8.05-71.06-13.59c-14.62-3.45-28.6-9.64-42.99-14.64C112.15,232.481,305.88,137.681,320.23,133.731z"/>
	<path style="fill:#C1272D;" d="M288.94,237.031c6.29,2.09,7.81,7.26,7.4,12.93c-0.7,9.65-1.56,19.32-3.16,28.86
		c-1.11,6.67-3.56,13.11-5.51,20.02c-18.65,5.68-36.64,5.87-53.64-5.45c-8.87-5.91-10.08-11.21-3.26-19.44
		c7.32-8.84,16.74-13.41,28.49-12.24c2.47,0.24,4.93,0.49,7.45,0.75c-0.69-8.17,1.08-15.25,6.57-20.96
		C277.54,237.081,282.72,234.961,288.94,237.031z"/>
	<path style="fill:#F15A24;" d="M264.75,81.161c15.8,1.18,21.28,12.53,12.37,25.79c-2.18,3.24-5.07,6.14-8.07,8.67
		c-17.19,14.5-35.69,27.04-56.43,35.93c-17.89,7.68-35.75,15.51-54.02,22.17c-9.35,3.41-19.57,4.41-29.4,6.5
		c-0.08-0.32-0.17-0.64-0.25-0.95c-4.31-0.38-8.72-0.29-12.9-1.23c-8.61-1.94-10.96-7.32-5.55-14.1
		c4.9-6.15,10.73-11.71,16.79-16.77c21.74-18.18,45.82-32.63,71.7-44.16c9.55-4.25,18.9-9,28.14-13.89
		C238.96,82.861,251.47,80.171,264.75,81.161z M269.47,105.201c3.35-3.44,4.54-8.15,2.2-11.91c-1.54-2.48-5.74-3.9-8.99-4.54
		c-3.43-0.67-7.33-0.48-10.71,0.45c-8.65,2.37-17.39,4.71-25.61,8.22c-33.93,14.49-66.73,31.05-95.03,55.27
		c-5.95,5.09-12.36,9.82-16.08,18.1c2.93,0.61,5.25,1.38,7.61,1.54c13.56,0.93,26.61-1.58,39.16-6.56
		c15.41-6.12,30.8-12.32,46.01-18.91c18.65-8.09,35.57-19.12,51.29-31.94C262.94,111.971,266.21,108.561,269.47,105.201z"/>
	<path style="fill:#FBB03B;" d="M271.67,93.291c2.34,3.76,1.15,8.47-2.2,11.91c-3.26,3.36-6.53,6.77-10.15,9.72
		c-15.72,12.82-32.64,23.85-51.29,31.94c-15.21,6.59-30.6,12.79-46.01,18.91c-12.55,4.98-25.6,7.49-39.16,6.56
		c-2.36-0.16-4.68-0.93-7.61-1.54c3.72-8.28,10.13-13.01,16.08-18.1c28.3-24.22,61.1-40.78,95.03-55.27
		c8.22-3.51,16.96-5.85,25.61-8.22c3.38-0.93,7.28-1.12,10.71-0.45C265.93,89.391,270.13,90.811,271.67,93.291z M245.99,114.261
		c1.84-2.17,3.44-5.49,3.18-8.1c-0.13-1.3-4.58-2.56-7.23-3.1c-2.01-0.41-4.39-0.03-6.4,0.62c-11.95,3.93-24.07,7.47-35.69,12.23
		c-11.31,4.64-22.12,10.5-33.07,15.97c-8.35,4.18-16.4,8.86-23.51,16.61c3.93,4.73,7.83,5.19,12.42,4.5
		c29.72-4.49,56.94-15.31,81.84-32.06C240.52,118.931,243.72,116.951,245.99,114.261z"/>
	<path style="fill:#F15A24;" d="M249.17,106.161c0.26,2.61-1.34,5.93-3.18,8.1c-2.27,2.69-5.47,4.67-8.46,6.67
		c-24.9,16.75-52.12,27.57-81.84,32.06c-4.59,0.69-8.49,0.23-12.42-4.5c7.11-7.75,15.16-12.43,23.51-16.61
		c10.95-5.47,21.76-11.33,33.07-15.97c11.62-4.76,23.74-8.3,35.69-12.23c2.01-0.65,4.39-1.03,6.4-0.62
		C244.59,103.601,249.04,104.861,249.17,106.161z M154.49,148.201c33.32-4.04,61.91-18.42,89.94-39.25
		C224.08,109.021,163.92,135.921,154.49,148.201z"/>
	<path style="fill:#C69C6D;" d="M222.62,294.461c2.78,5.08,8.52,8.53,12.63,12.39c-13.78,30.72-27.5,61.33-41.58,92.75
		c-3.8-3.29-7.85-6.8-11.9-10.32c-3.17-2.75-3.16-5.95-2.07-9.82c2.44-8.68,4.45-17.48,6.53-26.26c0.48-2.01,0.55-4.12-0.92-6.61
		c-3.21,10.56-6.42,21.11-9.63,31.67c-6.64-4.65-7.05-5.19-5.36-13.57c2.78-13.8,5.89-27.53,8.8-41.3c0.57-2.71,0.83-5.47,1.23-8.21
		c-0.75-0.18-1.49-0.36-2.23-0.53c-4.11,15.87-8.22,31.75-12.37,47.82c-9.15-9.05-10.29-12.62-7.86-23.46
		c2.82-12.58,5.57-25.19,8.35-37.78c-0.83-0.2-1.65-0.4-2.48-0.6c-3.36,13.24-6.72,26.48-10.59,41.72
		c-4.99-7.63-8.69-14.08-7.48-22.34c1.05-7.13,2.45-14.21,3.58-21.33c0.44-2.8,0.56-5.66-0.42-8.73c-2.08,7.6-4.16,15.2-6.63,24.21
		c-4.64-6.94-7.32-12.54-5.25-19.91c2.01-7.21,3.1-14.69,3.27-22.39c-1.92,7.16-3.84,14.32-6.28,23.42
		c-10.11-15.82-12.2-33.81-21.65-48.9c17.73,5.7,35.28,12.06,53.24,16.91c17.66,4.77,35.75,8,52.58,11.67
		C219.67,282.331,219.72,289.181,222.62,294.461z"/>
	<path style="fill:#FF7BAC;" d="M138.84,335.761c5.62,11.67,12.5,22.74,19.64,35.54c-8.47,2.07-16.55,4.05-25.99,6.35
		c1-7.15,1.82-12.99,2.8-19.99c-7.88,5.59-4.28,15.99-12.89,22.43c0-4.58-0.18-7.18,0.05-9.73c0.22-2.44,0.86-4.83-0.14-7.67
		c-1.76,5.2-3.52,10.41-5.5,16.29c-3.39-0.38-6.42-0.71-9.69-1.08c-1.07-6.71,2.65-9.89,6.5-13.32c1.65-1.46,3.67-5.15,3.07-5.94
		c-1.5-1.95-4.32-3.64-6.79-3.95c-6.41-0.81-12.95-0.59-19.39-1.26c-3.35-0.35-6.6-1.73-9.53-2.55c-0.67-7.01,3.29-9.64,7.32-12.15
		c2.68-1.66,7.03-2.95,4.72-6.83c-1.11-1.84-5.52-2.54-8.35-2.37c-17.8,1.04-20.38,0.91-30.5-3.43c1.62-8.06,7.52-11.07,13.3-13.74
		c3.17-1.47,6.94-1.82,10.5-2.22c3.32-0.37,6.97-0.19,7.09-4.68c0.12-4.43-3.8-4.96-6.88-5.4c-6.05-0.87-12.18-1.35-18.29-1.74
		c-3.9-0.25-7.84-0.05-12.16-0.05c0-3.21,0-5.51,0-10.22c-2.15,4.47-3.28,6.82-4.99,10.38c-5.06-0.52-10.57-1.08-17.11-1.75
		c0.82-5.44,1.48-9.87,2.14-14.29c-0.28-0.09-0.57-0.18-0.85-0.27c-1.39,3.56-2.78,7.12-4.17,10.65
		c-12.77-4.24-15.33-12.24-6.66-21.19c2.68-2.78,6.04-5.61,9.61-6.72c28.58-8.86,56.3-7.28,82.4,8.33c2.5,1.49,4.43,4.57,5.7,7.34
		C122.24,298.901,130.07,317.551,138.84,335.761z M38.63,292.991c1.61-6.35,3.21-12.69,4.81-19.04
		C38.92,279.521,36.37,285.621,38.63,292.991z"/>
	<path d="M43.44,273.951c-1.6,6.35-3.2,12.69-4.81,19.04C36.37,285.621,38.92,279.521,43.44,273.951z"/>
</g>
<g>
</g>
<g>
</g>
<g>
</g>
<g>
</g>
<g>
</g>
<g>
</g>
<g>
</g>
<g>
</g>
<g>
</g>
<g>
</g>
<g>
</g>
<g>
</g>
<g>
</g>
<g>
</g>
<g>
</g>
</svg>
