<?xml version="1.0" encoding="iso-8859-1"?>
<!-- Generator: Adobe Illustrator 19.0.0, SVG Export Plug-In . SVG Version: 6.00 Build 0)  -->
<svg version="1.1" id="Capa_1" xmlns="http://www.w3.org/2000/svg" xmlns:xlink="http://www.w3.org/1999/xlink" x="0px" y="0px"
	 viewBox="0 0 456.516 456.516" style="enable-background:new 0 0 456.516 456.516;" xml:space="preserve">
<g>
	<path style="fill:#E86464;" d="M450.904,251.736c-5.602-3.531-13.016-1.852-16.547,3.766
		c-11.203,17.828-22.586,24.438-28.906,23.055c-5.117-1.102-9.18-8.117-10.602-18.32c-1.531-11-0.492-25.898,2.109-41.656
		c25.586-8.297,46.367-39.32,53.547-66.375c6.07-22.883-0.008-33.859-6.18-39.039c-7.805-6.547-17.344-7.5-26.164-2.609
		c-18.195,10.07-33,48.68-41.094,86.117c-5.414-0.789-10.359-3.203-14.781-7.234c2.227-10.477,4.18-19.648,5.82-26.195
		c6.563-26.234,3.758-45.117-7.906-53.164c-3.844-2.656-14.305-7.703-28.852,2.43c-15.398,10.711-14.023,42.57-3.805,67.18
		c2.508,6.039,5.461,11.469,8.805,16.258c-5.414,25.109-14.359,64.453-22.133,80.398c-8.086-23.289-14.109-93.438-15.367-154.234
		c-0.133-6.211-4.984-11.305-11.188-11.719c-6.086-0.5-11.695,3.961-12.664,10.102c-0.891,5.656-3.766,15.625-8.32,23.188
		c-2.141-20.523-9.086-33.445-20.297-37.547c-4.07-1.5-14.75-3.703-25.617,8.086c-10.008,10.859-11.242,29.469-2.93,44.258
		c5.477,9.734,14.172,16.164,24.391,18.547c-3.336,34.75-13.914,85.164-29.438,98.336c-2.961,2.516-4.57,2.195-5.383,2.008
		c-3-1.063-11.242-13.211-16.141-42.375c-4.285-25.536-4.318-52.562-1-74.117c2.861-11.905,6.027-23.558,9.145-30.926
		c1.963-3.592,4.149-6.425,6.543-8.332c5.188-4.125,6.039-11.68,1.906-16.859c-2.44-3.068-6.077-4.609-9.714-4.51
		c-2.095-0.031-4.224,0.472-6.169,1.596c-5.396,3.12-9.633,8.469-13.311,16.127c-6.013,10.757-9.985,24.55-12.291,39.631
		c-1.522,6.456-3.083,13.449-4.75,21.016c-8.922,40.484-20.023,90.867-40.891,103.359c-13.578,8.117-31.219-6.063-52.859-25.469
		c-2.328-2.094-4.648-4.172-6.945-6.188c4.148-13.859,8.734-31.664,14.406-54.352c13.719-54.883,34.445-137.836,58.148-148.063
		c9.852-4.242,14.688-3.883,15.281-3.664c2.391,3.789-1.906,25.328-26.219,53.687c-4.313,5.031-3.734,12.609,1.297,16.922
		c5.031,4.305,12.602,3.727,16.922-1.297c22.047-25.719,42.438-63.031,27.336-83.531c-4.828-6.57-17-15.859-44.133-4.148
		C91.857,39.728,73.904,102.704,52.045,190.15c-3.523,14.117-7.633,30.555-11.695,45.008c-7.75-4.07-15.43-5.586-23.148-2.586
		C1.435,238.72-3.565,261.408,2.498,277.587c5.515,14.727,19.016,21.078,33.648,15.852c6.305-2.266,11.242-7.875,16.117-18.695
		c16.57,14.875,37.766,33.727,60.125,33.719c6.813,0,13.734-1.75,20.664-5.891c16.618-9.947,27.639-31.075,35.951-56.033
		c0.452,2.224,0.929,4.395,1.432,6.502c6.844,28.734,17.617,44.82,32.016,47.813c6.383,1.313,16.039,1.148,25.867-7.195
		c23.898-20.281,34.969-81.117,38.07-118.383c3.742-1.516,7.078-3.617,10.039-6.102c6.43,131.477,26.172,134.844,34.086,136.195
		c1.133,0.195,2.234,0.289,3.313,0.289c18.953,0,29.344-29.977,42.953-90.859c5.023,2.742,10.398,4.602,16.039,5.516
		c-2.469,17.344-3.18,32.898-1.734,43.234c2.883,20.766,13.852,35.148,29.328,38.477c18.523,3.969,38.289-8.336,54.258-33.742
		C458.201,262.665,456.514,255.259,450.904,251.736z M428.756,132.056c0.727,3.523,0.219,13.711-7.039,28.922
		c-4.836,10.141-11.063,18.922-17.594,25.234C411.404,159.767,421.256,136.743,428.756,132.056z M27.006,271.158
		c-0.523,0.125-0.797,0.148-0.781,0.18c-0.523-0.375-2.031-2.813-2.211-7.352c-0.195-4.992,1.383-8.523,1.516-8.961
		c0.023,0,0.047,0,0.07,0c1.617,0,4.281,1.438,7.414,3.625C30.826,264.642,28.787,269.087,27.006,271.158z M238.756,146.72
		c-3.414-6.086-2.93-13.43-0.352-16.227c0.125-0.133,0.25-0.258,0.359-0.375c1.609,2.969,3.867,9.625,4.469,21.68
		C241.474,150.587,239.982,148.892,238.756,146.72z M345.256,155.642c-2.172-11.109-1.625-20.664,0.266-23.75
		c0.5-0.328,0.93-0.578,1.305-0.773C347.764,134.423,348.42,142.142,345.256,155.642z"/>
	<path style="fill:#E86464;" d="M316.053,317.611c-18.219-9.563-49.977-9.563-75.461,8.906c-3.352,2.438-6.484,5.078-9.406,7.891
		c-14.078-13.375-32.992-20.719-50.617-19.594c-12.703,0.766-23.641,5.883-30.008,14.031c-8.359,10.688-11.414,24.578-7.984,36.234
		c3.094,10.516,11.109,18.5,22.57,22.492c6.273,2.18,13.094-1.141,15.281-7.391c2.172-6.266-1.133-13.102-7.391-15.281
		c-6.125-2.125-7.109-5.492-7.438-6.594c-1.242-4.227,0.313-10.125,3.867-14.68c1.625-2.078,5.773-4.445,12.547-4.859
		c11.586-0.633,24.149,4.516,33.57,13.945c0.172,0.172,0.344,0.344,0.508,0.516c-12.906,21.031-16.961,45.32-11.609,61.82
		c4.305,13.266,14.563,21.188,27.445,21.188c14.875,0,26.375-7.156,31.547-19.625c7.133-17.203,0.711-41.07-16.43-64.148
		c2.344-2.328,4.883-4.516,7.641-6.508c19.469-14.133,41.133-11.859,50.211-7.094c6.516,3.422,8.375,11.75,6.82,17.859
		c-1.273,4.992-4.203,7.516-8.711,7.516c-0.063,0-0.125,0-0.195,0c-6.875,0.211-12.086,5.188-12.188,11.813
		s5.18,12.078,11.813,12.188c0.188,0,0.375,0,0.57,0c15.477,0,27.992-9.984,31.969-25.586
		C338.896,347.259,333.654,326.845,316.053,317.611z M241.303,407.415c-0.602,1.445-2,4.82-9.375,4.82c-1.242,0-3.125,0-4.617-4.594
		c-2.523-7.781-0.945-20.992,5.102-34.078C241.451,387.993,244.107,400.65,241.303,407.415z"/>
</g>
<g>
</g>
<g>
</g>
<g>
</g>
<g>
</g>
<g>
</g>
<g>
</g>
<g>
</g>
<g>
</g>
<g>
</g>
<g>
</g>
<g>
</g>
<g>
</g>
<g>
</g>
<g>
</g>
<g>
</g>
</svg>
