<?xml version="1.0" encoding="iso-8859-1"?>
<!-- Generator: Adobe Illustrator 19.0.0, SVG Export Plug-In . SVG Version: 6.00 Build 0)  -->
<svg version="1.1" id="Capa_1" xmlns="http://www.w3.org/2000/svg" xmlns:xlink="http://www.w3.org/1999/xlink" x="0px" y="0px"
	 viewBox="0 0 464 464" style="enable-background:new 0 0 464 464;" xml:space="preserve">
<g>
	<path style="fill:#FFE6B9;" d="M134.923,128c0-52.934,43.066-96,96-96s96,43.066,96,96v52.383c11.855,3.755,22.693,9.794,32,17.6
		V128c0-70.578-57.422-128-128-128s-128,57.422-128,128v71.846c9.221-8.218,20.068-14.65,32-18.751V128z"/>
	<path style="fill:#D2504B;" d="M105.994,312.348c22.069,47.663,75.115,98.209,126.006,124.889
		c14.488-7.596,29.15-17.126,43.223-27.973c-14.073,10.847-28.734,20.377-43.222,27.972
		C181.109,410.557,128.063,360.011,105.994,312.348z"/>
	<path style="fill:#D2504B;" d="M368.615,270.154c0-2.417-0.123-4.807-0.363-7.163C368.493,265.347,368.615,267.736,368.615,270.154
		L368.615,270.154z"/>
	<path style="fill:#D2504B;" d="M350.931,325.931c-0.542,0.94-1.094,1.881-1.657,2.821
		C349.837,327.812,350.389,326.871,350.931,325.931z"/>
	<path style="fill:#D2504B;" d="M95.385,270.154L95.385,270.154c0-2.417,0.123-4.807,0.363-7.163
		C95.507,265.347,95.385,267.736,95.385,270.154z"/>
	<path style="fill:#D2504B;" d="M96.194,259.484c0.355-2.32,0.825-4.603,1.403-6.842C97.019,254.882,96.55,257.165,96.194,259.484z"
		/>
	<path style="fill:#D2504B;" d="M100.24,297.876c-0.559-1.698-1.065-3.387-1.532-5.068
		C99.176,294.489,99.682,296.178,100.24,297.876z"/>
	<path style="fill:#D2504B;" d="M105.994,312.348c-1.351-2.918-2.586-5.826-3.698-8.716
		C103.407,306.522,104.643,309.43,105.994,312.348z"/>
	<path style="fill:#D2504B;" d="M352.615,270.154c0-29.86-24.293-54.154-54.154-54.154c-14.425,0-27.999,5.612-38.224,15.803
		c-7.55,7.525-17.578,11.669-28.237,11.669c-10.66,0-20.688-4.144-28.238-11.669C193.538,221.612,179.963,216,165.538,216
		c-29.861,0-54.154,24.293-54.154,54.154c0,44.031,55.55,111.974,120.616,148.859C297.066,382.127,352.615,314.185,352.615,270.154z
		 M240,326.629V352c0,4.4-3.6,8-8,8c-4.4,0-8-3.6-8-8v-25.371c-9.32-3.295-16-12.18-16-22.629c0-13.255,10.745-24,24-24
		s24,10.745,24,24C256,314.449,249.32,323.333,240,326.629z"/>
	<path style="fill:#D2504B;" d="M102.296,303.632c-0.741-1.927-1.427-3.846-2.056-5.756
		C100.869,299.786,101.555,301.705,102.296,303.632z"/>
	<path style="fill:#D2504B;" d="M98.823,248.49c0.976-2.999,2.135-5.917,3.49-8.724C100.958,242.574,99.8,245.491,98.823,248.49z"/>
	<path style="fill:#D2504B;" d="M280.801,404.868c-1.676,1.348-3.36,2.679-5.055,3.99
		C277.441,407.547,279.126,406.216,280.801,404.868z"/>
	<path style="fill:#D2504B;" d="M284.703,201.342c-13.451,2.664-25.827,9.228-35.76,19.128c-1.348,1.344-2.827,2.471-4.38,3.428
		c1.554-0.957,3.032-2.084,4.381-3.428C258.876,210.57,271.252,204.006,284.703,201.342z"/>
	<path style="fill:#D2504B;" d="M235.157,227.239c-1.048,0.139-2.101,0.233-3.156,0.233h0
		C233.056,227.472,234.108,227.377,235.157,227.239z"/>
	<path style="fill:#D2504B;" d="M288.797,398.23c-2.123,1.816-4.265,3.605-6.426,5.365
		C284.532,401.836,286.675,400.046,288.797,398.23z"/>
	<path style="fill:#D2504B;" d="M165.538,200c-12.406,0-24.062,3.25-34.184,8.924C141.477,203.25,153.132,200,165.538,200z"/>
	<path style="fill:#D2504B;" d="M342.001,340.068c-0.76,1.107-1.533,2.213-2.318,3.318
		C340.469,342.282,341.241,341.176,342.001,340.068z"/>
	<path style="fill:#D2504B;" d="M305.877,382.589c-3.507,3.439-7.102,6.813-10.771,10.11
		C298.775,389.402,302.37,386.028,305.877,382.589z"/>
	<path style="fill:#D2504B;" d="M328.457,358.023c-0.811,0.986-1.631,1.97-2.461,2.951
		C326.826,359.994,327.646,359.01,328.457,358.023z"/>
	<path style="fill:#D2504B;" d="M115.955,220.571c-5.558,5.558-10.19,12.041-13.642,19.195
		C105.766,232.611,110.398,226.128,115.955,220.571z"/>
	<path style="fill:#D2504B;" d="M121.257,215.79c2.318-1.891,4.761-3.633,7.31-5.221
		C126.018,212.157,123.575,213.899,121.257,215.79z"/>
	<path style="fill:#EBD2AA;" d="M358.923,197.983c-9.307-7.806-20.145-13.844-32-17.6c-8.98-2.844-18.54-4.383-28.461-4.383
		c-25.944,0-49.432,10.499-66.462,27.472C214.97,186.499,191.482,176,165.538,176c-10.718,0-21.016,1.795-30.615,5.094
		c-11.932,4.101-22.779,10.533-32,18.751c-19.349,17.244-31.539,42.351-31.539,70.308c0,72,84.463,158.539,160.615,193.846
		c76.153-35.308,160.615-121.846,160.615-193.846C392.615,241.173,379.518,215.254,358.923,197.983z M232,437.237
		c-50.892-26.68-103.937-77.226-126.006-124.889c-1.351-2.918-2.586-5.826-3.698-8.716c-0.741-1.927-1.427-3.846-2.056-5.756
		c-0.559-1.698-1.065-3.387-1.532-5.068c-2.159-7.778-3.324-15.373-3.324-22.654l0,0l0,0c0-2.417,0.123-4.807,0.363-7.163
		c0.12-1.178,0.269-2.347,0.447-3.507c0.355-2.32,0.825-4.603,1.403-6.842c0.362-1.404,0.781-2.784,1.227-4.152
		c0.976-2.999,2.135-5.917,3.49-8.724c3.453-7.155,8.085-13.638,13.642-19.195c1.683-1.683,3.456-3.274,5.302-4.781
		c2.318-1.891,4.761-3.633,7.31-5.221c0.915-0.57,1.845-1.117,2.787-1.645c10.122-5.674,21.778-8.924,34.184-8.924
		c2.336,0,4.655,0.114,6.95,0.338c16.067,1.572,30.98,8.582,42.569,20.132c4.683,4.667,10.812,7.001,16.942,7.001
		c1.056,0,2.108-0.095,3.156-0.233c3.286-0.434,6.492-1.545,9.405-3.34c1.554-0.957,3.032-2.084,4.38-3.428
		c9.933-9.9,22.309-16.465,35.76-19.128c4.484-0.888,9.087-1.342,13.759-1.342c1.209,0,2.411,0.031,3.605,0.091
		c31.044,1.579,56.827,23.433,64.337,52.551c0.867,3.36,1.49,6.816,1.85,10.349c0.24,2.355,0.363,4.745,0.363,7.163l0,0l0,0
		c0,7.97-1.387,16.313-3.956,24.864c-0.571,1.9-1.2,3.811-1.885,5.729c-2.959,8.286-6.973,16.729-11.843,25.183
		c-0.542,0.94-1.094,1.881-1.657,2.821c-2.261,3.778-4.69,7.554-7.273,11.316c-0.76,1.107-1.533,2.213-2.318,3.318
		c-3.501,4.92-7.254,9.808-11.226,14.637c-0.811,0.986-1.631,1.97-2.461,2.951c-6.253,7.399-13.003,14.639-20.119,21.615
		c-3.507,3.439-7.102,6.813-10.771,10.11c-2.08,1.87-4.184,3.713-6.309,5.531c-2.123,1.816-4.265,3.605-6.426,5.365
		c-0.523,0.426-1.045,0.851-1.57,1.273c-1.676,1.348-3.36,2.679-5.055,3.99c-0.175,0.135-0.349,0.271-0.524,0.406
		C261.15,420.111,246.488,429.642,232,437.237z"/>
	<path style="fill:#6E4141;" d="M232,280c-13.255,0-24,10.745-24,24c0,10.449,6.68,19.333,16,22.629V352c0,4.4,3.6,8,8,8
		c4.4,0,8-3.6,8-8v-25.371c9.32-3.295,16-12.18,16-22.629C256,290.745,245.255,280,232,280z"/>
	<path style="fill:#BE3C3C;" d="M280.801,404.868c0.525-0.422,1.047-0.847,1.57-1.273c2.161-1.759,4.303-3.549,6.426-5.365
		c2.124-1.818,4.228-3.662,6.309-5.531c3.669-3.297,7.264-6.671,10.771-10.11c7.116-6.976,13.866-14.216,20.119-21.615
		c0.829-0.981,1.649-1.965,2.461-2.951c3.972-4.829,7.725-9.717,11.226-14.637c0.786-1.104,1.559-2.21,2.318-3.318
		c2.582-3.763,5.011-7.539,7.273-11.316c0.563-0.94,1.115-1.881,1.657-2.821c4.87-8.454,8.884-16.897,11.843-25.183
		c0.685-1.919,1.315-3.829,1.885-5.729c2.569-8.551,3.956-16.895,3.956-24.864l0,0c0-2.417-0.123-4.807-0.363-7.163
		c-0.36-3.533-0.983-6.989-1.85-10.349c-7.509-29.118-33.292-50.972-64.337-52.551c-1.194-0.061-2.396-0.091-3.605-0.091
		c-4.672,0-9.275,0.455-13.759,1.342c-13.451,2.664-25.827,9.228-35.76,19.128c-1.348,1.344-2.827,2.471-4.381,3.428
		c-2.913,1.794-6.12,2.906-9.405,3.34c-1.048,0.139-2.101,0.233-3.156,0.233h0c-6.13,0-12.26-2.334-16.942-7.001
		c-11.589-11.551-26.502-18.561-42.569-20.132c-2.295-0.225-4.614-0.338-6.95-0.338c-12.406,0-24.062,3.25-34.184,8.924
		c-0.942,0.528-1.872,1.075-2.787,1.645c-2.549,1.588-4.992,3.33-7.31,5.221c-1.846,1.506-3.619,3.098-5.302,4.781
		c-5.558,5.558-10.19,12.041-13.642,19.195c-1.355,2.808-2.513,5.725-3.49,8.724c-0.445,1.368-0.865,2.748-1.227,4.152
		c-0.578,2.24-1.047,4.522-1.403,6.842c-0.178,1.16-0.327,2.329-0.447,3.507c-0.24,2.355-0.363,4.745-0.363,7.163l0,0
		c0,7.281,1.165,14.875,3.324,22.654c0.467,1.682,0.973,3.371,1.532,5.068c0.629,1.91,1.315,3.83,2.056,5.756
		c1.111,2.89,2.346,5.798,3.698,8.716c22.069,47.663,75.115,98.209,126.007,124.889c14.488-7.595,29.15-17.125,43.222-27.972
		c0.175-0.135,0.349-0.271,0.524-0.406C277.441,407.547,279.126,406.216,280.801,404.868z M111.385,270.154
		c0-29.86,24.293-54.154,54.154-54.154c14.425,0,28,5.612,38.224,15.803c7.55,7.525,17.578,11.669,28.238,11.669
		c10.659,0,20.687-4.144,28.237-11.669c10.225-10.191,23.8-15.803,38.224-15.803c29.861,0,54.154,24.293,54.154,54.154
		c0,44.031-55.55,111.974-120.615,148.859C166.934,382.127,111.385,314.185,111.385,270.154z"/>
</g>
<g>
</g>
<g>
</g>
<g>
</g>
<g>
</g>
<g>
</g>
<g>
</g>
<g>
</g>
<g>
</g>
<g>
</g>
<g>
</g>
<g>
</g>
<g>
</g>
<g>
</g>
<g>
</g>
<g>
</g>
</svg>
