<?xml version="1.0" encoding="iso-8859-1"?>
<!-- Generator: Adobe Illustrator 19.0.0, SVG Export Plug-In . SVG Version: 6.00 Build 0)  -->
<svg version="1.1" id="Capa_1" xmlns="http://www.w3.org/2000/svg" xmlns:xlink="http://www.w3.org/1999/xlink" x="0px" y="0px"
	 viewBox="0 0 463.719 463.719" style="enable-background:new 0 0 463.719 463.719;" xml:space="preserve">
<g>
	<rect x="172.321" y="135.738" style="fill:#E6C8A0;" width="8" height="16"/>
	<rect x="172.321" y="183.738" style="fill:#E6C8A0;" width="8" height="16"/>
	<rect x="172.321" y="231.738" style="fill:#E6C8A0;" width="8" height="16"/>
	<path style="fill:#FFE6B9;" d="M164.321,287.738c2.857,0,5.533,0.758,7.854,2.07c0.088-0.679,0.146-1.367,0.146-2.07v-40v-16l0-32
		v-16v-32v-16l0-101.109c0-12.135-5.862-23.931-16.349-30.037c-13.322-7.758-29.684-5.451-40.277,5.146l-55.375,70l8,8l64.58-50.229
		c3.02-2.349,7.42-0.197,7.42,3.629V286.88c0,0.969,0.084,1.929,0.239,2.87c2.299-1.279,4.943-2.013,7.761-2.013H164.321z"/>
	<path style="fill:#F2DAAA;" d="M188.368,463.598c-0.383-0.023-0.768-0.057-1.153-0.087
		C187.6,463.543,187.985,463.573,188.368,463.598z"/>
	<path style="fill:#F2DAAA;" d="M204.218,405.228c0.009-0.071,0.024-0.139,0.032-0.21
		C204.243,405.089,204.227,405.157,204.218,405.228z"/>
	<path style="fill:#F2DAAA;" d="M224.07,282.862c-2.449,3.849-3.75,8.315-3.75,12.876v108c0,6.617-5.383,12-12,12
		c-3.074,0-5.852-1.195-7.977-3.102c-2.128,1.921-4.937,3.102-8.023,3.102c-6.617,0-12-5.383-12-12v-100
		c0-5.98-3.286-11.185-8.146-13.93c-2.322-1.312-4.998-2.07-7.854-2.07c-8.836,0-16,7.163-16,16v97.912
		c0,30.362,21.683,57.452,51.727,61.512c-3.674,0.476-7.44,0.655-11.282,0.454c34.69,2.009,63.555-25.616,63.555-59.878V302.73
		l56.662-55.77l-55.001-39.287L224.07,282.862z"/>
	<path style="fill:#F2DAAA;" d="M204.021,406.368c0.006-0.026,0.014-0.051,0.02-0.077
		C204.036,406.317,204.027,406.342,204.021,406.368z"/>
	<path style="fill:#E6C8A0;" d="M220.321,403.738v-108c0-4.561,1.301-9.027,3.75-12.876l29.911-75.189l-12.459-8.9l-33.452,84.089
		c-2.449,3.849-3.75,8.315-3.75,12.876v108c0,0.433-0.025,0.86-0.07,1.28c-0.008,0.071-0.023,0.139-0.032,0.21
		c-0.046,0.359-0.1,0.715-0.177,1.063c-0.006,0.026-0.014,0.051-0.02,0.077c-0.562,2.453-1.888,4.614-3.7,6.248
		c0.007,0.007,0.016,0.012,0.023,0.019c2.125,1.907,4.903,3.102,7.977,3.102C214.938,415.738,220.321,410.355,220.321,403.738z"/>
	<path style="fill:#E6C8A0;" d="M200.048,463.162c-30.044-4.06-51.727-31.149-51.727-61.512v-97.912c0-8.837,7.164-16,16-16h-16
		c-2.818,0-5.461,0.734-7.761,2.013c-4.912,2.731-8.239,7.968-8.239,13.987v97.912c0,30.492,21.862,57.7,52.106,61.58
		c0.934,0.12,1.863,0.207,2.788,0.281c0.385,0.03,0.77,0.064,1.153,0.087c0.133,0.008,0.265,0.011,0.398,0.018
		C192.608,463.816,196.373,463.638,200.048,463.162z"/>
	<path style="fill:#FFE6B9;" d="M326.497,229.972l-78.398-56c-5.402-3.852-12.891-2.594-16.742,2.789
		c-3.852,5.398-2.602,12.891,2.789,16.742l7.377,5.269l12.459,8.9l55.001,39.287l3.561,2.543c2.117,1.508,4.551,2.234,6.965,2.234
		c3.746,0,7.434-1.75,9.777-5.023C333.137,241.316,331.887,233.824,326.497,229.972z"/>
	<path style="fill:#E86464;" d="M276.629,119.738c21.231-9.844,44.779-33.97,44.779-54.043c0-14.497-11.752-26.25-26.25-26.25
		c-7.233,0-13.781,2.927-18.529,7.659c-4.748-4.732-11.296-7.659-18.529-7.659c1.837,0,3.629,0.193,5.36,0.552
		C240.792,54.925,256.555,98.893,276.629,119.738z"/>
	<path style="fill:#D25055;" d="M276.629,119.738c-20.073-20.845-35.837-64.813-13.169-79.741c-1.731-0.359-3.522-0.552-5.36-0.552
		c-14.497,0-26.25,11.752-26.25,26.25C231.85,85.768,255.398,109.894,276.629,119.738z"/>
	<path style="fill:#E86464;" d="M322.552,135.738c0.644,0,1.279,0.034,1.906,0.099C323.831,135.772,323.195,135.738,322.552,135.738
		z"/>
	<path style="fill:#E86464;" d="M348.533,135.738c-5.071,0-9.662,2.052-12.991,5.37c-2.483-2.475-5.67-4.243-9.233-4.983
		c-15.892,10.466-4.84,41.291,9.233,55.906c14.885-6.901,31.394-23.816,31.394-37.889
		C366.936,143.977,358.697,135.738,348.533,135.738z"/>
	<path style="fill:#E86464;" d="M324.499,135.843c0.613,0.065,1.217,0.159,1.811,0.282
		C325.716,136.002,325.112,135.908,324.499,135.843z"/>
	<path style="fill:#D25055;" d="M326.309,136.125L326.309,136.125L326.309,136.125c-0.594-0.123-1.198-0.217-1.811-0.282
		c-0.014-0.002-0.027-0.005-0.041-0.006c-0.626-0.065-1.262-0.099-1.906-0.099c-10.164,0-18.403,8.24-18.403,18.403
		c0,14.073,16.509,30.988,31.394,37.889C321.469,177.416,310.417,146.59,326.309,136.125z"/>
	<path style="fill:#E86464;" d="M373.017,31.813c0.44,0.047,0.874,0.114,1.301,0.202C373.892,31.926,373.458,31.859,373.017,31.813z
		"/>
	<path style="fill:#E86464;" d="M390.225,31.738c-3.63,0-6.916,1.469-9.298,3.844c-1.777-1.772-4.058-3.037-6.609-3.567
		c-11.375,7.491-3.465,29.555,6.609,40.016c10.654-4.94,22.471-17.047,22.471-27.12C403.398,37.635,397.5,31.738,390.225,31.738z"/>
	<path style="fill:#E86464;" d="M371.629,31.738c0.461,0,0.916,0.024,1.364,0.071C372.544,31.763,372.089,31.738,371.629,31.738z"/>
	<path style="fill:#D25055;" d="M374.318,32.015L374.318,32.015L374.318,32.015c-0.427-0.089-0.861-0.156-1.301-0.202
		c-0.008-0.001-0.016-0.003-0.025-0.004c-0.448-0.047-0.903-0.071-1.364-0.071c-7.275,0-13.173,5.898-13.173,13.173
		c0,10.073,11.817,22.18,22.471,27.12C370.854,61.57,362.943,39.506,374.318,32.015z"/>
	<path style="fill:#FFE6B9;" d="M188.321,255.738L188.321,255.738c4.418,0,8-3.582,8-8v-16c0-4.418-3.582-8-8-8h0
		c-4.418,0-8,3.582-8,8v16C180.321,252.156,183.903,255.738,188.321,255.738z"/>
	<path style="fill:#FFE6B9;" d="M188.321,207.738L188.321,207.738c4.418,0,8-3.582,8-8v-16c0-4.418-3.582-8-8-8h0
		c-4.418,0-8,3.582-8,8v16C180.321,204.156,183.903,207.738,188.321,207.738z"/>
	<path style="fill:#FFE6B9;" d="M188.321,159.738L188.321,159.738c4.418,0,8-3.582,8-8v-16c0-4.418-3.582-8-8-8h0
		c-4.418,0-8,3.582-8,8v16C180.321,156.156,183.903,159.738,188.321,159.738z"/>
</g>
<g>
</g>
<g>
</g>
<g>
</g>
<g>
</g>
<g>
</g>
<g>
</g>
<g>
</g>
<g>
</g>
<g>
</g>
<g>
</g>
<g>
</g>
<g>
</g>
<g>
</g>
<g>
</g>
<g>
</g>
</svg>
