<?xml version="1.0" encoding="iso-8859-1"?>
<!-- Generator: Adobe Illustrator 18.0.0, SVG Export Plug-In . SVG Version: 6.00 Build 0)  -->
<!DOCTYPE svg PUBLIC "-//W3C//DTD SVG 1.1//EN" "http://www.w3.org/Graphics/SVG/1.1/DTD/svg11.dtd">
<svg version="1.1" id="Capa_1" xmlns="http://www.w3.org/2000/svg" xmlns:xlink="http://www.w3.org/1999/xlink" x="0px" y="0px"
	 viewBox="0 0 428.341 428.341" style="enable-background:new 0 0 428.341 428.341;" xml:space="preserve">
<g>
	<path style="fill:#C1272D;" d="M407.24,144.271c0.05,0.73,0.01,1.46,0.01,4.61c-0.43,1.57-0.73,5.87-2.75,9.09
		c-1.69,2.71-5.31,5.67-8.23,5.83c-4.91,0.28-10.15-1.01-14.83-2.78c-2.16-0.81-4.61-4.3-4.58-6.55c0.02-2.19,2.62-5.08,4.84-6.36
		c3.34-1.93,7.4-2.14,8.61-7.15c1.07-4.39,3.99-8.34,9.34-7.34C405.14,134.651,406.88,139.161,407.24,144.271z"/>
	<path d="M395.24,218.291c5.01,12.68,6.26,25.74,5.17,39.07c-0.34,4.19-2.43,8.24-3.87,12.82c-3.37-0.59-5.8-1.08-8.24-1.43
		c-16.7-2.43-32.22,0.5-46.31,10.11c-6.92,4.71-9.18,4.73-13.28-2.2c-3.95-6.68-9.31-8.55-16.5-8.66
		c-14.6-0.23-28.8,0.18-40.08,11.57c-2.97,3.01-6.76,2.65-9.92-0.33c-2.15-2.01-4.13-4.21-6.16-6.35c-6.57-6.93-14.5-9.52-25.3-7.63
		c1.45,13.27,2.44,26.35,4.4,39.29c4.48,29.71,4.24,59.36,0.71,89.13c-2.02,16.97-11.04,27.83-26.91,32.9
		c-15.23,4.86-28.18-0.92-39.87-10.31c-6.54-5.26-10.87-12.31-12.1-20.54c-2.43-16.35-4.25-32.79-6.15-49.21
		c-0.54-4.65,1.82-8.1,6.32-9.07c6.46-1.38,13.04-2.26,19.61-3.03c4.6-0.55,6.88,1.86,6.65,6.51c-0.23,4.78,0.05,9.68-0.89,14.32
		c-1.86,9.12,0.8,17.52,3.04,26.04c1.11,4.22,3.25,7.15,8.37,7.2c5.2,0.06,7.1-3.06,8.37-7.18c4.16-13.51,5.93-27.32,4.98-41.43
		c-1.46-21.66-3-43.31-4.56-65.76c-6.72,4.63-13.12,3.32-19.42-1.41c-11.74-8.8-45.36-3.44-56.29,7.17
		c-9.07,8.8-10.56,8.98-20.5,0.8c-12.78-10.51-26.1-12.59-41.11-6.22c-2.36,1-4.85,1.92-7.36,2.29c-4.72,0.71-7.72-1.87-8.14-6.64
		c-0.09-1.08,0.18-2.19,0.27-3.29c2.44-30.8,10.53-59.32,32.42-82.55c16.83-17.84,35.8-32.46,57.6-44.09
		c17.29-9.22,34.65-15.82,54.33-16.01c3.21-0.03,6.41-1.33,9.64-2.04c0-3.43-0.41-6.71,0.09-9.84c0.86-5.37,4.9-8.57,10.85-9.39
		c5.64-0.78,9.14,1.62,10.84,7.01c1.31,4.16,2.82,8.26,4.08,11.9c15.91,1.64,31.56,1.78,46.5,5.09
		c34.3,7.62,65.86,21.01,89.35,48.93C377.03,189.081,388.73,201.791,395.24,218.291z M388.73,258.511
		c-0.47-5.36-1.17-10.06-1.24-14.77c-0.2-12.93-4.24-24.74-11.32-35.25c-19.52-29.01-43.52-52.76-77.88-63.76
		c-4.78-1.53-9.46-3.33-16.24-5.74c33.74,38.09,57.7,77.88,57.09,129.14c8.64-2.84,16.12-6.14,23.96-7.64
		C371.26,258.941,379.75,259.131,388.73,258.511z M333.06,264.751c0.86-14.22-0.59-23.84-4.63-35.46
		c-8.67-24.89-21.17-47.83-37.73-68.15c-7.51-9.21-17.62-16.56-27.41-23.54c-5.8-4.13-13.41-4.93-21.56-3.49
		c22.38,42.28,29.95,86.89,26.81,133.62C301.9,255.421,316.54,258.151,333.06,264.751z M261.76,264.341
		c3.25-17.05,1.28-32.66-0.68-48.26c-3.14-25-9.72-48.96-21.34-71.48c-4.44-8.61-10.08-14.23-20.61-13.23
		c-5.41,0.51-10.9,0.09-15.63,0.09c-17.51,33.54-15.34,67.89-12.47,103.28c3-1.69,5.23-2.94,7.47-4.2
		c-8.22,9.73-8.22,9.73-5.37,14.81c9.14-6.98,18.31-13.99,27.49-21c0.46,0.54,0.92,1.08,1.38,1.62c-2.52,2.35-4.95,4.8-7.58,7.02
		c-6.45,5.47-13.11,10.71-19.42,16.35c-1.36,1.21-1.59,3.69-2.34,5.59c7.93-3.24,12.56-10.13,20.61-11.5
		c-3.12,3.79-7.01,6.68-10.05,10.28c-2.89,3.43-10.47,3.58-8.09,12.34c7.8-4.27,14.98-8.2,20.46-11.2c4.05,0.91,6.92,2.48,9.32,1.94
		C237.9,253.871,249.67,256.561,261.76,264.341z M231.85,355.351c0.28-3.15-0.26-6.37-0.46-10.17c-5.14,0.64-9.39,1.17-12.77,1.58
		c-2.32,12.89-3.96,24.86-6.73,36.55c-2.14,9.04-8.09,13.04-16.69,13.19c-8.82,0.15-14.13-3.71-17.41-12.39
		c-3.74-9.87-3.94-20.08-3.4-30.42c0.18-3.57,0.03-7.15,0.03-11.01c-5.04,0.63-9.39,1.17-14.87,1.86c-0.32,4-1,6.91-0.7,9.72
		c1.33,12.4,2.5,24.84,4.55,37.13c2.57,15.32,12.4,23.92,26.89,29.01c13.14,4.62,36.34-7.94,37.48-22.37
		C228.9,383.781,230.6,369.581,231.85,355.351z M232.3,338.431c-3.19-24.62-6.23-48.08-9.44-72.91c-4.67,1.42-7.87,2.4-11.65,3.55
		c1.99,24.27,3.91,47.52,5.89,71.55C222.03,339.911,226.27,339.301,232.3,338.431z M219.51,120.661c-0.22-3.53-0.45-7.26-0.7-11.26
		c-7.36,0.75-7.45,5.3-6.7,9.61C212.82,123.031,215.76,122.571,219.51,120.661z M188.25,264.391c-1.47-22.21-2.99-43.34-4.23-64.49
		c-1.29-21.86,3.94-42.78,11.22-63.97c-23.65,5.87-52.67,37.72-55.22,59.71c3.9-2.11,7.63-4.13,11.34-6.13
		c-4.95,4.67-9.88,9.37-14.87,14c-3.39,3.15-7.18,6.05-5.67,12.38c5.5-3.91,10.35-7.36,15.21-10.82c-0.88,3.46-2.84,5.66-5.26,7.08
		c-11.83,6.93-16.62,18.07-18.79,30.8c-1.64,9.56-3.07,19.16-4.59,28.74c0.85,0.46,1.71,0.92,2.57,1.38
		c9.23-10.47,18.52-20.85,30.37-28.11c0.89,0.93,1.77,1.86,2.66,2.8c-6.1,4.89-12.19,9.79-18.29,14.68
		C153.3,259.551,170.89,256.421,188.25,264.391z M174.79,139.821c1.12-0.77,2.06-1.81,5.05-4.46c-17.12,1.41-30,7.41-42.18,14.55
		c-9.66,5.66-18.52,12.73-27.5,19.49c-4.67,3.52-10.56,6.92-12.78,11.79c-2.66,5.81-6.36,9.43-11.18,12.87
		c-5.43,3.87-8.26,9.57-9.51,16.32c5.18-3.11,10.36-6.21,15.54-9.32c-4.97,6.05-10.99,10.23-16.97,14.46
		c-5.11,3.63-7.33,8.46-6.55,15.39c9.1-4.4,15.67-11.55,24.75-14.25c-6.94,6.21-14.16,11.93-21.89,16.88
		c-6,3.84-8.82,8.47-7.09,16.48c8.03-6.45,15.61-12.55,23.19-18.65c0.49,0.56,0.97,1.13,1.46,1.7c-7.57,6.97-15.1,13.99-22.73,20.91
		c-3.85,3.49-6,7.18-2.27,13.43c16.43-8.83,31.98-4.77,48.01,5.54c0.33-21.58,5.67-40.33,11.91-58.65
		C134.04,184.961,148.22,158.061,174.79,139.821z"/>
	<path style="fill:#0071BC;" d="M387.49,243.741c0.07,4.71,0.77,9.41,1.24,14.77c-8.98,0.62-17.47,0.43-25.63,1.98
		c-7.84,1.5-15.32,4.8-23.96,7.64c0.61-51.26-23.35-91.05-57.09-129.14c6.78,2.41,11.46,4.21,16.24,5.74
		c34.36,11,58.36,34.75,77.88,63.76C383.25,219.001,387.29,230.811,387.49,243.741z"/>
	<path style="fill:#C1272D;" d="M377.85,80.211c0.37,10.03-1.1,19.71-4.45,29.12c-1.47,4.14-4.11,6.63-8.96,6.57
		c-7.68-0.09-15.36,0.28-23.04,0.33c-2.55,0.01-5.52,0.36-7.54-0.77c-2.95-1.65-6.48-4.13-7.32-6.98c-0.59-1.97,2.36-6.2,4.77-7.58
		c5.33-3.04,11.33-4.9,15.17-6.48c4.67-8.47,7.92-14.8,11.58-20.88c2.51-4.16,6.24-4.08,10.58-2.48
		C373.26,72.761,377.62,73.991,377.85,80.211z"/>
	<path style="fill:#C1272D;" d="M347.5,39.271c1.93,18.02-3.94,23.6-21.51,20.41c-0.71-0.13-1.38-0.54-2.1-0.64
		c-4.52-0.59-9.27-1.41-9.86-6.91c-0.67-6.26,4.45-7.67,9.12-9.05c1.4-0.41,2.86-0.62,4.98-1.06c0.43-1.8,0.72-2.84,0.93-3.88
		c1.45-6.92,4.62-10.22,9.43-9.79C343.35,28.791,346.83,33.011,347.5,39.271z"/>
	<path style="fill:#0071BC;" d="M328.43,229.291c4.04,11.62,5.49,21.24,4.63,35.46c-16.52-6.6-31.16-9.33-64.52,2.98
		c3.14-46.73-4.43-91.34-26.81-133.62c8.15-1.44,15.76-0.64,21.56,3.49c9.79,6.98,19.9,14.33,27.41,23.54
		C307.26,181.461,319.76,204.401,328.43,229.291z"/>
	<path style="fill:#C1272D;" d="M285.5,63.581c0.66,9.7-0.61,19.2-4.75,27.97c-1.16,2.47-4.82,5.42-7.25,5.34
		c-8.37-0.28-16.69-1.81-25.04-2.85c-4.68-0.59-8.84-2.27-9.91-7.31c-1.22-5.71,2.58-9.08,7.16-11.02
		c4.67-1.99,9.73-3.08,15.63-4.87c1.18-3.62,1.99-7.23,3.49-10.52c2.63-5.74,7.13-8.18,12.25-6.97
		C282.39,54.611,285.12,58.171,285.5,63.581z"/>
	<path style="fill:#C1272D;" d="M278.21,7.511c3.84,12.92-3.33,20.35-20.04,20.23c-0.27-0.01-2.02,0.4-3.13-0.27
		c-2.62-1.57-6.51-3.35-6.93-5.61c-0.42-2.19,2.26-6.32,4.6-7.4c4.69-2.17,8.48-3.95,10.28-9.6c0.78-2.42,5.91-5.28,8.47-4.81
		C274.15,0.551,277.31,4.471,278.21,7.511z"/>
	<path style="fill:#0071BC;" d="M261.08,216.081c1.96,15.6,3.93,31.21,0.68,48.26c-12.09-7.78-23.86-10.47-36.85-7.55
		c-2.4,0.54-5.27-1.03-9.32-1.94c-5.48,3-12.66,6.93-20.46,11.2c-2.38-8.76,5.2-8.91,8.09-12.34c3.04-3.6,6.93-6.49,10.05-10.28
		c-8.05,1.37-12.68,8.26-20.61,11.5c0.75-1.9,0.98-4.38,2.34-5.59c6.31-5.64,12.97-10.88,19.42-16.35c2.63-2.22,5.06-4.67,7.58-7.02
		c-0.46-0.54-0.92-1.08-1.38-1.62c-9.18,7.01-18.35,14.02-27.49,21c-2.85-5.08-2.85-5.08,5.37-14.81c-2.24,1.26-4.47,2.51-7.47,4.2
		c-2.87-35.39-5.04-69.74,12.47-103.28c4.73,0,10.22,0.42,15.63-0.09c10.53-1,16.17,4.62,20.61,13.23
		C251.36,167.121,257.94,191.081,261.08,216.081z"/>
	<path style="fill:#2E3192;" d="M231.39,345.181c0.2,3.8,0.74,7.02,0.46,10.17c-1.25,14.23-2.95,28.43-4.08,42.68
		c-1.14,14.43-24.34,26.99-37.48,22.37c-14.49-5.09-24.32-13.69-26.89-29.01c-2.05-12.29-3.22-24.73-4.55-37.13
		c-0.3-2.81,0.38-5.72,0.7-9.72c5.48-0.69,9.83-1.23,14.87-1.86c0,3.86,0.15,7.44-0.03,11.01c-0.54,10.34-0.34,20.55,3.4,30.42
		c3.28,8.68,8.59,12.54,17.41,12.39c8.6-0.15,14.55-4.15,16.69-13.19c2.77-11.69,4.41-23.66,6.73-36.55
		C222,346.351,226.25,345.821,231.39,345.181z"/>
	<path style="fill:#29ABE2;" d="M222.86,265.521c3.21,24.83,6.25,48.29,9.44,72.91c-6.03,0.87-10.27,1.48-15.2,2.19
		c-1.98-24.03-3.9-47.28-5.89-71.55C214.99,267.921,218.19,266.941,222.86,265.521z"/>
	<path style="fill:#29ABE2;" d="M218.81,109.401c0.25,4,0.48,7.73,0.7,11.26c-3.75,1.91-6.69,2.37-7.4-1.65
		C211.36,114.701,211.45,110.151,218.81,109.401z"/>
	<path style="fill:#C1272D;" d="M203.72,37.531c6.33,11.03,4.26,22.73,0.54,34.07c-0.64,1.97-3.61,3.79-5.88,4.52
		c-11.05,3.59-21.85,2.99-31.61-3.85c-8.22-5.77-7.49-12.48,2.08-16.22c5.67-2.21,11.94-2.89,17.78-4.22
		c0.24-4.21-0.42-8.49,0.96-11.96c1.17-2.95,4.47-6.55,7.25-6.96C197.61,32.511,202.25,34.981,203.72,37.531z"/>
	<path style="fill:#0071BC;" d="M184.02,199.901c1.24,21.15,2.76,42.28,4.23,64.49c-17.36-7.97-34.95-4.84-53.55-1.95
		c6.1-4.89,12.19-9.79,18.29-14.68c-0.89-0.94-1.77-1.87-2.66-2.8c-11.85,7.26-21.14,17.64-30.37,28.11
		c-0.86-0.46-1.72-0.92-2.57-1.38c1.52-9.58,2.95-19.18,4.59-28.74c2.17-12.73,6.96-23.87,18.79-30.8c2.42-1.42,4.38-3.62,5.26-7.08
		c-4.86,3.46-9.71,6.91-15.21,10.82c-1.51-6.33,2.28-9.23,5.67-12.38c4.99-4.63,9.92-9.33,14.87-14c0.35-0.2,0.69-0.38,1.04-0.57
		c0.22-0.23,0.43-0.45,0.64-0.68c2.18-1.18,4.36-2.37,6.55-3.56c-0.49-0.61-0.97-1.22-1.45-1.83c-1.7,1.79-3.39,3.6-5.1,5.39
		c-0.28,0.16-0.56,0.31-0.84,0.46c0,0,0.01,0.02,0.03,0.04l-0.04-0.04c-0.28,0.26-0.55,0.52-0.83,0.79c-3.71,2-7.44,4.02-11.34,6.13
		c2.55-21.99,31.57-53.84,55.22-59.71C187.96,157.121,182.73,178.041,184.02,199.901z M146.24,218.601
		c-5.44,4.53-10.88,9.07-16.32,13.6c0.53,0.64,1.06,1.28,1.59,1.92c2.76-2.29,5.62-4.49,8.27-6.9
		C142.41,224.821,145.97,223.151,146.24,218.601z M145.32,235.111c-0.57-0.61-1.15-1.22-1.72-1.84c-2.74,2.31-5.49,4.61-8.23,6.92
		c0.38,0.49,0.76,0.98,1.14,1.48C139.45,239.481,142.39,237.301,145.32,235.111z"/>
	<path style="fill:#0071BC;" d="M179.84,135.361c-2.99,2.65-3.93,3.69-5.05,4.46c-26.57,18.24-40.75,45.14-50.74,74.48
		c-6.24,18.32-11.58,37.07-11.91,58.65c-16.03-10.31-31.58-14.37-48.01-5.54c-3.73-6.25-1.58-9.94,2.27-13.43
		c7.63-6.92,15.16-13.94,22.73-20.91c-0.49-0.57-0.97-1.14-1.46-1.7c-7.58,6.1-15.16,12.2-23.19,18.65
		c-1.73-8.01,1.09-12.64,7.09-16.48c7.73-4.95,14.95-10.67,21.89-16.88c-9.08,2.7-15.65,9.85-24.75,14.25
		c-0.78-6.93,1.44-11.76,6.55-15.39c5.98-4.23,12-8.41,16.97-14.46c-5.18,3.11-10.36,6.21-15.54,9.32
		c1.25-6.75,4.08-12.45,9.51-16.32c4.82-3.44,8.52-7.06,11.18-12.87c2.22-4.87,8.11-8.27,12.78-11.79
		c8.98-6.76,17.84-13.83,27.5-19.49C149.84,142.771,162.72,136.771,179.84,135.361z"/>
	<path d="M158.14,182.871c0.48,0.61,0.96,1.22,1.45,1.83c-2.19,1.19-4.37,2.38-6.55,3.56
		C154.75,186.471,156.44,184.661,158.14,182.871z"/>
	<path d="M153.04,188.261c-0.21,0.23-0.42,0.45-0.64,0.68c0,0-0.12-0.12-0.17-0.18c-0.02-0.02-0.03-0.04-0.03-0.04
		C152.48,188.571,152.76,188.421,153.04,188.261z"/>
	<path d="M152.23,188.761c0.05,0.06,0.17,0.18,0.17,0.18c-0.35,0.19-0.69,0.37-1.04,0.57c0.28-0.27,0.55-0.53,0.83-0.79
		L152.23,188.761z"/>
	<path d="M129.92,232.201c5.44-4.53,10.88-9.07,16.32-13.6c-0.27,4.55-3.83,6.22-6.46,8.62c-2.65,2.41-5.51,4.61-8.27,6.9
		C130.98,233.481,130.45,232.841,129.92,232.201z"/>
	<path d="M143.6,233.271c0.57,0.62,1.15,1.23,1.72,1.84c-2.93,2.19-5.87,4.37-8.81,6.56c-0.38-0.5-0.76-0.99-1.14-1.48
		C138.11,237.881,140.86,235.581,143.6,233.271z"/>
	<path style="fill:#C1272D;" d="M128.35,84.291c0.84,9.09-1.33,17.88-5.76,25.39c-8.93,15.15-39.19,14.83-48.47,0.08
		c-2.5-3.97-2.21-7.64,0.99-10.98c4.97-5.18,10.78-8.78,18.22-8.99c2.88-0.08,5.77-0.01,7.79-0.01c3.11-4.78,5.3-8.97,8.29-12.49
		c3.04-3.59,7.45-4.79,12.04-3.27C126.23,75.611,127.91,79.591,128.35,84.291z"/>
	<path style="fill:#C1272D;" d="M118.37,31.571c2.51,7.49,1.18,15.13-1.82,22.38c-0.37,0.89-1.39,1.67-2.3,2.17
		c-6.17,3.42-19.02,1.24-26.94-6.01c5.68-3.17,10.25-5.73,15.75-8.8c0.3-2.36,0.01-6.26,1.46-9.35c1.19-2.54,4.4-5.66,6.77-5.71
		C113.7,26.201,117.56,29.141,118.37,31.571z"/>
	<path style="fill:#C1272D;" d="M59.88,151.501c1.26,7.4,1.1,15.1,0.9,22.66c-0.04,1.43-2.84,3.18-4.7,4.1
		c-8.09,4.03-16.77,5.06-25.7,4.27c-4.84-0.42-8.85-2.63-9.27-7.73c-0.41-4.99,3.03-8.23,7.62-9.49c3.81-1.03,7.85-1.2,12.88-1.91
		c0-3.38,0.02-5.94-0.01-8.5c-0.05-4.56,1.88-7.82,6.36-9.12C51.84,144.661,59.19,147.411,59.88,151.501z"/>
</g>
<g>
</g>
<g>
</g>
<g>
</g>
<g>
</g>
<g>
</g>
<g>
</g>
<g>
</g>
<g>
</g>
<g>
</g>
<g>
</g>
<g>
</g>
<g>
</g>
<g>
</g>
<g>
</g>
<g>
</g>
</svg>
