<?xml version="1.0" encoding="iso-8859-1"?>
<!-- Generator: Adobe Illustrator 18.0.0, SVG Export Plug-In . SVG Version: 6.00 Build 0)  -->
<!DOCTYPE svg PUBLIC "-//W3C//DTD SVG 1.1//EN" "http://www.w3.org/Graphics/SVG/1.1/DTD/svg11.dtd">
<svg version="1.1" id="Capa_1" xmlns="http://www.w3.org/2000/svg" xmlns:xlink="http://www.w3.org/1999/xlink" x="0px" y="0px"
	 viewBox="0 0 414.959 414.959" style="enable-background:new 0 0 414.959 414.959;" xml:space="preserve">
<g>
	<path d="M410.409,377.568c0.27,6.56-5.2,10.19-10.43,12.67c-25.18,11.95-50.73,23.28-79.07,24.57c-8.38,0.38-17.23-1.9-25.3-4.63
		c-8.97-3.03-10.93-9.89-6.42-18.25c5.82-10.81,11.64-21.64,18.1-32.07c7-11.27,6.98-23.24,5.03-35.58
		c-0.9-5.69-2.2-11.33-3.39-16.97c-0.52-2.47-0.68-5.23-1.92-7.31c-10.36-17.32-14.57-36.95-20.73-55.79
		c-2.56-7.81-6.36-13.04-14.26-14.26c-15.24-2.37-22.76-12.61-28.01-25.73c-9.69-24.24-16.57-49.27-22.1-74.76
		c-3.9-17.94-8.67-35.7-13.06-53.54c-0.84,0.1-1.69,0.19-2.53,0.28c-1.99,7.96-3.78,15.97-6,23.86
		c-8.3,29.51-12.39,60.15-23.64,88.87c-3.16,8.06-6.25,16.17-9.86,24.03c-3.84,8.33-10.32,14.3-19.51,15.72
		c-11.67,1.8-16.88,8.46-19.8,19.55c-3.84,14.61-8.27,29.37-14.89,42.87c-6.73,13.73-8.62,28.05-10.54,42.6
		c-1.32,10,1.31,19.08,6.76,27.75c6.32,10.08,11.89,20.65,17.45,31.18c4.15,7.87,2.06,13.85-6.36,17.54
		c-9.03,3.96-18.49,5.37-28.55,4.58c-26.14-2.06-49.56-12.46-73.01-22.83c-3.86-1.71-7.57-4.36-10.55-7.37
		c-4.81-4.88-4.26-9.51,1.2-13.82c2.52-1.99,5.6-3.27,8.39-4.94c9.29-5.57,18.63-11.07,27.83-16.79
		c7.35-4.57,12.32-11.08,14.53-19.53c3.28-12.55,6.82-25.05,9.68-37.71c3.75-16.56,6.99-33.24,10.34-49.9
		c0.79-3.89,1.49-7.85,1.66-11.8c0.3-6.94-2.47-12.46-8.13-16.81c-18.8-14.46-25.69-34.9-19.24-57.5
		c3.07-10.75,6.89-21.29,10.27-31.96c6.76-21.31,13.84-42.54,20-64.02c2.77-9.64,4.04-19.77,5.31-29.76
		c3.19-24.97,20.18-34.33,43.66-28.18c20.56,5.38,40.77,12.13,61.01,18.65c4.71,1.51,8.93,4.54,12.14,6.23
		c8.7-3.27,16.59-6.57,24.7-9.21c14.72-4.8,29.52-9.39,44.4-13.69c5.82-1.68,11.91-3,17.94-3.34c16.39-0.94,27.3,7.91,30.87,24.18
		c4.33,19.7,8,39.59,13.26,59.04c4.62,17.06,11.34,33.53,16.55,50.44c3.49,11.33,7.52,22.83,8.52,34.49
		c1.58,18.27-4.44,34.1-20.87,44.74c-7.42,4.81-9.74,12.3-7.95,20.92c2.43,11.67,5.06,23.29,7.39,34.98
		c1.83,9.21,2.78,18.63,5.13,27.69c3.41,13.23,6.92,26.56,12.03,39.18c2.23,5.52,7.94,10.24,13.11,13.84
		c8.86,6.18,18.51,11.23,27.89,16.66C404.119,369.338,410.149,371.378,410.409,377.568z M392.409,385.028
		c2.87-1.04,5.3-3.28,9.6-6.02c-12.86-7.56-23.72-13.96-34.58-20.34c-9.31-5.46-16.96-12.48-20.12-23.15
		c-2.66-9-5.08-18.08-7.06-27.25c-2.98-13.75-5.44-27.6-8.2-41.4c-2.48-12.39-5.39-24.71-7.53-37.17
		c-1.87-10.88,1.39-20.05,11.25-26.09c9.02-5.53,13.08-14.09,14.84-24.07c1.53-8.69,0.78-17.18-1.96-25.59
		c-8.28-25.4-16.55-50.83-21.54-77.14c-3.36-17.76-7.22-35.35-13.55-52.34c-3.56-9.56-10.12-14.67-20.31-14.6
		c-4.25,0.03-8.62,0.81-12.7,2.04c-18.65,5.61-37.18,11.6-55.81,17.26c-9.37,2.84-12.17,5.83-11.33,15.35
		c0.72,8.22,1.93,16.47,3.84,24.49c5.1,21.4,10.84,42.66,16.05,64.03c5.74,23.55,13.56,46.38,22.68,68.8
		c3.87,9.5,9.54,16.82,20.36,19.06c9.34,1.94,14.74,8.19,17.74,17.15c8.8,26.32,18.15,52.47,26.72,78.86
		c5.47,16.82,5.01,33.28-4.79,49.01c-5.71,9.15-10.18,19.08-15.07,28.74c-0.75,1.48-0.78,3.32-1.16,5.13
		c9.47,7.02,19.67,4.68,29.61,3.92C351.719,401.998,371.779,392.508,392.409,385.028z M201.859,45.788
		c0.77-10.13-1.58-13.82-11.21-16.53c-7.98-2.24-16.04-4.21-23.93-6.71c-11.36-3.59-22.57-7.66-33.91-11.32
		c-13.58-4.38-26.47-0.11-30.36,10.97c-4.3,12.22-7.78,24.79-10.85,37.39c-5.97,24.52-9.6,49.59-18.67,73.35
		c-3.46,9.07-6.34,18.5-8.12,28.02c-3.27,17.46-0.28,33.03,16.04,43.72c8.79,5.76,11.38,14.61,9.74,24.61
		c-1.52,9.25-3.54,18.42-5.47,27.61c-5.05,24-10.23,47.97-15.24,71.98c-2.85,13.67-10.68,23.45-22.76,30.09
		c-3.16,1.74-6.29,3.55-9.38,5.4c-7.61,4.56-15.2,9.17-24.81,14.98c6.11,3.26,10.21,5.91,14.65,7.71
		c8.01,3.24,16.27,5.86,24.34,8.95c15.38,5.9,31.44,7.97,47.73,8.54c5.77,0.2,11.54-0.55,16.15-5.64c-0.8-1.97-1.45-4.01-2.42-5.88
		c-5.79-11.23-11.87-22.3-17.37-33.67c-2.15-4.45-3.44-9.43-4.4-14.31c-1.99-10.21,0.12-20.14,3.29-29.81
		c4.38-13.36,9.1-26.61,13.64-39.92c4.44-13,8.84-26,13.24-39c2.48-7.33,6.9-13.04,14.72-14.51c13.06-2.46,19.54-11.31,23.83-22.72
		c1.78-4.73,3.92-9.35,5.35-14.18c7.46-25.24,15.15-50.43,21.98-75.85C193.269,88.198,200.189,67.578,201.859,45.788z"/>
	<path style="fill:#9ACCE2;" d="M402.009,379.008c-4.3,2.74-6.73,4.98-9.6,6.02c-20.63,7.48-40.69,16.97-63.02,18.68
		c-9.94,0.76-20.14,3.1-29.61-3.92c0.38-1.81,0.41-3.65,1.16-5.13c4.89-9.66,9.36-19.59,15.07-28.74
		c9.8-15.73,10.26-32.19,4.79-49.01c-8.57-26.39-17.92-52.54-26.72-78.86c-3-8.96-8.4-15.21-17.74-17.15
		c-10.82-2.24-16.49-9.56-20.36-19.06c-9.12-22.42-16.94-45.25-22.68-68.8c-5.21-21.37-10.95-42.63-16.05-64.03
		c-1.91-8.02-3.12-16.27-3.84-24.49c-0.84-9.52,1.96-12.51,11.33-15.35c18.63-5.66,37.16-11.65,55.81-17.26
		c4.08-1.23,8.45-2.01,12.7-2.04c10.19-0.07,16.75,5.04,20.31,14.6c6.33,16.99,10.19,34.58,13.55,52.34
		c4.99,26.31,13.26,51.74,21.54,77.14c2.74,8.41,3.49,16.9,1.96,25.59c-1.76,9.98-5.82,18.54-14.84,24.07
		c-9.86,6.04-13.12,15.21-11.25,26.09c2.14,12.46,5.05,24.78,7.53,37.17c2.76,13.8,5.22,27.65,8.2,41.4
		c1.98,9.17,4.4,18.25,7.06,27.25c3.16,10.67,10.81,17.69,20.12,23.15C378.289,365.048,389.149,371.448,402.009,379.008z
		 M326.539,201.438c10.38-4.14,16.96-12.31,16.03-24.44c-0.58-7.54-0.8-15.28-2.78-22.5c-5.95-21.58-12.49-43.01-19.19-64.38
		c-3.59-11.46-5.62-12.42-17.29-11.14c-2.15,0.24-4.29,0.6-6.43,0.97c-18.77,3.28-37.23,7.64-54.8,15.24
		c0.02-0.11,0.05-0.21,0.07-0.32c-0.06,0.06-0.11,0.12-0.17,0.18c2.61-4.74,5.2-9.47,7.8-14.2c-0.69-0.36-1.38-0.72-2.07-1.08
		c-4.11,5.15-7.65,10.63-8.19,17.93c0.81-0.89,1.64-1.77,2.46-2.65c-0.04,0.08-0.09,0.16-0.13,0.24c0.08-0.03,0.15-0.07,0.23-0.1
		c-2.11,9.96,2.55,18.96,4.18,28.39c3.57,20.59,7.63,41.06,14.44,60.91c1.34,3.91,1.67,8.18,2.63,13.13
		c0.45,0.18,2.97,0.42,3.54,1.6c5.93,12.22,15.7,13.49,27.32,10.15c1.01-0.3,2.2,0.01,3.23-0.24
		C307.169,206.688,317.289,205.138,326.539,201.438z M326.959,367.148c5.29-4.26,9.01-7.26,12.73-10.26
		C331.329,358.228,331.329,358.228,326.959,367.148z M325.589,377.848c2.5-2.72,4.99-5.45,7.49-8.17c-0.46-0.36-0.91-0.73-1.37-1.1
		c-2.5,2.71-5,5.41-7.5,8.12C324.669,377.078,325.129,377.468,325.589,377.848z M327.799,392.798c1.42-2.19,2.84-4.38,4.26-6.57
		c-0.59-0.39-1.19-0.77-1.78-1.16c-1.46,2.16-2.92,4.33-4.38,6.49C326.539,391.978,327.169,392.388,327.799,392.798z
		 M310.689,267.508c5.14-5.1,6.1-10.17,4.88-15.96C311.899,255.768,308.739,260.138,310.689,267.508z M303.649,245.718
		c2.99-5.12,5.99-10.24,8.98-15.36c-0.73-0.41-1.45-0.81-2.18-1.22c-3.78,4.74-8.48,8.93-9.27,15.47
		C301.999,244.978,302.819,245.348,303.649,245.718z M300.719,231.768c2.53-5.3,5.06-10.59,7.59-15.89
		c-0.82-0.39-1.63-0.78-2.45-1.17C302.599,219.648,298.369,224.118,300.719,231.768z M305.139,29.518c2.88-3.42,1.88-6.71-1.34-9.41
		c-5.47-4.58-17.21-3.49-23.26,2.26c6.61,1.03,13.76-2.57,19.79,2.39c-3.66,5.57-3.51,6.08-27.06,13.16
		c-13.32,4.01-27.18,6.66-41.19,6.18c-0.28-0.93-0.56-1.87-0.84-2.8c5.72-3.47,11.43-6.93,17.99-10.9
		c-10.25-1.82-16.96,0.4-22.68,8.12c-1.84,2.48-2.98,7.17-1.84,9.66c1.12,2.41,5.51,4.45,8.56,4.58c4.94,0.2,9.93-1.62,14.94-1.99
		c18.41-1.38,34.64-9.37,51.11-16.62C301.529,33.178,303.569,31.388,305.139,29.518z M234.899,90.728
		c3.22-7.19,6.44-14.39,9.65-21.58c-0.72-0.34-1.45-0.68-2.18-1.02C237.669,74.618,232.529,80.898,234.899,90.728z M231.939,78.698
		c1.07-2.73,2.14-5.46,3.21-8.2c-0.58-0.15-1.17-0.3-1.76-0.45c-1.03,2.68-2.05,5.35-3.08,8.03
		C230.849,78.288,231.399,78.498,231.939,78.698z"/>
	<path d="M342.569,176.998c0.93,12.13-5.65,20.3-16.03,24.44c-9.25,3.7-19.37,5.25-29.12,7.69c-1.03,0.25-2.22-0.06-3.23,0.24
		c-11.62,3.34-21.39,2.07-27.32-10.15c-0.57-1.18-3.09-1.42-3.54-1.6c-0.96-4.95-1.29-9.22-2.63-13.13
		c-6.81-19.85-10.87-40.32-14.44-60.91c-1.63-9.43-6.29-18.43-4.18-28.39c17.57-7.6,36.03-11.96,54.8-15.24
		c2.14-0.37,4.28-0.73,6.43-0.97c11.67-1.28,13.7-0.32,17.29,11.14c6.7,21.37,13.24,42.8,19.19,64.38
		C341.769,161.718,341.989,169.458,342.569,176.998z M322.009,197.068c9.2-3.26,15.19-9.68,13.6-20.59
		c-0.72-4.97-1.12-10.01-2.19-14.91c-3.22-14.76-6.31-29.57-10.2-44.16c-2.44-9.19-4.17-18.86-10.52-27.86
		c-7.53,10.31-18.52,12.16-28.41,16.46c-10.81,4.71-21.97,2.46-33.72,3.72c1.15,6.72,2.21,12.91,3.38,19.78
		c2.37-1.76,3.86-2.86,5.69-4.22c1.67,8.22-6.62,15.8,0.16,24.27c3.07-5.84,5.68-10.81,8.29-15.77
		c2.18,12.16-11.49,21.81-3.56,35.22c2.9-5.37,5.43-10.04,7.95-14.72c0.66,8.93-5.77,15.74-5.43,25.34c2.63-2.04,4.26-3.3,6.6-5.12
		c-0.88,6.29-2.96,11.49-1.86,15.89c1.24,4.95,4.59,10.09,8.51,13.35c2.14,1.78,7.36-0.17,11.19-0.4c1.8-0.1,3.67,0.15,5.4-0.24
		C305.309,201.238,313.929,199.918,322.009,197.068z M308.919,84.738c-7.85,1.7-14.26,3.07-20.67,4.48
		c-6.28,1.39-12.55,2.85-18.84,4.2c-6.25,1.34-12.92,1.72-18.49,7.41C273.499,106.508,299.189,99.698,308.919,84.738z"/>
	<path style="fill:#C1272D;" d="M335.609,176.478c1.59,10.91-4.4,17.33-13.6,20.59c-8.08,2.85-16.7,4.17-25.12,6.04
		c-1.73,0.39-3.6,0.14-5.4,0.24c-3.83,0.23-9.05,2.18-11.19,0.4c-3.92-3.26-7.27-8.4-8.51-13.35c-1.1-4.4,0.98-9.6,1.86-15.89
		c-2.34,1.82-3.97,3.08-6.6,5.12c-0.34-9.6,6.09-16.41,5.43-25.34c-2.52,4.68-5.05,9.35-7.95,14.72
		c-7.93-13.41,5.74-23.06,3.56-35.22c-2.61,4.96-5.22,9.93-8.29,15.77c-6.78-8.47,1.51-16.05-0.16-24.27
		c-1.83,1.36-3.32,2.46-5.69,4.22c-1.17-6.87-2.23-13.06-3.38-19.78c11.75-1.26,22.91,0.99,33.72-3.72
		c9.89-4.3,20.88-6.15,28.41-16.46c6.35,9,8.08,18.67,10.52,27.86c3.89,14.59,6.98,29.4,10.2,44.16
		C334.489,166.468,334.889,171.508,335.609,176.478z"/>
	<path d="M339.689,356.888c-3.72,3-7.44,6-12.73,10.26C331.329,358.228,331.329,358.228,339.689,356.888z"/>
	<path d="M333.079,369.678c-2.5,2.72-4.99,5.45-7.49,8.17c-0.46-0.38-0.92-0.77-1.38-1.15c2.5-2.71,5-5.41,7.5-8.12
		C332.169,368.948,332.619,369.318,333.079,369.678z"/>
	<path d="M332.059,386.228c-1.42,2.19-2.84,4.38-4.26,6.57c-0.63-0.41-1.26-0.82-1.9-1.24c1.46-2.16,2.92-4.33,4.38-6.49
		C330.869,385.458,331.469,385.838,332.059,386.228z"/>
	<path d="M315.569,251.548c1.22,5.79,0.26,10.86-4.88,15.96C308.739,260.138,311.899,255.768,315.569,251.548z"/>
	<path d="M312.629,230.358c-2.99,5.12-5.99,10.24-8.98,15.36c-0.83-0.37-1.65-0.74-2.47-1.11c0.79-6.54,5.49-10.73,9.27-15.47
		C311.179,229.548,311.899,229.948,312.629,230.358z"/>
	<path d="M308.309,215.878c-2.53,5.3-5.06,10.59-7.59,15.89c-2.35-7.65,1.88-12.12,5.14-17.06
		C306.679,215.098,307.489,215.488,308.309,215.878z"/>
	<path d="M303.799,20.108c3.22,2.7,4.22,5.99,1.34,9.41c-1.57,1.87-3.61,3.66-5.82,4.63c-16.47,7.25-32.7,15.24-51.11,16.62
		c-5.01,0.37-10,2.19-14.94,1.99c-3.05-0.13-7.44-2.17-8.56-4.58c-1.14-2.49,0-7.18,1.84-9.66c5.72-7.72,12.43-9.94,22.68-8.12
		c-6.56,3.97-12.27,7.43-17.99,10.9c0.28,0.93,0.56,1.87,0.84,2.8c14.01,0.48,27.87-2.17,41.19-6.18
		c23.55-7.08,23.4-7.59,27.06-13.16c-6.03-4.96-13.18-1.36-19.79-2.39C286.589,16.618,298.329,15.528,303.799,20.108z"/>
	<path style="fill:#C1272D;" d="M288.249,89.218c6.41-1.41,12.82-2.78,20.67-4.48c-9.73,14.96-35.42,21.77-58,16.09
		c5.57-5.69,12.24-6.07,18.49-7.41C275.699,92.068,281.969,90.608,288.249,89.218z"/>
	<path d="M249.779,80.848c-2.6,4.73-5.19,9.46-7.8,14.2c-0.82,0.88-1.65,1.76-2.46,2.65c0.54-7.3,4.08-12.78,8.19-17.93
		C248.399,80.128,249.089,80.488,249.779,80.848z"/>
	<path d="M244.549,69.148c-3.21,7.19-6.43,14.39-9.65,21.58c-2.37-9.83,2.77-16.11,7.47-22.6
		C243.099,68.468,243.829,68.808,244.549,69.148z"/>
	<path d="M242.149,94.868c-0.02,0.11-0.05,0.21-0.07,0.32c-0.08,0.03-0.15,0.07-0.23,0.1L242.149,94.868z"/>
	<path d="M242.149,94.868l-0.3,0.42c0.04-0.08,0.09-0.16,0.13-0.24C242.039,94.988,242.089,94.928,242.149,94.868z"/>
	<path d="M235.149,70.498c-1.07,2.74-2.14,5.47-3.21,8.2c-0.54-0.2-1.09-0.41-1.63-0.62c1.03-2.68,2.05-5.35,3.08-8.03
		C233.979,70.198,234.569,70.348,235.149,70.498z"/>
	<path style="fill:#9ACCE2;" d="M190.649,29.258c9.63,2.71,11.98,6.4,11.21,16.53c-1.67,21.79-8.59,42.41-14.2,63.27
		c-6.83,25.42-14.52,50.61-21.98,75.85c-1.43,4.83-3.57,9.45-5.35,14.18c-4.29,11.41-10.77,20.26-23.83,22.72
		c-7.82,1.47-12.24,7.18-14.72,14.51c-4.4,13-8.8,26-13.24,39c-4.54,13.31-9.26,26.56-13.64,39.92c-3.17,9.67-5.28,19.6-3.29,29.81
		c0.96,4.88,2.25,9.86,4.4,14.31c5.5,11.37,11.58,22.44,17.37,33.67c0.97,1.87,1.62,3.91,2.42,5.88
		c-4.61,5.09-10.38,5.84-16.15,5.64c-16.29-0.57-32.35-2.64-47.73-8.54c-8.07-3.09-16.33-5.71-24.34-8.95
		c-4.44-1.8-8.54-4.45-14.65-7.71c9.61-5.81,17.2-10.42,24.81-14.98c3.09-1.85,6.22-3.66,9.38-5.4
		c12.08-6.64,19.91-16.42,22.76-30.09c5.01-24.01,10.19-47.98,15.24-71.98c1.93-9.19,3.95-18.36,5.47-27.61
		c1.64-10-0.95-18.85-9.74-24.61c-16.32-10.69-19.31-26.26-16.04-43.72c1.78-9.52,4.66-18.95,8.12-28.02
		c9.07-23.76,12.7-48.83,18.67-73.35c3.07-12.6,6.55-25.17,10.85-37.39c3.89-11.08,16.78-15.35,30.36-10.97
		c11.34,3.66,22.55,7.73,33.91,11.32C174.609,25.048,182.669,27.018,190.649,29.258z M183.609,52.858
		c7.34-0.28,10.86-7.67,6.03-13.08c-3.72-4.18-8.77-7.41-13.71-10.18c-2.78-1.56-6.63-1.64-9.96,1.7
		c6.1,4.11,14.25,3.79,17.83,13.06c-23.48-0.45-44.72-6.52-65.52-14.53c-1.62-0.62-2.64-2.8-4.26-4.63
		c6.69-5.61,14.25-1.45,22.39-3.4c-8.24-5.62-15.67-5.17-22.84-3c-5.74,1.73-6.76,7.74-2.54,12.07c1.46,1.5,3.39,2.72,5.32,3.58
		c17.13,7.66,34.21,15.42,53.37,16.64C174.369,51.378,179.009,53.038,183.609,52.858z M173.109,105.438
		c1.31-5.47-0.61-9.22-5.14-11.81c-3.12-1.78-6.35-3.71-9.78-4.53c-14.7-3.52-29.41-7.08-44.28-9.81
		c-13.43-2.46-14.99-0.71-19.95,11.79c-6.19,15.58-8.43,32.74-17.33,44.78c0.33,4.35,0.97,6.92,0.64,9.36
		c-1.47,10.63-3.49,21.19-4.79,31.85c-1.44,11.83,5.72,18.78,15.01,24.02c3.11,1.76,6.55,3.29,10.02,3.98
		c10.21,2.06,20.6,3.28,30.77,5.53c7.53,1.68,12.95-0.82,16.58-6.93c3.66-6.17,7.71-12.53,9.46-19.35
		C161.029,158.138,166.819,131.728,173.109,105.438z M120.539,44.338c-0.51-0.85-1.03-1.71-1.54-2.57
		c-8.82,5.05-17.24,10.63-24.31,18.06c0.53,0.75,1.06,1.51,1.59,2.26C104.369,56.178,112.459,50.258,120.539,44.338z
		 M103.519,72.568c8.55-5.18,15.44-9.35,23.99-14.53C116.189,59.678,108.939,64.008,103.519,72.568z M94.379,243.538
		c6.27-5.67,11.58-10.47,16.89-15.27C102.729,229.998,98.339,235.688,94.379,243.538z M102.719,249.908
		c-0.58-0.69-1.16-1.38-1.74-2.07c-3.78,3.12-7.56,6.23-11.34,9.35c0.83,0.9,1.65,1.8,2.48,2.71
		C95.659,256.568,99.189,253.238,102.719,249.908z M91.399,275.678c2.34-3.05,4.68-6.1,7.02-9.15c-0.65-0.54-1.29-1.08-1.94-1.63
		c-2.65,2.86-5.31,5.72-7.97,8.57C89.479,274.208,90.439,274.948,91.399,275.678z M59.989,363.558c2.89-2.67,5.78-5.33,8.67-8
		C63.509,355.448,60.609,358.128,59.989,363.558z M56.969,378.708c2.32-2.92,4.65-5.84,6.97-8.76c-0.67-0.64-1.34-1.28-2-1.92
		c-2.4,2.99-4.79,5.98-7.18,8.96C55.489,377.568,56.229,378.138,56.969,378.708z"/>
	<path d="M189.639,39.778c4.83,5.41,1.31,12.8-6.03,13.08c-4.6,0.18-9.24-1.48-13.89-1.77c-19.16-1.22-36.24-8.98-53.37-16.64
		c-1.93-0.86-3.86-2.08-5.32-3.58c-4.22-4.33-3.2-10.34,2.54-12.07c7.17-2.17,14.6-2.62,22.84,3c-8.14,1.95-15.7-2.21-22.39,3.4
		c1.62,1.83,2.64,4.01,4.26,4.63c20.8,8.01,42.04,14.08,65.52,14.53c-3.58-9.27-11.73-8.95-17.83-13.06
		c3.33-3.34,7.18-3.26,9.96-1.7C180.869,32.368,185.919,35.598,189.639,39.778z"/>
	<path d="M167.969,93.628c4.53,2.59,6.45,6.34,5.14,11.81c-6.29,26.29-12.08,52.7-18.79,78.88c-1.75,6.82-5.8,13.18-9.46,19.35
		c-3.63,6.11-9.05,8.61-16.58,6.93c-10.17-2.25-20.56-3.47-30.77-5.53c-3.47-0.69-6.91-2.22-10.02-3.98
		c-9.29-5.24-16.45-12.19-15.01-24.02c1.3-10.66,3.32-21.22,4.79-31.85c0.33-2.44-0.31-5.01-0.64-9.36
		c8.9-12.04,11.14-29.2,17.33-44.78c4.96-12.5,6.52-14.25,19.95-11.79c14.87,2.73,29.58,6.29,44.28,9.81
		C161.619,89.918,164.849,91.848,167.969,93.628z M164.239,109.258c-11.91-0.26-22.58,1.11-33.1-3.1
		c-10.35-4.14-21.1-7.08-30.1-16.96c-3.43,10.04-6.39,18.68-10,29.25c4.72-3.1,7.57-4.97,10.43-6.84
		c-11.17,17.12-11.17,17.12-10.8,23.01c2.21-0.89,4.43-1.78,8.1-3.25c-5.4,9.61-17.43,13.53-14.64,26.46
		c3.36-2.65,5.99-4.72,8.79-6.92c0.36,1.06,0.66,1.52,0.55,1.68c-3.64,4.91-7.41,9.73-10.98,14.7c-5.88,8.19-4.85,18.71,2.89,25.04
		c3.26,2.67,7.22,5.16,11.24,6.11c9.41,2.2,19.04,3.53,28.61,5.02c10.51,1.63,10.59,1.56,15.65-7.69
		c11.25-20.56,15.63-43.27,20.33-65.86C162.569,123.388,163.169,116.698,164.239,109.258z M107.499,87.128
		c9.89,13.23,39.75,20.29,55.51,13.13C154.859,94.368,116.009,85.188,107.499,87.128z"/>
	<path style="fill:#C1272D;" d="M131.139,106.158c10.52,4.21,21.19,2.84,33.1,3.1c-1.07,7.44-1.67,14.13-3.03,20.65
		c-4.7,22.59-9.08,45.3-20.33,65.86c-5.06,9.25-5.14,9.32-15.65,7.69c-9.57-1.49-19.2-2.82-28.61-5.02
		c-4.02-0.95-7.98-3.44-11.24-6.11c-7.74-6.33-8.77-16.85-2.89-25.04c3.57-4.97,7.34-9.79,10.98-14.7c0.11-0.16-0.19-0.62-0.55-1.68
		c-2.8,2.2-5.43,4.27-8.79,6.92c-2.79-12.93,9.24-16.85,14.64-26.46c-3.67,1.47-5.89,2.36-8.1,3.25c-0.37-5.89-0.37-5.89,10.8-23.01
		c-2.86,1.87-5.71,3.74-10.43,6.84c3.61-10.57,6.57-19.21,10-29.25C110.039,99.078,120.789,102.018,131.139,106.158z"/>
	<path style="fill:#C1272D;" d="M163.009,100.258c-15.76,7.16-45.62,0.1-55.51-13.13C116.009,85.188,154.859,94.368,163.009,100.258
		z"/>
	<path d="M118.999,41.768c0.51,0.86,1.03,1.72,1.54,2.57c-8.08,5.92-16.17,11.84-24.26,17.75c-0.53-0.75-1.06-1.51-1.59-2.26
		C101.759,52.398,110.179,46.818,118.999,41.768z"/>
	<path d="M127.509,58.038c-8.55,5.18-15.44,9.35-23.99,14.53C108.939,64.008,116.189,59.678,127.509,58.038z"/>
	<path d="M111.269,228.268c-5.31,4.8-10.62,9.6-16.89,15.27C98.339,235.688,102.729,229.998,111.269,228.268z"/>
	<path d="M100.979,247.838c0.58,0.69,1.16,1.38,1.74,2.07c-3.53,3.33-7.06,6.66-10.6,9.99c-0.83-0.91-1.65-1.81-2.48-2.71
		C93.419,254.068,97.199,250.958,100.979,247.838z"/>
	<path d="M98.419,266.528c-2.34,3.05-4.68,6.1-7.02,9.15c-0.96-0.73-1.92-1.47-2.89-2.21c2.66-2.85,5.32-5.71,7.97-8.57
		C97.129,265.448,97.769,265.988,98.419,266.528z"/>
	<path d="M68.659,355.558c-2.89,2.67-5.78,5.33-8.67,8C60.609,358.128,63.509,355.448,68.659,355.558z"/>
	<path d="M63.939,369.948c-2.32,2.92-4.65,5.84-6.97,8.76c-0.74-0.57-1.48-1.14-2.21-1.72c2.39-2.98,4.78-5.97,7.18-8.96
		C62.599,368.668,63.269,369.308,63.939,369.948z"/>
</g>
<g>
</g>
<g>
</g>
<g>
</g>
<g>
</g>
<g>
</g>
<g>
</g>
<g>
</g>
<g>
</g>
<g>
</g>
<g>
</g>
<g>
</g>
<g>
</g>
<g>
</g>
<g>
</g>
<g>
</g>
</svg>
