<?xml version="1.0" encoding="iso-8859-1"?>
<!-- Generator: Adobe Illustrator 18.0.0, SVG Export Plug-In . SVG Version: 6.00 Build 0)  -->
<!DOCTYPE svg PUBLIC "-//W3C//DTD SVG 1.1//EN" "http://www.w3.org/Graphics/SVG/1.1/DTD/svg11.dtd">
<svg version="1.1" id="Capa_1" xmlns="http://www.w3.org/2000/svg" xmlns:xlink="http://www.w3.org/1999/xlink" x="0px" y="0px"
	 viewBox="0 0 421.505 421.505" style="enable-background:new 0 0 421.505 421.505;" xml:space="preserve">
<g>
	<linearGradient id="SVGID_1_" gradientUnits="userSpaceOnUse" x1="413.4837" y1="216.4813" x2="219.0674" y2="216.4813">
		<stop  offset="0" style="stop-color:#39B54A"/>
		<stop  offset="0.1561" style="stop-color:#37B048"/>
		<stop  offset="0.351" style="stop-color:#33A042"/>
		<stop  offset="0.5667" style="stop-color:#2B8737"/>
		<stop  offset="0.7956" style="stop-color:#206429"/>
		<stop  offset="0.9317" style="stop-color:#184B1F"/>
	</linearGradient>
	<path style="fill:url(#SVGID_1_);" d="M409.887,156.545c6.64,16.05,4.02,34.83-7.32,53.34c-7.02-7.26-25.34-21.37-58.65-16.28
		c-2.09,0.32-3.73,2.12-3.6,4.23c0.15,2.38,2.29,4.07,4.61,3.71c28.66-4.44,44.56,6.73,50.99,12.98c1.38,1.34,2.6,2.84,3.69,4.43
		c13.59,19.84,17.14,40.27,9.99,57.5c-5.71,13.78-17.7,24.21-34.68,30.15c-26.81,9.39-57.2,3.33-79.31-15.82l-40.3-34.87
		l-31.93-36.75c14.41,5.52,32.45,10.82,48.59,10.82c1.92,0,3.81-0.08,5.66-0.24c2.21-0.19,3.84-2.12,3.65-4.32
		c-0.19-2.21-2.14-3.83-4.33-3.65c-18.67,1.6-41.91-6.23-57.88-12.95l4.39-3.83l72.24-62.76c21.28-18.5,50.74-24.91,76.88-16.73
		C390.967,131.265,403.867,141.995,409.887,156.545z"/>
	<linearGradient id="SVGID_2_" gradientUnits="userSpaceOnUse" x1="205.0247" y1="413.4841" x2="205.0247" y2="211.8453">
		<stop  offset="0" style="stop-color:#39B54A"/>
		<stop  offset="0.1561" style="stop-color:#37B048"/>
		<stop  offset="0.351" style="stop-color:#33A042"/>
		<stop  offset="0.5667" style="stop-color:#2B8737"/>
		<stop  offset="0.7956" style="stop-color:#206429"/>
		<stop  offset="0.9317" style="stop-color:#184B1F"/>
	</linearGradient>
	<path style="fill:url(#SVGID_2_);" d="M279.277,295.705c18.49,21.28,24.9,50.73,16.72,76.86c-5.75,18.39-16.48,31.29-31.03,37.32
		c-16.11,6.67-34.97,4-53.55-7.44c7.43-7.45,20.68-25.74,15.63-58.27c-0.34-2.19-2.39-3.68-4.57-3.34
		c-2.18,0.34-3.67,2.38-3.34,4.56c4.58,29.49-7.38,45.48-13.5,51.54c-1.33,1.31-4.61,3.71-5.38,4.2
		c-19.12,12.32-38.64,15.33-55.21,8.46c-13.78-5.7-24.2-17.69-30.15-34.67c-9.38-26.82-3.32-57.21,15.82-79.32l72.51-83.76
		c-7.33,16.68-17.08,43.62-15.21,65.52c0.17,2.09,1.92,3.66,3.98,3.66c0.11,0,0.23,0,0.34-0.01c2.2-0.19,3.83-2.12,3.65-4.33
		c-1.69-19.77,7.18-44.63,14.11-60.59l6.51,7.47L279.277,295.705z"/>
	<linearGradient id="SVGID_3_" gradientUnits="userSpaceOnUse" x1="8.0257" y1="205.0188" x2="196.3274" y2="205.0188">
		<stop  offset="0" style="stop-color:#39B54A"/>
		<stop  offset="0.1561" style="stop-color:#37B048"/>
		<stop  offset="0.351" style="stop-color:#33A042"/>
		<stop  offset="0.5667" style="stop-color:#2B8737"/>
		<stop  offset="0.7956" style="stop-color:#206429"/>
		<stop  offset="0.9317" style="stop-color:#184B1F"/>
	</linearGradient>
	<path style="fill:url(#SVGID_3_);" d="M196.327,207.585l-36.36,42.01l-34.16,29.67c-21.28,18.5-50.74,24.91-76.88,16.73
		c-18.38-5.75-31.28-16.48-37.3-31.04c-6.66-16.08-4.02-34.91,7.39-53.46c6.36,6.3,20.4,16.62,44.15,16.62
		c4.27,0,8.86-0.34,13.77-1.09c2.08-0.32,3.72-2.1,3.59-4.2c-0.14-2.4-2.29-4.1-4.6-3.74c-29.41,4.57-45.38-7.31-51.48-13.44
		c-0.94-0.96-1.79-1.99-2.55-3.1c-13.58-19.85-17.13-40.27-9.99-57.5c5.71-13.79,17.7-24.21,34.68-30.16
		c26.81-9.38,57.2-3.31,79.31,15.84l40.38,34.95l28.38,32.66c-16.12-6.17-36.8-12.08-54.27-10.58c-2.2,0.18-3.83,2.12-3.64,4.32
		c0.19,2.2,2.14,3.84,4.32,3.65C158.757,194.215,180.507,201.145,196.327,207.585z"/>
	<linearGradient id="SVGID_4_" gradientUnits="userSpaceOnUse" x1="216.4883" y1="8.0175" x2="216.4883" y2="201.3853">
		<stop  offset="0" style="stop-color:#39B54A"/>
		<stop  offset="0.1561" style="stop-color:#37B048"/>
		<stop  offset="0.351" style="stop-color:#33A042"/>
		<stop  offset="0.5667" style="stop-color:#2B8737"/>
		<stop  offset="0.7956" style="stop-color:#206429"/>
		<stop  offset="0.9317" style="stop-color:#184B1F"/>
	</linearGradient>
	<path style="fill:url(#SVGID_4_);" d="M306.617,46.585c9.38,26.81,3.32,57.2-15.82,79.32l-34.93,40.34l-38.56,33.5
		c6.84-16.69,14.36-40.14,12.7-59.62c-0.18-2.2-2.12-3.83-4.32-3.64c-2.2,0.19-3.84,2.12-3.65,4.32
		c1.69,19.77-7.17,44.62-14.11,60.58l-3.12-3.59l-0.01,0.01l-62.56-72c-18.49-21.28-24.9-50.74-16.73-76.88
		c5.77-18.39,16.5-31.29,31.04-37.31c16.1-6.66,34.94-4.01,53.51,7.42c-7.39,7.31-20.94,25.64-15.84,58.48
		c0.31,1.98,2.01,3.39,3.95,3.39c0.2,0,0.41-0.02,0.62-0.05c2.18-0.34,3.67-2.38,3.34-4.57c-5.12-32.94,10.41-49.04,15.38-53.26
		c0.79-0.67,2.82-2.06,3.5-2.5c19.2-12.45,38.81-15.52,55.45-8.62C290.247,17.615,300.667,29.605,306.617,46.585z"/>
	<path d="M417.277,153.475c7.98,19.29,4.58,41.65-9.55,63.23c13.9,21.46,17.2,43.67,9.26,62.81c-6.6,15.95-20.23,27.93-39.42,34.64
		c-9.2,3.22-18.79,4.8-28.35,4.8c-21.11,0-42.14-7.66-58.84-22.12l-0.02-0.01c16.36,22.66,21.48,51.9,13.28,78.13
		c-6.39,20.43-19.04,35.46-35.61,42.32c-6.83,2.83-14.05,4.23-21.48,4.23c-13.55,0-27.81-4.65-41.75-13.78
		c-21.46,13.9-43.67,17.2-62.81,9.27c-15.94-6.61-27.92-20.24-34.64-39.43c-10.33-29.51-3.69-62.92,17.33-87.2v-0.01
		c-15.51,11.2-34.09,17.13-52.69,17.13c-8.58,0-17.16-1.26-25.44-3.85c-20.43-6.39-35.46-19.04-42.32-35.62
		c-7.98-19.28-4.58-41.64,9.56-63.22c-13.9-21.46-17.2-43.68-9.27-62.82c6.6-15.94,20.24-27.92,39.43-34.64
		c29.5-10.32,62.91-3.68,87.19,17.34l0.04,0.04c-16.38-22.67-21.51-51.93-13.3-78.18c6.4-20.43,19.05-35.46,35.61-42.31
		c19.28-7.98,41.64-4.58,63.22,9.55c21.46-13.9,43.68-17.2,62.82-9.26c15.94,6.6,27.92,20.24,34.64,39.43
		c10.32,29.49,3.69,62.9-17.31,87.18c22.66-16.35,51.88-21.46,78.11-13.26C395.397,124.275,410.417,136.915,417.277,153.475z
		 M402.567,209.885c11.34-18.51,13.96-37.29,7.32-53.34c-6.02-14.55-18.92-25.28-37.31-31.04c-26.14-8.18-55.6-1.77-76.88,16.73
		l-72.24,62.76l-4.39,3.83c15.97,6.72,39.21,14.55,57.88,12.95c2.19-0.18,4.14,1.44,4.33,3.65c0.19,2.2-1.44,4.13-3.65,4.32
		c-1.85,0.16-3.74,0.24-5.66,0.24c-16.14,0-34.18-5.3-48.59-10.82l31.93,36.75l40.3,34.87c22.11,19.15,52.5,25.21,79.31,15.82
		c16.98-5.94,28.97-16.37,34.68-30.15c7.15-17.23,3.6-37.66-9.99-57.5c-1.09-1.59-2.31-3.09-3.69-4.43
		c-6.43-6.25-22.33-17.42-50.99-12.98c-2.32,0.36-4.46-1.33-4.61-3.71c-0.13-2.11,1.51-3.91,3.6-4.23
		C377.227,188.515,395.547,202.625,402.567,209.885z M290.797,125.905c19.14-22.12,25.2-52.51,15.82-79.32
		c-5.95-16.98-16.37-28.97-30.16-34.68c-16.64-6.9-36.25-3.83-55.45,8.62c-0.68,0.44-2.71,1.83-3.5,2.5
		c-4.97,4.22-20.5,20.32-15.38,53.26c0.33,2.19-1.16,4.23-3.34,4.57c-0.21,0.03-0.42,0.05-0.62,0.05c-1.94,0-3.64-1.41-3.95-3.39
		c-5.1-32.84,8.45-51.17,15.84-58.48c-18.57-11.43-37.41-14.08-53.51-7.42c-14.54,6.02-25.27,18.92-31.04,37.31
		c-8.17,26.14-1.76,55.6,16.73,76.88l62.56,72l0.01-0.01l3.12,3.59c6.94-15.96,15.8-40.81,14.11-60.58
		c-0.19-2.2,1.45-4.13,3.65-4.32c2.2-0.19,4.14,1.44,4.32,3.64c1.66,19.48-5.86,42.93-12.7,59.62l38.56-33.5L290.797,125.905z
		 M295.997,372.565c8.18-26.13,1.77-55.58-16.72-76.86l-62.67-72.14l-6.51-7.47c-6.93,15.96-15.8,40.82-14.11,60.59
		c0.18,2.21-1.45,4.14-3.65,4.33c-0.11,0.01-0.23,0.01-0.34,0.01c-2.06,0-3.81-1.57-3.98-3.66c-1.87-21.9,7.88-48.84,15.21-65.52
		l-72.51,83.76c-19.14,22.11-25.2,52.5-15.82,79.32c5.95,16.98,16.37,28.97,30.15,34.67c16.57,6.87,36.09,3.86,55.21-8.46
		c0.77-0.49,4.05-2.89,5.38-4.2c6.12-6.06,18.08-22.05,13.5-51.54c-0.33-2.18,1.16-4.22,3.34-4.56c2.18-0.34,4.23,1.15,4.57,3.34
		c5.05,32.53-8.2,50.82-15.63,58.27c18.58,11.44,37.44,14.11,53.55,7.44C279.517,403.855,290.247,390.955,295.997,372.565z
		 M159.967,249.595l36.36-42.01c-15.82-6.44-37.57-13.37-55.26-11.86c-2.18,0.19-4.13-1.45-4.32-3.65c-0.19-2.2,1.44-4.14,3.64-4.32
		c17.47-1.5,38.15,4.41,54.27,10.58l-28.38-32.66l-40.38-34.95c-22.11-19.15-52.5-25.22-79.31-15.84
		c-16.98,5.95-28.97,16.37-34.68,30.16c-7.14,17.23-3.59,37.65,9.99,57.5c0.76,1.11,1.61,2.14,2.55,3.1
		c6.1,6.13,22.07,18.01,51.48,13.44c2.31-0.36,4.46,1.34,4.6,3.74c0.13,2.1-1.51,3.88-3.59,4.2c-4.91,0.75-9.5,1.09-13.77,1.09
		c-23.75,0-37.79-10.32-44.15-16.62c-11.41,18.55-14.05,37.38-7.39,53.46c6.02,14.56,18.92,25.29,37.3,31.04
		c26.14,8.18,55.6,1.77,76.88-16.73L159.967,249.595z"/>
</g>
<g>
</g>
<g>
</g>
<g>
</g>
<g>
</g>
<g>
</g>
<g>
</g>
<g>
</g>
<g>
</g>
<g>
</g>
<g>
</g>
<g>
</g>
<g>
</g>
<g>
</g>
<g>
</g>
<g>
</g>
</svg>
